<svg width="40" height="40" viewBox="0 0 40 40" fill="none" xmlns="http://www.w3.org/2000/svg">
<path fill-rule="evenodd" clip-rule="evenodd" d="M25.1627 6.60753C25.1185 6.60777 25.0748 6.59902 25.0341 6.58181C24.9952 6.56503 24.9599 6.54072 24.9304 6.51028C24.9009 6.47983 24.8778 6.44385 24.8622 6.40441C24.8467 6.36497 24.8391 6.32285 24.8399 6.28046C24.8407 6.23808 24.8499 6.19628 24.8669 6.15746C24.9704 5.89054 25.0269 5.60777 25.0341 5.3216C25.0341 5.23634 25.068 5.15457 25.1283 5.09428C25.1885 5.03399 25.2703 5.00012 25.3556 5.00012C25.4408 5.00012 25.5226 5.03399 25.5829 5.09428C25.6432 5.15457 25.6771 5.23634 25.6771 5.3216C25.6703 5.69611 25.5963 6.06635 25.4585 6.41464C25.4334 6.47215 25.392 6.52105 25.3394 6.55533C25.2869 6.5896 25.2254 6.60775 25.1627 6.60753ZM24.2265 6.73617C24.2385 6.73681 24.2506 6.73681 24.2626 6.73617C24.3414 6.7357 24.4173 6.7063 24.4758 6.65355C24.5344 6.60081 24.5715 6.52839 24.5802 6.45005C24.6625 5.71129 24.1076 5.22649 24.0838 5.20592C24.0517 5.17848 24.0145 5.15762 23.9744 5.14455C23.9343 5.13148 23.8919 5.12644 23.8498 5.12972C23.8078 5.13301 23.7667 5.14455 23.7291 5.16369C23.6915 5.18283 23.658 5.2092 23.6305 5.24128C23.6031 5.27337 23.5822 5.31054 23.5692 5.35069C23.5561 5.39083 23.551 5.43316 23.5543 5.47525C23.5576 5.51734 23.5691 5.55838 23.5883 5.59601C23.6074 5.63364 23.6338 5.66713 23.6659 5.69457C23.6691 5.69714 23.9854 5.98069 23.9411 6.37933C23.9362 6.42154 23.9397 6.46431 23.9514 6.50515C23.9631 6.546 23.9828 6.58412 24.0094 6.6173C24.0359 6.65049 24.0688 6.67808 24.1061 6.69848C24.1433 6.71889 24.1843 6.7317 24.2265 6.73617ZM21.768 9.65928C22.0059 9.45448 22.2298 9.2336 22.438 8.99812C23.2141 8.12562 23.5639 7.32127 23.479 6.60758C23.4346 6.2091 23.2381 5.84313 22.9305 5.58591C22.6513 5.32683 22.2826 5.18602 21.9018 5.19306H21.8934C21.2224 5.19602 20.5105 5.58894 19.7748 6.35327C19.5232 6.17142 19.2206 6.06879 18.9062 6.06235C18.7019 6.05817 18.4988 6.09481 18.3089 6.1701C18.1189 6.2454 17.9458 6.35786 17.7999 6.50087C17.7255 6.57368 17.659 6.65366 17.6011 6.7395C17.5852 6.72153 17.5687 6.70391 17.5519 6.68665C17.3405 6.47041 17.07 6.32137 16.7743 6.2582C16.4786 6.19504 16.1708 6.22056 15.8895 6.33157C15.6082 6.44259 15.366 6.63415 15.1931 6.88225C15.1146 6.99494 15.052 7.11702 15.0064 7.24504C14.354 6.74137 13.6604 6.37258 12.9286 6.142C11.9994 5.85043 11.007 5.82526 10.0642 6.06934C8.96021 6.37025 8.18866 7.04214 7.82088 8.01366C7.66661 8.42487 7.58201 8.82813 7.55629 9.21638C6.74245 9.12056 6.09953 9.24675 5.6418 9.59152C5.33583 9.81587 5.12447 10.1462 5.04899 10.518C4.95084 10.8893 5.00136 11.2842 5.1898 11.6188C5.34763 11.9138 5.5952 12.1727 5.93041 12.3942H5.87402C5.78876 12.3942 5.70699 12.4281 5.6467 12.4884C5.58641 12.5487 5.55254 12.6304 5.55254 12.7157V17.7951C5.55254 17.8804 5.58641 17.9621 5.6467 18.0224C5.70699 18.0827 5.78876 18.1166 5.87402 18.1166H7.09554V35.3479C7.09554 35.4332 7.12941 35.515 7.1897 35.5752C7.24999 35.6355 7.33176 35.6694 7.41703 35.6694H17.1871L17.1901 35.6694H22.3338L22.3367 35.6694H32.1711C32.2564 35.6694 32.3381 35.6355 32.3984 35.5752C32.4587 35.515 32.4926 35.4332 32.4926 35.3479V18.1166H33.65C33.7353 18.1166 33.8171 18.0827 33.8773 18.0224C33.9376 17.9621 33.9715 17.8804 33.9715 17.7951V12.7157C33.9715 12.6304 33.9376 12.5487 33.8773 12.4884C33.8171 12.4281 33.7353 12.3942 33.65 12.3942H30.7026C31.2101 11.987 31.6024 11.4491 31.8341 10.8338C32.1756 9.94261 32.1672 8.96723 31.8091 8.01372C31.4458 7.04477 30.671 6.37288 29.569 6.07197C28.6262 5.82789 27.6338 5.85306 26.7046 6.14462C25.146 6.63649 23.7572 7.75717 22.5742 9.47453C22.5458 9.51841 22.46 9.66878 22.3527 9.86471C22.1577 9.7845 21.9624 9.71648 21.768 9.65928ZM22.6552 10.6476V11.4036C23.9439 10.4118 26.0472 9.36927 27.491 9.23786C29.443 9.0604 29.787 9.91683 29.8198 10.0146L29.2096 10.2184C29.2107 10.2222 29.2121 10.2259 29.2137 10.2296C29.1854 10.1789 28.8911 9.75612 27.5495 9.87825C26.1131 10.0068 23.857 11.1918 22.7305 12.1723C22.7077 12.1925 22.6823 12.2091 22.6552 12.2219V12.3942H24.269C24.3795 12.0932 24.661 11.4935 25.2129 11.2445C25.6052 11.0671 26.0424 11.0979 26.5117 11.3365C26.9615 11.5649 27.2716 11.9537 27.485 12.3942H29.5182C29.5488 12.3534 29.5888 12.3203 29.6352 12.2978C29.731 12.2515 29.8281 12.2026 29.9155 12.1518C31.4117 11.3102 31.6985 9.54525 31.2079 8.23682C30.5508 6.48411 28.2927 6.31501 26.9 6.75801C25.4817 7.20808 24.2054 8.24261 23.1066 9.83909C23.0776 9.88281 22.9008 10.194 22.6938 10.5901C22.683 10.6107 22.67 10.63 22.6552 10.6476ZM29.2161 10.2345C29.2161 10.2342 29.2153 10.2325 29.2137 10.2296L29.2161 10.2345ZM26.7429 12.3942C26.6033 12.1872 26.431 12.0175 26.2192 11.91C25.9292 11.7628 25.6862 11.7364 25.4772 11.8296C25.2458 11.9335 25.075 12.1765 24.9661 12.3942H26.7429ZM27.0497 13.0372C27.2578 13.6545 27.3103 14.3563 27.3057 14.7839C27.19 14.8459 27.0889 14.9321 27.0095 15.0368L25.197 17.4993L25.1899 17.509C25.1834 17.5185 25.177 17.5281 25.1708 17.5379H23.0655C23.0318 17.0424 22.887 16.5609 22.642 16.1291C22.6507 16.0998 22.6552 16.0691 22.6552 16.0379V13.0372H27.0497ZM27.9492 14.7202C27.9473 14.3693 27.9148 13.7024 27.7259 13.0372H33.3285V17.4736H31.3312L31.2948 17.2653C31.2688 17.1143 31.213 16.9701 31.1308 16.8408C31.0486 16.7116 30.9415 16.5999 30.8158 16.5124C30.8113 16.509 30.8066 16.506 30.8017 16.5034C30.7817 16.4912 28.7757 15.2342 28.2034 14.8317L28.1732 14.813C28.0993 14.7725 28.0243 14.7415 27.9492 14.7202ZM22.0123 12.3942V10.4235C20.1008 9.68028 18.1314 10.2242 17.5115 10.4332V12.3942H22.0123ZM16.8686 12.3942V12.1437C15.7308 11.1693 13.5064 10.0093 12.0818 9.88016C10.6615 9.75157 10.4178 10.2312 10.4152 10.2364C10.4179 10.2313 10.4201 10.2259 10.4217 10.2203L9.8147 10.0152C9.84749 9.91745 10.1902 9.06103 12.1429 9.23849C13.5457 9.36622 15.5727 10.3548 16.8686 11.3209V10.426C16.8542 10.4093 16.8415 10.391 16.8307 10.3714C16.6636 10.0602 16.5504 9.86411 16.5311 9.83518C15.4329 8.23998 14.156 7.20288 12.7376 6.75538C11.3443 6.3156 9.08623 6.48405 8.42977 8.2342C7.93919 9.54263 8.22595 11.3076 9.72277 12.1492C9.87353 12.2341 10.0287 12.3109 10.1876 12.3794C10.1979 12.3838 10.2079 12.3888 10.2176 12.3942H16.8686ZM17.2709 9.83487C17.5331 9.74346 18.0281 9.59178 18.6638 9.49318C18.6324 9.40007 18.5857 9.31232 18.5252 9.2337C18.4573 9.14546 18.3739 9.0711 18.2794 9.01402C18.2288 8.99274 18.1795 8.96879 18.1316 8.94231L18.1239 8.93949C17.965 8.88141 17.7929 8.86968 17.6275 8.90567C17.4622 8.94165 17.3105 9.02386 17.19 9.14273C17.1153 9.21694 17.0547 9.30366 17.0106 9.39866C17.0276 9.42295 17.0446 9.44736 17.0615 9.4719C17.094 9.51931 17.1796 9.66922 17.2709 9.83487ZM19.3157 9.41843C19.2895 9.30781 19.2511 9.20069 19.2014 9.099C19.4923 9.03571 19.7607 8.88871 19.972 8.67305C20.2533 8.38594 20.4109 8.00001 20.4109 7.59807C20.4109 7.32695 20.3392 7.06313 20.2062 6.83199C20.9677 6.0269 21.5322 5.84329 21.8786 5.83602C22.2688 5.82899 22.4744 6.03507 22.4816 6.04232L22.4817 6.04242C22.4962 6.06042 22.5136 6.07585 22.5332 6.08807C22.6229 6.16444 22.6967 6.25776 22.7503 6.36268C22.8039 6.4676 22.8363 6.58207 22.8457 6.69952C22.899 7.21325 22.5936 7.86072 21.9609 8.57183C21.6624 8.90924 21.3286 9.21362 20.9653 9.47978C20.3818 9.3883 19.8211 9.38111 19.3157 9.41843ZM6.1955 13.0372H16.8686V16.0591C16.8686 16.0852 16.8718 16.1111 16.8779 16.136C16.7064 16.4401 16.5831 16.7709 16.5143 17.117C16.4908 17.2352 16.4738 17.3543 16.4633 17.4736H6.1955V13.0372ZM16.4771 18.1808H7.73851V21.9743H16.8686V19.3732C16.807 19.2625 16.7515 19.148 16.7027 19.0301C16.5895 18.7568 16.5141 18.4711 16.4771 18.1808ZM17.5115 20.192V35.0264H22.0123V20.1902C21.4014 20.7567 20.5981 21.0734 19.7619 21.0742C19.107 21.0742 18.4668 20.88 17.9223 20.5162C17.7764 20.4187 17.6391 20.3102 17.5115 20.192ZM22.6433 19.3922C22.6512 19.4202 22.6552 19.4494 22.6552 19.479V21.9743H25.6357L25.0054 18.3635C24.9946 18.3028 24.9889 18.2417 24.9879 18.1808H23.0464C22.9916 18.6083 22.8541 19.0196 22.6433 19.3922ZM22.6552 22.6173H25.7479L25.9782 23.936C26.026 24.2059 26.1671 24.4503 26.3769 24.6266C26.5867 24.8029 26.8518 24.8999 27.1258 24.9005C27.1932 24.901 27.2606 24.8959 27.3271 24.885L31.3192 24.1881C31.5153 24.1534 31.6974 24.0697 31.8496 23.9469V27.1181H22.6552V22.6173ZM31.8496 18.1166V20.4434L31.4434 18.1166H31.8496ZM22.0123 15.3339V13.0372H20.0833V14.4674C20.4068 14.4989 20.7256 14.578 21.0291 14.7038C21.3935 14.8547 21.726 15.0687 22.0123 15.3339ZM19.4403 14.4674C19.3318 14.478 19.2235 14.4939 19.1159 14.5153C18.515 14.6349 17.9598 14.9186 17.5115 15.3339V13.0372H19.4403V14.4674ZM22.6552 35.0264H31.8496V27.761H22.6552V35.0264ZM16.8686 22.6173H7.73851V27.1181H16.8686V22.6173ZM16.8686 27.761V35.0264H7.73851V27.761H16.8686ZM7.56818 9.8693C7.67744 10.9199 8.21436 11.8159 8.92915 12.3942H7.61882C6.41068 12.0959 5.94348 11.6519 5.76461 11.3314C5.65075 11.1425 5.615 10.9167 5.66495 10.7019C5.67351 10.6814 5.67892 10.6597 5.68102 10.6376C5.72879 10.4192 5.85742 10.2269 6.04108 10.0995C6.37252 9.85681 6.89897 9.77809 7.56818 9.8693ZM16.9264 8.51773C16.7818 8.60811 16.6145 8.65511 16.4444 8.65347C16.1602 8.30964 15.8658 7.99682 15.5616 7.71538C15.5698 7.54925 15.6243 7.38853 15.7192 7.2515C15.8188 7.10759 15.9586 6.99615 16.121 6.93105C16.2835 6.86595 16.4615 6.85007 16.633 6.88537C16.8044 6.92068 16.9617 7.00561 17.0852 7.12961C17.212 7.25675 17.2976 7.41918 17.3308 7.59571C17.3345 7.61542 17.3375 7.63521 17.3398 7.65503C17.341 7.68561 17.343 7.71612 17.346 7.74651C17.348 7.87409 17.3226 8.00122 17.2709 8.11914C17.1987 8.28362 17.0787 8.42253 16.9264 8.51773ZM18.9062 6.70532C18.7297 6.70536 18.5572 6.75772 18.4104 6.85577C18.2636 6.95383 18.1492 7.09318 18.0815 7.25624C18.0139 7.41929 17.9961 7.59873 18.0304 7.77189C18.0647 7.94506 18.1495 8.10417 18.2742 8.22914C18.378 8.33313 18.5058 8.40993 18.6463 8.45273C18.7868 8.49552 18.9357 8.503 19.0798 8.47448C19.2239 8.44597 19.3588 8.38236 19.4724 8.28927C19.586 8.19619 19.675 8.07651 19.7313 7.94085C19.7876 7.80518 19.8096 7.65771 19.7953 7.51152C19.781 7.36532 19.7309 7.2249 19.6494 7.10271C19.5678 6.98052 19.4574 6.88033 19.3279 6.81101C19.1984 6.74169 19.0538 6.70539 18.9069 6.70532H18.9062ZM32.5569 10.9153C32.4958 10.9153 32.436 10.8979 32.3845 10.8651C32.333 10.8323 32.2918 10.7855 32.2659 10.7302C32.24 10.6749 32.2304 10.6133 32.2382 10.5527C32.246 10.4921 32.2709 10.435 32.31 10.3881C32.4676 10.1991 32.4759 9.66927 32.4316 9.35294C32.4199 9.26871 32.4421 9.18332 32.4933 9.11544C32.5445 9.04755 32.6205 9.00271 32.7047 8.99073C32.7889 8.97874 32.8744 9.00058 32.9425 9.05147C33.0106 9.10236 33.0557 9.17816 33.0681 9.26228C33.0835 9.36901 33.205 10.318 32.8038 10.7996C32.7737 10.8358 32.7359 10.8649 32.6933 10.8849C32.6506 10.9049 32.6041 10.9153 32.5569 10.9153ZM32.8723 11.3603C32.9289 11.4051 32.9989 11.4296 33.0711 11.4297C33.1212 11.4297 33.1705 11.418 33.2152 11.3956C33.2383 11.3841 33.799 11.0992 34.3506 10.4087C34.3794 10.376 34.4012 10.3379 34.4148 10.2966C34.4284 10.2553 34.4334 10.2116 34.4296 10.1683C34.4258 10.1249 34.4133 10.0828 34.3928 10.0445C34.3722 10.0061 34.3442 9.97237 34.3102 9.9452C34.2762 9.91803 34.2371 9.89803 34.1952 9.88642C34.1533 9.87481 34.1094 9.87182 34.0663 9.87765C34.0232 9.88347 33.9818 9.89797 33.9444 9.92029C33.9071 9.9426 33.8747 9.97226 33.8491 10.0075C33.3972 10.5716 32.944 10.8121 32.9268 10.8213L32.9265 10.8215C32.8621 10.8541 32.8105 10.9075 32.7801 10.973C32.7498 11.0385 32.7423 11.1124 32.759 11.1826C32.7758 11.2529 32.8156 11.3154 32.8723 11.3603ZM34.6786 12.3299C34.6219 12.3299 34.5663 12.3149 34.5173 12.2864C34.4682 12.258 34.4276 12.2171 34.3995 12.1679C34.3185 12.0264 33.8209 11.9975 33.4518 12.0669C33.3698 12.0787 33.2863 12.0583 33.2189 12.0101C33.1516 11.9618 33.1054 11.8894 33.0901 11.8079C33.0749 11.7264 33.0917 11.6422 33.137 11.5728C33.1824 11.5035 33.2528 11.4543 33.3335 11.4355C33.5425 11.3957 34.6046 11.2317 34.9576 11.849C34.9999 11.923 35.011 12.0107 34.9886 12.093C34.9662 12.1752 34.912 12.2452 34.838 12.2875C34.7896 12.3154 34.7345 12.3301 34.6786 12.3299ZM18.2795 15.5444C18.7183 15.2512 19.2342 15.0947 19.7619 15.0947C20.4693 15.0955 21.1475 15.3769 21.6478 15.8771C22.148 16.3774 22.4294 17.0556 22.4302 17.763C22.4302 18.2907 22.2737 18.8066 21.9805 19.2454C21.6873 19.6842 21.2706 20.0262 20.783 20.2282C20.558 20.3214 20.3225 20.3828 20.0833 20.4119V18.2059C20.0833 18.1207 20.0494 18.0389 19.9891 17.9786C19.9289 17.9183 19.8471 17.8844 19.7618 17.8844C19.6766 17.8844 19.5948 17.9183 19.5345 17.9786C19.4742 18.0389 19.4403 18.1207 19.4403 18.2059V20.4118C19.3738 20.4037 19.3074 20.3931 19.2414 20.38C18.7238 20.277 18.2483 20.0229 17.8752 19.6497C17.502 19.2766 17.2479 18.8011 17.1449 18.2835C17.0419 17.7659 17.0948 17.2294 17.2967 16.7419C17.4987 16.2543 17.8407 15.8376 18.2795 15.5444ZM25.719 17.8735C25.6448 17.9846 25.616 18.1199 25.6387 18.2516L26.6115 23.8242C26.6353 23.9608 26.7125 24.0824 26.8259 24.1622C26.9393 24.242 27.0798 24.2735 27.2165 24.2498L31.2067 23.5528C31.3429 23.528 31.4638 23.4507 31.5435 23.3375C31.6231 23.2243 31.655 23.0843 31.6324 22.9478L30.6596 17.3752C30.636 17.2412 30.561 17.1217 30.4506 17.0422C30.2924 16.9432 28.4401 15.782 27.8479 15.3705C27.6466 15.267 27.5489 15.3859 27.5309 15.411L27.5264 15.4168L25.719 17.8735ZM27.9662 17.4408C27.8922 17.4406 27.8205 17.415 27.7633 17.3681C27.706 17.3213 27.6666 17.2561 27.6518 17.1836L27.639 17.1193C27.6294 17.0777 27.6283 17.0347 27.6355 16.9926C27.6428 16.9506 27.6584 16.9105 27.6813 16.8745C27.7042 16.8386 27.7341 16.8075 27.7691 16.7832C27.8042 16.7589 27.8437 16.7418 27.8854 16.733C27.9271 16.7241 27.9702 16.7236 28.0121 16.7315C28.054 16.7395 28.0939 16.7557 28.1295 16.7792C28.1651 16.8027 28.1956 16.833 28.2194 16.8685C28.2431 16.9039 28.2596 16.9437 28.2678 16.9855L28.2806 17.0498C28.2984 17.1331 28.2823 17.2201 28.2361 17.2915C28.1898 17.363 28.117 17.4132 28.0337 17.4311C28.0116 17.4366 27.989 17.4398 27.9662 17.4408ZM14.7658 33.3363C14.8148 33.3645 14.8704 33.3794 14.9269 33.3792H14.9282C14.9846 33.3791 15.04 33.3642 15.0887 33.3359C15.1375 33.3077 15.178 33.2671 15.2062 33.2182C15.2343 33.1694 15.2491 33.114 15.2491 33.0576C15.249 33.0012 15.2342 32.9458 15.206 32.897L14.6655 31.9609H15.7473C15.8326 31.9609 15.9143 31.927 15.9746 31.8667C16.0349 31.8064 16.0688 31.7247 16.0688 31.6394C16.0688 31.5541 16.0349 31.4724 15.9746 31.4121C15.9143 31.3518 15.8326 31.3179 15.7473 31.3179H14.6636L15.2052 30.3804C15.2472 30.3066 15.2582 30.2192 15.236 30.1373C15.2137 30.0554 15.16 29.9856 15.0865 29.9431C15.013 29.9007 14.9256 29.889 14.8436 29.9107C14.7615 29.9324 14.6913 29.9857 14.6484 30.0589L14.1077 30.9949L13.5677 30.0596C13.5468 30.0228 13.5187 29.9904 13.4852 29.9644C13.4517 29.9385 13.4134 29.9194 13.3725 29.9083C13.3316 29.8972 13.2889 29.8943 13.2468 29.8997C13.2048 29.9052 13.1642 29.9189 13.1275 29.9401C13.0908 29.9613 13.0586 29.9896 13.0329 30.0232C13.0071 30.0569 12.9883 30.0954 12.9775 30.1363C12.9666 30.1773 12.964 30.2201 12.9697 30.2621C12.9755 30.3041 12.9895 30.3445 13.0109 30.3811L13.5514 31.3179H12.4682C12.3829 31.3179 12.3012 31.3518 12.2409 31.4121C12.1806 31.4724 12.1467 31.5541 12.1467 31.6394C12.1467 31.7247 12.1806 31.8064 12.2409 31.8667C12.3012 31.927 12.3829 31.9609 12.4682 31.9609H13.5496L13.0088 32.897C12.9662 32.9708 12.9547 33.0586 12.9767 33.1409C12.9988 33.2233 13.0527 33.2935 13.1265 33.3361C13.1753 33.3645 13.2308 33.3794 13.2872 33.3792C13.3437 33.3792 13.3991 33.3643 13.448 33.3361C13.4969 33.3079 13.5374 33.2673 13.5656 33.2185L14.1071 32.2812L14.6479 33.2185C14.6762 33.2675 14.7169 33.3081 14.7658 33.3363ZM27.786 31.9004C27.7295 31.9005 27.6739 31.8857 27.6249 31.8575C27.5759 31.8293 27.5352 31.7886 27.5069 31.7397L26.9663 30.8026L26.4249 31.7396C26.3967 31.7885 26.3561 31.8291 26.3073 31.8573C26.2584 31.8855 26.203 31.9004 26.1465 31.9004C26.0901 31.9006 26.0346 31.8857 25.9858 31.8573C25.912 31.8147 25.8581 31.7444 25.836 31.6621C25.814 31.5797 25.8255 31.492 25.8681 31.4182L26.4089 30.4821H25.3275C25.2422 30.4821 25.1605 30.4482 25.1002 30.3879C25.0399 30.3276 25.006 30.2458 25.006 30.1606C25.006 30.0753 25.0399 29.9936 25.1002 29.9333C25.1605 29.873 25.2422 29.8391 25.3275 29.8391H26.4104L25.87 28.9023C25.8485 28.8657 25.8345 28.8253 25.8288 28.7833C25.823 28.7412 25.8257 28.6985 25.8365 28.6575C25.8473 28.6165 25.8662 28.5781 25.8919 28.5444C25.9177 28.5107 25.9498 28.4825 25.9866 28.4613C26.0233 28.4401 26.0638 28.4264 26.1059 28.4209C26.1479 28.4154 26.1906 28.4183 26.2315 28.4294C26.2724 28.4406 26.3108 28.4596 26.3443 28.4856C26.3778 28.5116 26.4058 28.5439 26.4268 28.5808L26.9669 29.5163L27.5077 28.5801C27.5506 28.5069 27.6208 28.4536 27.7029 28.4319C27.7849 28.4102 27.8723 28.4218 27.9458 28.4643C28.0193 28.5067 28.073 28.5765 28.0953 28.6585C28.1175 28.7404 28.1065 28.8278 28.0645 28.9016L27.5229 29.8391H28.6066C28.6919 29.8391 28.7736 29.873 28.8339 29.9333C28.8942 29.9936 28.9281 30.0753 28.9281 30.1606C28.9281 30.2458 28.8942 30.3276 28.8339 30.3879C28.7736 30.4482 28.6919 30.4821 28.6066 30.4821H27.5245L28.065 31.4182C28.0932 31.467 28.1081 31.5224 28.1081 31.5788C28.1081 31.6352 28.0933 31.6905 28.0652 31.7394C28.0371 31.7883 27.9966 31.8288 27.9478 31.8571C27.899 31.8854 27.8437 31.9003 27.7873 31.9004H27.786ZM27.19 19.6606C27.2489 19.7149 27.326 19.7453 27.4061 19.7458C27.4246 19.7459 27.4431 19.7444 27.4614 19.7413L29.4886 19.3877C29.5303 19.3804 29.5701 19.365 29.6057 19.3424C29.6414 19.3197 29.6723 19.2903 29.6966 19.2557C29.7209 19.2211 29.7381 19.1821 29.7474 19.1409C29.7566 19.0997 29.7576 19.057 29.7503 19.0154C29.7431 18.9738 29.7277 18.934 29.705 18.8983C29.6824 18.8626 29.653 18.8317 29.6184 18.8074C29.5838 18.7831 29.5448 18.7659 29.5036 18.7567C29.4623 18.7474 29.4197 18.7464 29.378 18.7537L27.3508 19.108C27.2719 19.1222 27.2013 19.1654 27.1526 19.2291C27.104 19.2927 27.0808 19.3723 27.0877 19.4521C27.0947 19.5319 27.1311 19.6063 27.19 19.6606ZM27.6601 21.2028C27.5794 21.203 27.5015 21.1729 27.442 21.1185C27.3825 21.064 27.3456 20.9891 27.3387 20.9087C27.3318 20.8283 27.3554 20.7482 27.4048 20.6844C27.4543 20.6206 27.5259 20.5778 27.6054 20.5643L29.632 20.2107C29.6739 20.2028 29.7169 20.2033 29.7586 20.2121C29.8002 20.221 29.8397 20.238 29.8747 20.2623C29.9097 20.2865 29.9396 20.3175 29.9625 20.3533C29.9855 20.3892 30.0011 20.4293 30.0084 20.4713C30.0157 20.5132 30.0146 20.5562 30.0052 20.5977C29.9958 20.6393 29.9782 20.6785 29.9535 20.7132C29.9287 20.7479 29.8974 20.7773 29.8612 20.7998C29.825 20.8222 29.7847 20.8372 29.7426 20.844L27.716 21.1976C27.6976 21.2012 27.6789 21.203 27.6601 21.2028ZM27.6713 22.5513C27.731 22.6057 27.809 22.6357 27.8897 22.6353C27.9083 22.6351 27.9268 22.6334 27.945 22.6301L29.9723 22.2765C30.0553 22.2608 30.1288 22.2131 30.1769 22.1436C30.225 22.0741 30.2438 21.9885 30.2293 21.9053C30.2148 21.8221 30.168 21.7479 30.0992 21.6988C30.0304 21.6498 29.9451 21.6298 29.8617 21.6432L27.8344 21.9968C27.7548 22.0103 27.6831 22.0532 27.6337 22.1171C27.5843 22.1809 27.5607 22.2611 27.5677 22.3415C27.5747 22.422 27.6117 22.4969 27.6713 22.5513Z" fill="black"/>
</svg>
