<svg width="40" height="40" viewBox="0 0 40 40" fill="none" xmlns="http://www.w3.org/2000/svg">
<path fill-rule="evenodd" clip-rule="evenodd" d="M29.1305 15.0868C29.1305 14.7265 29.4222 14.4347 29.7825 14.4347C30.1429 14.4347 30.4346 14.7265 30.4349 15.0871V24.2176C30.4349 24.4413 30.4121 24.6575 30.3814 24.8696H31.0867C31.447 24.8696 31.7387 25.1614 31.7387 25.5217C31.7387 25.7408 31.7387 25.9575 31.7381 26.1738H33.0973C33.1107 26.1738 33.1228 26.1773 33.1348 26.1808C33.144 26.1835 33.1531 26.1862 33.1628 26.1872C34.2809 26.2567 34.9997 27.2541 35 28.7827C35 31.0244 32.8162 32.8854 31.0648 33.2714C31.0651 33.2707 31.0652 33.27 31.0654 33.2693L31.066 33.2673C30.6002 34.5317 29.8167 35.3043 28.4781 35.3043H26.5216C25.2084 35.3043 24.4241 34.569 23.9556 33.3477H19.3477C18.125 34.4948 16.5479 35.3043 14.7825 35.3043H12.174C8.08064 35.3043 5 30.9527 5 28.1303C5 27.77 5.29175 27.4782 5.65207 27.4782H7.07296C7.39351 26.4968 8.40464 25.738 9.6712 25.5665C9.87061 24.9626 10.3508 24.4931 10.9609 24.309C11.2035 23.5042 11.9429 22.9131 12.8257 22.9131C13.6775 22.9131 14.3966 23.4635 14.6645 24.2238C14.7031 24.225 14.7426 24.2263 14.7829 24.2278V17.9245L12.3346 14.8504C12.2385 14.7368 12.174 14.595 12.174 14.4344C12.174 14.0741 12.4654 13.7824 12.826 13.7824H14.8674C15.2878 12.0503 17.3514 10.733 20 10.5458V7.79262C19.2428 7.52278 18.6956 6.8056 18.6956 5.95663C18.6956 4.87789 19.5733 4.00012 20.6521 4.00012C21.7308 4.00012 22.6086 4.87789 22.6086 5.95632C22.6086 6.80529 22.0617 7.52246 21.3044 7.79324V10.5458C24.2774 10.7562 26.5216 12.3878 26.5216 14.4347V15.7392H29.1305V15.0868ZM16.0873 24.3748C16.8853 24.5405 17.6535 24.8809 17.9311 25.5793C18.8978 25.784 19.66 26.5281 19.9073 27.4782H21.3041C21.6648 27.4782 21.9565 27.77 21.9565 28.1303C21.9565 29.3106 21.4178 30.7583 20.4915 32.0433H23.5977C23.261 30.2899 23.261 27.9847 23.261 25.5217C23.261 25.1614 23.5527 24.8696 23.913 24.8696L25.2178 24.8696V15.0871H16.0873V24.3748ZM26.5219 24.8696L29.0592 24.8696C29.1008 24.6581 29.1308 24.4419 29.1308 24.2176V17.0436H26.5219V24.8696ZM14.1831 15.0871L14.7825 15.8368V15.0871H14.1831ZM21.3044 5.95663C21.3044 5.59757 21.0117 5.30457 20.6521 5.30457C20.2921 5.30457 20 5.59757 20 5.95663C20 6.31569 20.2924 6.6087 20.6521 6.6087C21.0117 6.6087 21.3044 6.31569 21.3044 5.95663ZM20.6508 11.8262C18.57 11.8262 16.7657 12.6726 16.2435 13.7827H25.0606C24.5385 12.6726 22.7341 11.8262 20.6527 11.8262H20.6514H20.6508ZM14.7825 33.9998H12.174C9.28115 33.9998 6.80625 31.025 6.37707 28.7827H20.5798C20.15 31.025 17.6754 33.9998 14.7825 33.9998ZM26.5216 33.9998H28.4781C30.3404 33.9998 30.4302 30.4396 30.434 26.1738H24.5657C24.5698 30.4396 24.6596 33.9998 26.5216 33.9998ZM31.7318 27.4782C31.7156 29.0697 31.6548 30.5376 31.4498 31.7638C32.5113 31.2548 33.6956 30.1043 33.6952 28.7827C33.6952 28.4768 33.6483 27.4782 33.0432 27.4782H31.7318Z" fill="#383838"/>
</svg>
