<svg width="40" height="40" viewBox="0 0 40 40" fill="none" xmlns="http://www.w3.org/2000/svg">
<path fill-rule="evenodd" clip-rule="evenodd" d="M15.7242 17.8438C15.6594 17.8438 15.594 17.8308 15.5303 17.8019C15.4724 17.7767 14.1171 17.1474 14.1171 15.0755C14.1171 13.5966 15.3428 12.4838 15.3953 12.437C15.6369 12.218 16.2599 11.4946 16.2599 10.7693C16.2599 9.53953 15.5494 9.19831 15.5301 9.18905L15.5298 9.18889C15.2544 9.06647 15.1178 8.70967 15.2249 8.39285C15.3315 8.07666 15.6433 7.91794 15.9182 8.04282C15.976 8.06804 17.3314 8.69736 17.3314 10.7693C17.3314 12.2438 16.1164 13.3505 16.0548 13.4053C16.0548 13.4059 16.0548 13.4065 16.0542 13.4065C15.8137 13.6255 15.1885 14.3496 15.1885 15.0755C15.1885 16.305 15.8988 16.6457 15.9183 16.6551L15.9187 16.6552C16.194 16.7777 16.3307 17.1345 16.2235 17.4513C16.141 17.6949 15.9385 17.8438 15.7242 17.8438ZM22.9282 22.1395C25.7916 22.4834 28.8832 23.4166 32.0343 25.304C33.3559 26.0957 35 27.0812 35 28.9243C35 30.6203 33.7984 32.0001 32.3214 32.0001H7.67857C6.20161 32.0001 5 30.6203 5 28.9243C5 27.0812 6.64464 26.0951 7.96625 25.3027C8.02196 25.2658 11.7827 22.8611 17.3037 22.166V22.1383C17.3425 22.1383 17.3844 22.1409 17.4261 22.1435L17.472 22.1463C19.1043 21.9525 20.885 21.9113 22.7691 22.1235L22.7723 22.102C22.8093 22.1098 22.8489 22.1197 22.8886 22.1297L22.9282 22.1395ZM7.67857 30.7704H32.3214C33.208 30.7704 33.9286 29.9424 33.9291 28.9249C33.9291 27.9972 33.1239 27.3451 31.5387 26.3953C29.6075 25.2381 27.7014 24.4581 25.8596 23.9561C26.502 24.7232 26.9643 25.745 26.9643 27.0793C26.9643 27.2368 26.9118 27.3949 26.8073 27.5149C26.5979 27.7548 26.2593 27.7548 26.0498 27.5149C25.9454 27.3949 25.8929 27.2368 25.8929 27.0793C25.8929 24.3634 23.3632 23.5187 22.7284 23.3496C21.8145 23.2431 20.9257 23.1976 20.067 23.2038C20.9305 23.9561 21.6071 25.1748 21.6071 27.08C21.6071 27.2374 21.5546 27.3955 21.4502 27.5155C21.2407 27.7554 20.9021 27.7554 20.6927 27.5155C20.5882 27.3955 20.5357 27.2374 20.5357 27.08C20.5357 23.8245 18.0741 23.4264 17.4452 23.3778C16.4729 23.4984 15.5573 23.6731 14.7104 23.8811C15.5434 24.4655 16.25 25.4657 16.25 27.0793C16.25 27.2368 16.1975 27.3949 16.093 27.5149C15.8836 27.7548 15.545 27.7548 15.3355 27.5149C15.2311 27.3949 15.1786 27.2368 15.1786 27.0793C15.1786 24.8986 13.34 24.4907 12.8407 24.42C10.1654 25.3064 8.52232 26.3553 8.48 26.383C6.87661 27.3451 6.07143 27.9972 6.07143 28.9249C6.07143 29.9424 6.7925 30.7704 7.67857 30.7704ZM19.816 17.8019C19.8798 17.8308 19.9451 17.8438 20.0099 17.8438C20.2242 17.8438 20.4267 17.6949 20.5092 17.4513C20.6164 17.1345 20.4798 16.7777 20.2044 16.6552L20.2041 16.6551C20.1845 16.6457 19.4742 16.305 19.4742 15.0755C19.4742 14.3496 20.0994 13.6255 20.3399 13.4065C20.3403 13.4065 20.3404 13.4063 20.3404 13.4059C20.3405 13.4057 20.3405 13.4055 20.3405 13.4053C20.4021 13.3505 21.6171 12.2438 21.6171 10.7693C21.6171 8.69736 20.2617 8.06804 20.2039 8.04282C19.928 7.91794 19.6173 8.07666 19.5107 8.39285C19.4035 8.70967 19.5401 9.06647 19.8155 9.18889L19.8158 9.18905C19.8351 9.19831 20.5457 9.53953 20.5457 10.7693C20.5457 11.4946 19.9226 12.218 19.681 12.437C19.6285 12.4838 18.4028 13.5966 18.4028 15.0755C18.4028 17.1474 19.7582 17.7767 19.816 17.8019ZM24.2957 17.8438C24.2308 17.8438 24.1655 17.8308 24.1017 17.8019C24.0439 17.7767 22.6885 17.1474 22.6885 15.0755C22.6885 13.5966 23.9142 12.4838 23.9667 12.437C24.2083 12.218 24.8314 11.4946 24.8314 10.7693C24.8314 9.53953 24.1208 9.19831 24.1015 9.18905L24.1012 9.18889C23.8258 9.06647 23.6892 8.70967 23.7964 8.39285C23.903 8.07666 24.2142 7.91794 24.4896 8.04282C24.5474 8.06804 25.9028 8.69736 25.9028 10.7693C25.9028 12.2438 24.6878 13.3505 24.6262 13.4053C24.6262 13.4056 24.6262 13.4059 24.6261 13.4061C24.6261 13.4064 24.6259 13.4065 24.6257 13.4065C24.3851 13.6255 23.7599 14.3496 23.7599 15.0755C23.7599 16.305 24.4702 16.6457 24.4898 16.6551L24.4901 16.6552C24.7655 16.7777 24.9021 17.1345 24.7949 17.4513C24.7124 17.6949 24.5099 17.8438 24.2957 17.8438Z" fill="#383838"/>
</svg>
