<svg width="40" height="40" viewBox="0 0 40 40" fill="none" xmlns="http://www.w3.org/2000/svg">
<path fill-rule="evenodd" clip-rule="evenodd" d="M29.6154 11.0001H35.2564C35.3924 11.0001 35.5229 11.0528 35.619 11.1466C35.7152 11.2403 35.7692 11.3675 35.7692 11.5001V14.5001V14.5251V14.5501L33.718 34.5501C33.7052 34.6739 33.6456 34.7886 33.5508 34.8718C33.4559 34.955 33.3327 35.0007 33.2051 35.0001H22.9487C22.8526 35.0003 22.7584 34.9742 22.6768 34.9247C22.5952 34.8751 22.5295 34.8043 22.4872 34.7201C21.978 34.9028 21.44 34.9975 20.8974 35.0001H9.61539C8.39131 35.0001 7.21737 34.526 6.35181 33.6821C5.48626 32.8382 5 31.6936 5 30.5001V30.0001H5.28718C5.10074 29.6981 5.00152 29.3526 5 29.0001C5.00216 28.6442 5.10167 28.2954 5.28828 27.9895C5.47488 27.6836 5.74182 27.4318 6.06154 27.2601C5.75466 26.9992 5.50396 26.6814 5.32396 26.3253C5.14397 25.9692 5.03827 25.5817 5.01299 25.1855C4.98771 24.7892 5.04335 24.392 5.17668 24.0169C5.31002 23.6417 5.5184 23.2962 5.78974 23.0001H5V22.5001C5.00162 21.5709 5.29827 20.6649 5.8492 19.9066C6.40013 19.1483 7.17833 18.5749 8.07692 18.2651V7.00012H10.1282V6.00012H13.2051V7.00012H21.4103V11.0001H26.5385V5.00012H29.6154V11.0001ZM28.5897 6.00012H27.5641V11.0001H28.5897V6.00012ZM21.4103 14.0001H34.7436V12.0001H21.4103V14.0001ZM20.3846 8.00012H19.359V13.0001H20.3846V8.00012ZM18.3333 8.00012H17.3077V13.0001H18.3333V8.00012ZM16.2821 8.00012H15.2564V13.0001H16.2821V8.00012ZM14.2308 13.0001V8.00012H13.2051V13.0001H14.2308ZM12.1795 13.0001V7.00012H11.1538V13.0001H12.1795ZM10.1282 8.00012H9.10256V13.0001H10.1282V8.00012ZM9.10256 14.0001V18.0001H20.7385L20.3846 14.5001V14.0001H9.10256ZM23.248 19.8541C22.5953 19.3031 21.7608 18.9999 20.8974 19.0001H9.61539C8.75202 18.9999 7.91749 19.3031 7.26477 19.8541C6.61206 20.4051 6.18488 21.167 6.06154 22.0001H24.4513C24.3279 21.167 23.9008 20.4051 23.248 19.8541ZM6.64428 26.4321C7.02753 26.7964 7.54166 27.0003 8.07692 27.0001H22.4359C22.9712 27.0003 23.4853 26.7964 23.8685 26.4321C24.2518 26.0678 24.4738 25.5718 24.4872 25.0501C24.1863 25.1214 23.9025 25.2487 23.6513 25.4251C23.093 25.7994 22.4314 25.9998 21.7538 25.9998C21.0763 25.9998 20.4147 25.7994 19.8564 25.4251C19.4628 25.1489 18.9901 25.0002 18.5051 25.0002C18.0201 25.0002 17.5474 25.1489 17.1538 25.4251C16.6014 25.8111 15.9359 26.0128 15.2564 26.0001C14.5752 26.0139 13.9077 25.8121 13.3538 25.4251C12.9669 25.1381 12.4912 24.9882 12.0051 25.0001C11.5138 24.9847 11.0321 25.1348 10.641 25.4251C10.0929 25.808 9.43324 26.0096 8.75897 26.0001C8.07773 26.0139 7.41024 25.8121 6.85641 25.4251C6.60647 25.2497 6.32451 25.1225 6.02564 25.0501C6.03902 25.5718 6.26103 26.0678 6.64428 26.4321ZM25.5128 23.0001H25.1795C25.4176 23.6546 25.8813 24.2083 26.4914 24.5666C27.1014 24.925 27.8201 25.066 28.5249 24.9654C29.2296 24.8648 29.8768 24.529 30.3559 24.0152C30.8351 23.5014 31.1165 22.8414 31.1523 22.1478C31.1881 21.4542 30.9761 20.77 30.5522 20.2119C30.1284 19.6538 29.5191 19.2563 28.8283 19.0873C28.1375 18.9182 27.4079 18.9881 26.764 19.2849C26.1201 19.5818 25.6018 20.0873 25.2974 20.7151C25.2687 20.7666 25.2324 20.8138 25.1897 20.8551C25.4021 21.3789 25.5117 21.9369 25.5128 22.5001V23.0001ZM23.4954 23.2941C23.1763 23.1038 22.81 23.0021 22.4359 23.0001H8.07692C7.70339 23.0016 7.33737 23.1025 7.01835 23.292C6.69933 23.4814 6.43942 23.7522 6.26667 24.0751C6.67608 24.172 7.06372 24.3415 7.41026 24.5751C7.7972 24.8622 8.27292 25.0121 8.75897 25.0001C9.252 25.0167 9.73574 24.8665 10.1282 24.5751C10.675 24.1932 11.3326 23.9918 12.0051 24.0001C12.6852 23.9889 13.3508 24.1924 13.9026 24.5801C14.2951 24.8567 14.767 25.0056 15.2513 25.0056C15.7356 25.0056 16.2075 24.8567 16.6 24.5801C17.1591 24.2054 17.8216 24.0048 18.5 24.0048C19.1784 24.0048 19.8409 24.2054 20.4 24.5801C20.7936 24.8564 21.2663 25.005 21.7513 25.005C22.2363 25.005 22.709 24.8564 23.1026 24.5801C23.448 24.3447 23.836 24.175 24.2462 24.0801C24.0741 23.7563 23.8145 23.4845 23.4954 23.2941ZM6.32604 28.293C6.1337 28.4806 6.02564 28.7349 6.02564 29.0001C6.02564 29.2653 6.1337 29.5197 6.32604 29.7072C6.51839 29.8948 6.77927 30.0001 7.05128 30.0001H23.4615C23.7336 30.0001 23.9944 29.8948 24.1868 29.7072C24.3791 29.5197 24.4872 29.2653 24.4872 29.0001C24.4872 28.7349 24.3791 28.4806 24.1868 28.293C23.9944 28.1055 23.7336 28.0001 23.4615 28.0001H7.05128C6.77927 28.0001 6.51839 28.1055 6.32604 28.293ZM7.26477 33.1462C7.91749 33.6972 8.75202 34.0003 9.61539 34.0001H20.8974C21.7608 34.0003 22.5953 33.6972 23.248 33.1462C23.9008 32.5952 24.3279 31.8333 24.4513 31.0001H6.06154C6.18488 31.8333 6.61206 32.5952 7.26477 33.1462ZM23.7897 34.0001H32.7436L34.6923 15.0001H21.4615L21.7795 18.0851C22.9215 18.3047 23.9363 18.9369 24.6205 19.8551C24.9903 19.2876 25.5009 18.8201 26.105 18.4959C26.7091 18.1717 27.3873 18.0012 28.0769 18.0001C28.7346 17.9967 29.3835 18.1474 29.9689 18.4397C30.5543 18.7319 31.0591 19.1571 31.4406 19.6794C31.8222 20.2017 32.0694 20.8058 32.1614 21.4407C32.2533 22.0756 32.1874 22.7228 31.9691 23.3277C31.7508 23.9326 31.3865 24.4775 30.907 24.9164C30.4275 25.3553 29.8468 25.6753 29.2139 25.8496C28.581 26.0238 27.9143 26.0471 27.2702 25.9176C26.6261 25.788 26.0234 25.5094 25.5128 25.1051C25.4968 25.5161 25.3943 25.9195 25.2117 26.2902C25.0291 26.6609 24.7703 26.991 24.4513 27.2601C24.771 27.4318 25.0379 27.6836 25.2245 27.9895C25.4112 28.2954 25.5107 28.6442 25.5128 29.0001C25.5113 29.3526 25.4121 29.6981 25.2256 30.0001H25.5128V30.5001C25.5118 31.1719 25.3565 31.835 25.0583 32.4406C24.7602 33.0463 24.3267 33.5791 23.7897 34.0001ZM11.1538 20.0001H10.1282V21.0001H11.1538V20.0001ZM14.2308 20.0001H13.2051V21.0001H14.2308V20.0001ZM16.2821 20.0001H17.3077V21.0001H16.2821V20.0001ZM20.3846 20.0001H19.359V21.0001H20.3846V20.0001Z" fill="black"/>
</svg>
