<svg width="40" height="40" viewBox="0 0 40 40" fill="none" xmlns="http://www.w3.org/2000/svg">
<path fill-rule="evenodd" clip-rule="evenodd" d="M5 19.1226L20.4 12.7676V12.6651C20.4 8.97511 23.8 6.00261 25.7 6.00261C27.6 5.90011 31 8.97511 31 12.6651C31 13.2801 31 13.7926 30.9 14.2026L35 19.1226V33.0626H5V19.1226ZM27.1 12.2551C27.6 12.2551 28 12.6651 28 13.1776C28 13.6901 27.6 13.9976 27.1 13.9976C26.6 13.9976 26.2 13.6901 26.2 13.1776C26.2 12.6651 26.6 12.2551 27.1 12.2551ZM23.9 12.2551C24.4 12.2551 24.8 12.6651 24.8 13.1776C24.8 13.6901 24.4 13.9976 23.9 13.9976C23.4 13.9976 23 13.6901 23 13.1776C23 12.6651 23.4 12.2551 23.9 12.2551ZM25.6 9.38511C26.1 9.38511 26.4 9.79511 26.4 10.3076C26.4 10.8201 26.1 11.2301 25.6 11.2301C25.1 11.2301 24.7 10.8201 24.7 10.3076C24.7 9.79511 25.1 9.38511 25.6 9.38511ZM25.7 7.43761C24.5 7.43761 21.8 10.0001 21.8 12.6651C21.8 17.5851 25.1 15.6376 25.7 15.6376C26.3 15.6376 29.6 17.6876 29.6 12.6651C29.6 10.0001 26.9 7.43761 25.7 7.43761ZM30.4 15.8426C29.6 17.3801 28 17.8926 25.7 17.1751C22.6 18.0976 21 16.8676 20.5 14.3051L8.4 19.3276H33.2L30.4 15.8426ZM6.4 27.0151H33.5V24.8626H6.4V27.0151ZM33.5 28.3476H6.4V31.6276H33.5V28.3476ZM33.5 20.6601H6.4V23.4276H33.5V20.6601Z" fill="#383838"/>
</svg>
