<svg width="40" height="40" viewBox="0 0 40 40" fill="none" xmlns="http://www.w3.org/2000/svg">
<path fill-rule="evenodd" clip-rule="evenodd" d="M32.7249 17.4662L33.8586 14.7334C33.9221 14.5802 33.9221 14.4078 33.8586 14.2546C33.7952 14.1014 33.6734 13.9796 33.5202 13.9161L30.7938 12.7888V9.83136C30.7938 9.48621 30.5139 9.20636 30.1688 9.20636H27.2116L26.0837 6.47992C26.0205 6.32672 25.8987 6.20496 25.7455 6.14148C25.592 6.078 25.4196 6.078 25.2667 6.14148L22.5342 7.27551L20.4419 5.18323C20.1978 4.93909 19.8022 4.93909 19.5581 5.18323L17.4716 7.26941L14.7388 6.14117C14.4193 6.00903 14.0543 6.16132 13.9227 6.47992L12.7948 9.20636H9.83765C9.49249 9.20636 9.21265 9.48621 9.21265 9.83136V12.7827L6.47919 13.9164C6.32629 13.9799 6.20453 14.1017 6.14105 14.2549C6.07788 14.4081 6.07788 14.5802 6.14136 14.7334L7.27539 17.4662L5.18311 19.5582C5.06592 19.6754 5 19.8344 5 20.0001C5 20.1658 5.06592 20.3248 5.18311 20.442L7.27509 22.534L6.14166 25.2604C6.07788 25.4136 6.07788 25.5858 6.14105 25.739C6.20453 25.8922 6.32599 26.0142 6.47919 26.0777L9.21265 27.2114V30.1628C9.21265 30.5079 9.49249 30.7878 9.83765 30.7878H12.789L13.9227 33.5209C13.9865 33.6741 14.1083 33.7956 14.2615 33.8591C14.4144 33.9219 14.5865 33.9225 14.74 33.8585L17.4664 32.7253L19.5581 34.817C19.6802 34.9391 19.8401 35.0001 20 35.0001C20.1599 35.0001 20.3198 34.9391 20.4419 34.817L22.5342 32.725L25.2667 33.8588C25.5862 33.9912 25.9515 33.8395 26.0837 33.5209L27.2177 30.7878H30.1688C30.5139 30.7878 30.7938 30.5079 30.7938 30.1628V27.2053L33.5202 26.078C33.8388 25.9459 33.9905 25.5809 33.8589 25.262L32.7307 22.5285L34.8169 20.442C35.061 20.1979 35.061 19.8024 34.8169 19.5582L32.7249 17.4662ZM31.5518 21.9395C31.3733 22.118 31.3196 22.3866 31.416 22.6198L32.4652 25.1616L29.9298 26.2098C29.696 26.3066 29.5438 26.5345 29.5438 26.7875V29.5378H26.8002C26.5475 29.5378 26.3199 29.6898 26.2228 29.9232L25.1685 32.4647L22.6273 31.4103C22.3938 31.3139 22.1249 31.367 21.9458 31.5458L20 33.4913L18.0545 31.5458C17.9349 31.4262 17.775 31.3627 17.6126 31.3627C17.5317 31.3627 17.4503 31.3783 17.3727 31.4106L14.8376 32.4641L13.7839 29.9232C13.6868 29.6901 13.4592 29.5378 13.2065 29.5378H10.4626V26.7939C10.4626 26.5413 10.3104 26.3133 10.0772 26.2166L7.53601 25.1628L8.58978 22.6277C8.68683 22.3939 8.63373 22.1248 8.45459 21.9459L6.50879 20.0001L8.45459 18.0546C8.63342 17.8758 8.68683 17.6069 8.59009 17.3732L7.53571 14.8317L10.0772 13.7776C10.3104 13.6808 10.4626 13.4529 10.4626 13.2002V10.4564H13.2126C13.4656 10.4564 13.6935 10.3041 13.79 10.0703L14.8389 7.53491L17.3801 8.58411C17.6123 8.67902 17.8812 8.62714 18.0606 8.4483L20 6.50891L21.9458 8.45471C22.1249 8.63385 22.3941 8.68726 22.6273 8.59021L25.1678 7.53583L26.2164 10.0703C26.3129 10.3041 26.5408 10.4564 26.7938 10.4564H29.5438V13.2066C29.5438 13.4596 29.696 13.6876 29.9298 13.7843L32.4643 14.8323L31.4102 17.3732C31.3135 17.6069 31.3669 17.8758 31.5457 18.0546L33.4912 20.0001L31.5518 21.9395ZM20.0003 11.0045C15.04 11.0045 11.0046 15.0398 11.0046 20.0001C11.0046 24.9604 15.04 28.9961 20.0003 28.9961C24.9606 28.9961 28.9963 24.9604 28.9963 20.0001C28.9963 15.0398 24.9606 11.0045 20.0003 11.0045ZM20.0003 27.7461C15.7294 27.7461 12.2546 24.2714 12.2546 20.0001C12.2546 15.7292 15.7294 12.2545 20.0003 12.2545C24.2715 12.2545 27.7463 15.7292 27.7463 20.0001C27.7463 24.2714 24.2715 27.7461 20.0003 27.7461ZM19.1189 19.1188V19.1191C18.6947 19.5433 18.1308 19.7767 17.5308 19.7767C16.9308 19.7767 16.3665 19.5433 15.9423 19.1188C15.0668 18.2432 15.0668 16.8184 15.942 15.9422C16.8185 15.0663 18.2437 15.0663 19.1189 15.9422C19.5434 16.3664 19.7769 16.9307 19.7769 17.5306C19.7769 18.1306 19.5434 18.6946 19.1192 19.1188H19.1189ZM16.8261 16.826C16.438 17.2145 16.438 17.8465 16.8261 18.235C17.2027 18.6116 17.8585 18.6116 18.2351 18.235C18.4234 18.0467 18.5269 17.7968 18.5269 17.5306C18.5269 17.2645 18.4234 17.0143 18.2351 16.826C18.041 16.6319 17.7859 16.5349 17.5308 16.5349C17.2757 16.5349 17.0205 16.6319 16.8261 16.826ZM20.8815 20.8815C20.0056 21.7573 20.0056 23.1822 20.8815 24.058C21.3194 24.496 21.8947 24.7151 22.4699 24.7151C23.0449 24.7151 23.6201 24.496 24.0581 24.058C24.9339 23.1822 24.9339 21.7573 24.0581 20.8812C23.1816 20.0053 21.7567 20.0062 20.8815 20.8815ZM23.1743 23.1743C22.7852 23.5627 22.1538 23.5621 21.7653 23.1743C21.3768 22.7858 21.3768 22.1537 21.7653 21.7653C21.9594 21.5712 22.2145 21.4741 22.4699 21.4741C22.7251 21.4741 22.9802 21.5712 23.1743 21.7653C23.5628 22.1537 23.5628 22.7858 23.1743 23.1743ZM22.2003 16.9157C22.4445 16.6716 22.84 16.6716 23.0841 16.9157C23.3282 17.1599 23.3282 17.5554 23.0841 17.7995L17.7991 23.0845C17.677 23.2066 17.5171 23.2676 17.3572 23.2676C17.1973 23.2676 17.0374 23.2066 16.9153 23.0845C16.6711 22.8404 16.6711 22.4449 16.9153 22.2007L22.2003 16.9157Z" fill="black"/>
</svg>
