<svg width="40" height="40" viewBox="0 0 40 40" fill="none" xmlns="http://www.w3.org/2000/svg">
<path d="M30.1364 9.09103H28.5825L27.3743 5.46649C27.3291 5.33066 27.2422 5.21253 27.1261 5.12882C27.01 5.04511 26.8704 5.00009 26.7273 5.00012H13.0909C12.9478 5.00009 12.8082 5.04511 12.6921 5.12882C12.5759 5.21253 12.4891 5.33066 12.4439 5.46649L11.2357 9.09103H9.68182C9.50099 9.09103 9.32757 9.16287 9.1997 9.29073C9.07183 9.4186 9 9.59202 9 9.77285V13.8638C9 14.0446 9.07183 14.218 9.1997 14.3459C9.32757 14.4737 9.50099 14.5456 9.68182 14.5456H11.0898L12.3682 33.7265C12.3911 34.0723 12.5448 34.3965 12.7981 34.633C13.0514 34.8696 13.3852 35.0009 13.7318 35.0001H26.0891C26.4356 35.0009 26.7694 34.8697 27.0226 34.6333C27.2759 34.3969 27.4297 34.0729 27.4527 33.7272L28.7284 14.5456H30.1364C30.3172 14.5456 30.4906 14.4737 30.6185 14.3459C30.7463 14.218 30.8182 14.0446 30.8182 13.8638V9.77285C30.8182 9.59202 30.7463 9.4186 30.6185 9.29073C30.4906 9.16287 30.3172 9.09103 30.1364 9.09103ZM13.5825 6.36376H26.2357L27.1452 9.09103H12.673L13.5825 6.36376ZM12.8652 20.6819H26.953L26.4075 28.8583H13.41L12.8652 20.6819ZM26.0925 33.6365H13.7291L13.5 30.2219H26.3182L26.0925 33.6365ZM27.047 19.3183H12.7745L12.4561 14.5456H27.362L27.047 19.3183ZM29.4545 13.1819H10.3636V10.4547H29.4545V13.1819Z" fill="#383838"/>
</svg>
