<svg width="40" height="40" viewBox="0 0 40 40" fill="none" xmlns="http://www.w3.org/2000/svg">
<path fill-rule="evenodd" clip-rule="evenodd" d="M34.0323 5.48399H31.129V9.35496H30.1613V8.38722H28.2258V7.41948H25.3226V9.83883H24.3548V8.87109H22.4194V5.00012H19.5161V8.38722H17.5806V15.1614H16.6129V16.6217L16.4835 16.6187L16.4834 16.6187C16.3668 16.6159 16.2506 16.613 16.129 16.613H15.1613C5.11565 16.613 5 22.1824 5 22.4195C5 23.2633 5.54581 23.9746 6.30016 24.2393C6.09065 24.5485 5.96774 24.9216 5.96774 25.3227C5.96774 25.779 6.13323 26.1932 6.3979 26.5246C5.57484 26.9113 5 27.7421 5 28.7098C5 29.3253 5.23806 29.8817 5.6179 30.309C5.22161 30.8132 5 31.4345 5 32.0969C5 33.698 6.3021 35.0001 7.90323 35.0001H22.4194H23.3871H33.0079L34.9961 19.0924L35 15.1614H34.0323V5.48399ZM31.129 11.2904H32.0968V6.45173H33.0645V15.1614H32.0968V12.2582H31.129V15.1614H30.1613V10.3227H31.129V11.2904ZM29.1935 9.35496V15.1614V15.6453C29.1935 16.5022 28.8181 17.2711 28.2258 17.8033V9.35496H29.1935ZM26.2903 8.38722H27.2581V18.3792C26.9547 18.4866 26.63 18.5485 26.2903 18.5485V8.38722ZM23.3871 9.83883V16.1292H24.3548V10.8066H25.3226V18.5485C24.9829 18.5485 24.6582 18.4866 24.3548 18.3792V17.0969H23.3871V17.8033C22.7948 17.2716 22.4194 16.5027 22.4194 15.6453V15.1614V9.83883H23.3871ZM21.4516 5.96786V15.1614H20.4839V5.96786H21.4516ZM18.5484 9.35496H19.5161V15.1614H18.5484V9.35496ZM17.5806 16.1292H21.4816C21.5421 16.6096 21.6906 17.0625 21.9113 17.4719C20.7844 17.0611 19.3627 16.764 17.5806 16.658V16.1292ZM5.96774 22.4195C5.96774 22.3711 6.07274 17.5808 15.1613 17.5808H16.129C25.1547 17.5808 25.3202 22.225 25.3226 22.4195C25.3226 22.9532 24.8885 23.3872 24.3548 23.3872H23.3871H7.90323H6.93548C6.40177 23.3872 5.96774 22.9532 5.96774 22.4195ZM26.2903 22.4195H30.6452V27.2582H25.7939C25.5573 26.9456 25.25 26.6925 24.8919 26.5246C24.9515 26.4506 25.0052 26.3732 25.0531 26.2904H27.7419V25.3227H25.3226C25.3226 24.9685 25.22 24.6409 25.0535 24.355H29.6774V23.3872H26.0213C26.1877 23.1012 26.2903 22.7737 26.2903 22.4195ZM7.90323 24.355H23.3871C23.9208 24.355 24.3548 24.789 24.3548 25.3227C24.3548 25.8564 23.9208 26.2904 23.3871 26.2904H20.9677H8.87097H7.90323C7.36952 26.2904 6.93548 25.8564 6.93548 25.3227C6.93548 24.789 7.36952 24.355 7.90323 24.355ZM7.41935 27.2582H7.90323H8.87097H20.9677H23.3871H23.871C24.6713 27.2582 25.3226 27.9095 25.3226 28.7098C25.3226 29.5101 24.6713 30.1614 23.871 30.1614C23.6213 30.1614 23.3774 30.0932 23.1466 29.9587L22.9032 29.8169L22.6598 29.9587C22.1266 30.2698 21.499 30.2122 21.0302 29.8329L20.7258 29.5875L20.4219 29.8329C19.8902 30.263 19.1421 30.263 18.6108 29.8329L18.3065 29.5875L18.0026 29.8329C17.4708 30.263 16.7227 30.263 16.1915 29.8329L15.8871 29.5875L15.5832 29.8329C15.0515 30.263 14.3034 30.263 13.7721 29.8329L13.4677 29.5875L13.1639 29.8329C12.6321 30.263 11.884 30.263 11.3527 29.8329L11.0484 29.5875L10.7445 29.8329C10.2127 30.263 9.46468 30.263 8.93339 29.8329L8.62903 29.5875L8.32516 29.8329C8.05903 30.0482 7.74597 30.1614 7.41935 30.1614C6.61903 30.1614 5.96774 29.5101 5.96774 28.7098C5.96774 27.9095 6.61903 27.2582 7.41935 27.2582ZM7.90323 34.0324C6.83581 34.0324 5.96774 33.1643 5.96774 32.0969C5.96774 31.6493 6.12065 31.2303 6.39258 30.8921C6.70516 31.0396 7.05113 31.1292 7.41935 31.1292C7.84806 31.1292 8.25984 31.0154 8.62903 30.7972C9.36694 31.2327 10.3105 31.2327 11.0484 30.7972C11.7863 31.2327 12.7298 31.2327 13.4677 30.7972C14.2056 31.2327 15.1492 31.2327 15.8871 30.7972C16.625 31.2327 17.5685 31.2327 18.3065 30.7972C19.0444 31.2327 19.9879 31.2327 20.7258 30.7972C21.3824 31.1848 22.1977 31.2375 22.9032 30.9201C23.2124 31.059 23.5371 31.1292 23.871 31.1292C24.2392 31.1292 24.5852 31.0396 24.8977 30.8921C25.1697 31.2303 25.3226 31.6493 25.3226 32.0969C25.3226 33.1643 24.4545 34.0324 23.3871 34.0324H22.4194H7.90323ZM34.0323 19.0024L32.1534 34.0324H25.5452C26.0068 33.518 26.2903 32.8411 26.2903 32.0969C26.2903 31.4345 26.0687 30.8132 25.6724 30.309C26.0523 29.8817 26.2903 29.3253 26.2903 28.7098C26.2903 28.5443 26.2734 28.3822 26.2414 28.2259H31.6129V21.4517H26.1263C25.9681 20.9103 25.6545 20.2067 25.041 19.5032C25.1344 19.51 25.2277 19.5163 25.3226 19.5163H26.2903C28.2606 19.5163 29.8923 18.0356 30.1313 16.1292H34.0323V19.0024ZM13.2258 18.5485H12.258V19.5162H13.2258V18.5485ZM16.1289 18.5485H15.1611V19.5162H16.1289V18.5485ZM8.38704 20.0001H9.35479V20.9679H8.38704V20.0001ZM11.7742 21.4517H10.8065V22.4194H11.7742V21.4517ZM13.7099 21.4517H14.6776V22.4194H13.7099V21.4517ZM17.5807 21.4517H16.613V22.4194H17.5807V21.4517ZM19.5161 21.4517H20.4838V22.4194H19.5161V21.4517ZM22.9032 20.0001H21.9355V20.9679H22.9032V20.0001ZM18.0645 18.5485H19.0322V19.5162H18.0645V18.5485ZM28.7096 25.3228H29.6773V26.2905H28.7096V25.3228Z" fill="black"/>
</svg>
