<svg width="40" height="40" viewBox="0 0 40 40" fill="none" xmlns="http://www.w3.org/2000/svg">
<path d="M28.6581 33.1684C28.6977 33.3269 28.7373 33.4854 28.7373 33.6439V34.6742C28.7373 35.3874 28.1429 35.9818 27.4297 35.9818H12.5307C11.8175 35.9818 11.2627 35.3874 11.2627 34.6742V33.6439C11.2627 33.4854 11.2627 33.3269 11.342 33.1684C7.22098 30.7513 4.92273 27.1058 5.00198 22.2716C5.59636 21.5583 7.45873 20.5677 8.40973 20.2903C8.13235 18.1506 9.40035 16.4071 11.1438 15.6938L8.92485 5.90647C8.88523 5.6291 9.04373 5.39135 9.28148 5.35172C9.55885 5.27247 9.7966 5.43097 9.87585 5.70835L12.0552 15.4561C12.6892 15.3372 13.4421 15.4165 14.0761 15.6146L13.5213 4.47997C13.5213 4.24222 13.7195 4.00447 13.9968 4.00447C14.2346 3.96485 14.4723 4.2026 14.4723 4.44035L15.0271 16.0108C19.267 10.0275 28.2618 12.3257 29.6091 19.4978C32.4621 18.9431 34.1263 20.5677 34.998 22.2716C35.0773 27.1058 32.7394 30.7513 28.6581 33.1684ZM12.293 16.6448L13.561 22.2716H14.3931L14.1157 17.0411C13.561 16.7637 12.9666 16.6052 12.293 16.6448ZM15.3045 17.8732C15.2252 17.7939 15.1856 17.7543 15.1063 17.7147L15.3441 22.2716H33.6112C32.3432 20.1714 29.8468 20.3696 28.5392 21.1224C28.1033 13.2371 19.267 11.0577 15.3045 17.8732ZM12.61 22.2716L11.3816 16.8429C10.0343 17.3977 9.24185 19.0619 9.7966 21.1224C8.76635 21.3998 7.77573 21.6772 6.86436 22.2716H12.61ZM33.8093 23.4603H6.19073C6.42848 27.4624 9.12298 30.672 12.5307 32.4552L13.6402 33.0495L12.4911 33.525C12.4515 33.5647 12.4515 33.6043 12.4515 33.6439V34.6742C12.4515 34.7138 12.4911 34.793 12.5307 34.793H27.4297C27.5089 34.793 27.5486 34.7138 27.5486 34.6742V33.6439C27.5486 33.6043 27.5089 33.5647 27.4693 33.525L26.3598 33.0495L27.4297 32.4552C30.8771 30.672 33.5716 27.4624 33.8093 23.4603Z" fill="#383838"/>
</svg>
