<svg width="40" height="40" viewBox="0 0 40 40" fill="none" xmlns="http://www.w3.org/2000/svg">
<path fill-rule="evenodd" clip-rule="evenodd" d="M15.5 10.0001C15.5085 10.5719 15.7213 11.1217 16.1 11.5501C16.3467 11.8061 16.4893 12.1448 16.5 12.5001H17.5C17.4915 11.9284 17.2787 11.3786 16.9 10.9501C16.6533 10.6941 16.5107 10.3555 16.5 10.0001C16.5107 9.64477 16.6533 9.30613 16.9 9.05012C17.2787 8.62169 17.4915 8.07186 17.5 7.50012C17.4913 6.92842 17.2785 6.37867 16.9 5.95012C16.6535 5.694 16.5109 5.35543 16.5 5.00012H15.5C15.5087 5.57182 15.7215 6.12157 16.1 6.55012C16.3465 6.80624 16.4891 7.14481 16.5 7.50012C16.4893 7.85547 16.3467 8.19411 16.1 8.45012C15.7213 8.87855 15.5085 9.42838 15.5 10.0001ZM19 14.5001H20C20.0019 14.0539 20.1503 13.6207 20.4225 13.2671C20.7983 12.7547 21.0007 12.1356 21 11.5001C21.0145 11.2053 20.9656 10.9109 20.8565 10.6367C20.7473 10.3624 20.5806 10.1148 20.3675 9.91062C20.2391 9.79841 20.1388 9.65749 20.075 9.4993C20.0111 9.3411 19.9854 9.17009 20 9.00012C20.0019 8.55383 20.1505 8.12055 20.423 7.76712C20.7983 7.25442 21.0004 6.63548 21 6.00012H20C19.9982 6.44641 19.8496 6.87969 19.577 7.23312C19.2018 7.74583 18.9997 8.36477 19 9.00012C18.9855 9.2949 19.0345 9.58936 19.1436 9.86358C19.2528 10.1378 19.4195 10.3854 19.6325 10.5896C19.761 10.7018 19.8613 10.8428 19.9251 11.0009C19.989 11.1591 20.0146 11.3302 20 11.5001C19.9982 11.9463 19.8498 12.3796 19.5775 12.7331C19.2017 13.2456 18.9994 13.8646 19 14.5001ZM23.1 11.5501C22.7213 11.1217 22.5085 10.5719 22.5 10.0001C22.5085 9.42838 22.7213 8.87855 23.1 8.45012C23.3467 8.19411 23.4893 7.85547 23.5 7.50012C23.4891 7.14481 23.3465 6.80624 23.1 6.55012C22.7215 6.12157 22.5087 5.57182 22.5 5.00012H23.5C23.5109 5.35543 23.6535 5.694 23.9 5.95012C24.2785 6.37867 24.4913 6.92842 24.5 7.50012C24.4915 8.07186 24.2787 8.62169 23.9 9.05012C23.6533 9.30613 23.5107 9.64477 23.5 10.0001C23.5107 10.3555 23.6533 10.6941 23.9 10.9501C24.2787 11.3786 24.4915 11.9284 24.5 12.5001H23.5C23.4893 12.1448 23.3467 11.8061 23.1 11.5501ZM34.5 15.5001H5.5C5.36739 15.5001 5.24021 15.5528 5.14645 15.6466C5.05268 15.7403 5 15.8675 5 16.0001V19.0001C5 19.1327 5.05268 19.2599 5.14645 19.3537C5.24021 19.4474 5.36739 19.5001 5.5 19.5001H6.7425L11.0285 25.5001H7C6.86739 25.5001 6.74021 25.5528 6.64645 25.6466C6.55268 25.7403 6.5 25.8675 6.5 26.0001V28.0001C6.5 28.1327 6.55268 28.2599 6.64645 28.3537C6.74021 28.4474 6.86739 28.5001 7 28.5001H33C33.1326 28.5001 33.2598 28.4474 33.3536 28.3537C33.4473 28.2599 33.5 28.1327 33.5 28.0001V26.0001C33.5 25.8675 33.4473 25.7403 33.3536 25.6466C33.2598 25.5528 33.1326 25.5001 33 25.5001H28.9715L33.2575 19.5001H34.5C34.6326 19.5001 34.7598 19.4474 34.8536 19.3537C34.9473 19.2599 35 19.1327 35 19.0001V16.0001C35 15.8675 34.9473 15.7403 34.8536 15.6466C34.7598 15.5528 34.6326 15.5001 34.5 15.5001ZM32.5 27.5001H7.5V26.5001H32.5V27.5001ZM27.7425 25.5001H12.2575L7.9715 19.5001H32.0285L27.7425 25.5001ZM34 18.5001H6V16.5001H34V18.5001ZM11 20.5001H12V21.5001H11V20.5001ZM14 20.5001H13V21.5001H14V20.5001ZM15.5 31.0166L30.9835 30.5001C31.2425 30.4906 31.5006 30.5348 31.7416 30.6302C31.9826 30.7256 32.2012 30.8699 32.3835 31.0541C32.5785 31.2415 32.7336 31.4664 32.8395 31.7152C32.9455 31.964 33.0001 32.2317 33.0001 32.5021C33.0001 32.7726 32.9455 33.0402 32.8395 33.289C32.7336 33.5378 32.5785 33.7627 32.3835 33.9501C32.0259 34.3019 31.5446 34.4994 31.043 34.5001H30.985L15.5 33.9836V33.0001H14.4065C13.9585 34.2151 11.9205 35.0001 10 35.0001C7.5825 35.0001 6.5 33.7446 6.5 32.5001C6.5 31.2556 7.5825 30.0001 10 30.0001C11.9205 30.0001 13.9565 30.7851 14.4065 32.0001H15.5V31.0166ZM7.5 32.5001C7.5 33.3971 8.5045 34.0001 10 34.0001C11.85 34.0001 13.5 33.1611 13.5 32.5001C13.5 31.8391 11.85 31.0001 10 31.0001C8.5045 31.0001 7.5 31.6031 7.5 32.5001ZM31.9172 32.8966C31.9709 32.7712 31.999 32.6365 32 32.5001C31.9991 32.3636 31.971 32.2287 31.9172 32.1033C31.8635 31.9778 31.7852 31.8644 31.687 31.7696C31.6001 31.6801 31.4954 31.6099 31.3796 31.5635C31.2639 31.5171 31.1396 31.4955 31.015 31.5001L16.5 31.9836V33.0166L31.0165 33.5001C31.2664 33.4991 31.5065 33.4025 31.6875 33.2301C31.7855 33.1353 31.8636 33.0219 31.9172 32.8966Z" fill="black"/>
</svg>
