<svg width="40" height="40" viewBox="0 0 40 40" fill="none" xmlns="http://www.w3.org/2000/svg">
<path fill-rule="evenodd" clip-rule="evenodd" d="M20.0003 17.8616C20.2321 17.8616 20.4577 17.7864 20.6432 17.6473C20.7565 17.5636 20.8523 17.4585 20.925 17.3378C20.9977 17.2171 21.0459 17.0833 21.0668 16.9439C21.0877 16.8046 21.0809 16.6625 21.0468 16.5258C21.0127 16.3891 20.952 16.2605 20.8682 16.1473C20.2683 15.4792 19.9564 14.6012 20.0003 13.7044C20.1221 13.0985 20.4159 12.5405 20.8467 12.0973C21.5203 11.3428 21.9693 10.415 22.1432 9.4187C22.2628 7.9773 21.8127 6.54644 20.8896 5.43299C20.7191 5.20424 20.4647 5.05259 20.1824 5.0114C19.9001 4.97021 19.613 5.04285 19.3842 5.21335C19.1555 5.38384 19.0038 5.63823 18.9626 5.92053C18.9215 6.20284 18.9941 6.48995 19.1646 6.7187C19.743 7.39746 20.0418 8.27073 20.0003 9.16156C19.8775 9.77254 19.5797 10.3346 19.1432 10.7794C18.4669 11.5266 18.0205 12.4528 17.8575 13.4473C17.7438 14.8916 18.2016 16.3228 19.1325 17.433C19.2333 17.5675 19.3645 17.6764 19.5152 17.7509C19.666 17.8253 19.8322 17.8632 20.0003 17.8616ZM15.2862 17.6473C15.1007 17.7864 14.8751 17.8616 14.6433 17.8616C14.477 17.8616 14.3129 17.8228 14.1641 17.7485C14.0154 17.6741 13.886 17.5661 13.7862 17.433C12.8515 16.3244 12.3898 14.893 12.5004 13.4473C12.6635 12.4529 13.1099 11.5266 13.7862 10.7794C14.2227 10.3346 14.5205 9.77254 14.6433 9.16157C14.6789 8.26787 14.3723 7.39425 13.7862 6.71871C13.7017 6.60615 13.6403 6.47806 13.6054 6.34176C13.5705 6.20546 13.5627 6.06362 13.5826 5.92433C13.6025 5.78504 13.6497 5.65103 13.7214 5.52996C13.7931 5.40889 13.8879 5.30313 14.0004 5.21871C14.113 5.13429 14.2411 5.07286 14.3774 5.03794C14.5137 5.00302 14.6555 4.99529 14.7948 5.01519C14.9341 5.03509 15.0681 5.08223 15.1892 5.15391C15.3103 5.2256 15.416 5.32043 15.5004 5.43299C16.4351 6.54155 16.8968 7.97294 16.7862 9.41871C16.6187 10.4149 16.173 11.3435 15.5004 12.0973C15.0657 12.5391 14.7681 13.0973 14.6433 13.7044C14.6078 14.5981 14.9143 15.4717 15.5004 16.1473C15.5849 16.2598 15.6463 16.3879 15.6812 16.5242C15.7161 16.6605 15.7239 16.8024 15.704 16.9417C15.6841 17.0809 15.6369 17.215 15.5652 17.336C15.4936 17.4571 15.3987 17.5629 15.2862 17.6473ZM27.6821 32.8616H29.6429C29.927 32.8616 30.1995 32.9744 30.4005 33.1754C30.6014 33.3763 30.7143 33.6488 30.7143 33.933C30.7143 34.2172 30.6014 34.4897 30.4005 34.6906C30.1995 34.8915 29.927 35.0044 29.6429 35.0044H10.3571C10.073 35.0044 9.80046 34.8915 9.59953 34.6906C9.3986 34.4897 9.28571 34.2172 9.28571 33.933C9.28571 33.6488 9.3986 33.3763 9.59953 33.1754C9.80046 32.9744 10.073 32.8616 10.3571 32.8616H12.3179C10.0909 31.5337 8.24618 29.6513 6.96365 27.3979C5.68111 25.1445 5.00456 22.5972 5 20.0044C5 19.7203 5.11288 19.4477 5.31381 19.2468C5.51475 19.0459 5.78727 18.933 6.07143 18.933H33.9286C34.2127 18.933 34.4853 19.0459 34.6862 19.2468C34.8871 19.4477 35 19.7203 35 20.0044C34.9954 22.5972 34.3189 25.1445 33.0364 27.3979C31.7538 29.6513 29.9091 31.5337 27.6821 32.8616ZM32.8571 21.0759H7.14286C7.14286 24.4858 8.49744 27.756 10.9086 30.1672C13.3198 32.5784 16.5901 33.933 20 33.933C23.4099 33.933 26.6802 32.5784 29.0914 30.1672C31.5026 27.756 32.8571 24.4858 32.8571 21.0759ZM26.0005 17.6473C25.815 17.7864 25.5894 17.8616 25.3576 17.8616C25.1913 17.8616 25.0272 17.8228 24.8784 17.7484C24.7297 17.6741 24.6003 17.566 24.5005 17.433C23.5658 16.3244 23.104 14.893 23.2147 13.4473C23.3778 12.4528 23.8242 11.5265 24.5005 10.7794C24.937 10.3346 25.2348 9.77253 25.3576 9.16155C25.3931 8.26786 25.0866 7.39424 24.5005 6.7187C24.33 6.49137 24.2567 6.20562 24.2969 5.92432C24.3371 5.64301 24.4874 5.38919 24.7147 5.2187C24.9421 5.0482 25.2278 4.97499 25.5091 5.01518C25.7904 5.05536 26.0442 5.20565 26.2147 5.43298C27.1494 6.54154 27.6111 7.97293 27.5004 9.4187C27.333 10.4149 26.8873 11.3435 26.2147 12.0973C25.78 12.5391 25.4824 13.0973 25.3576 13.7044C25.322 14.5981 25.6286 15.4717 26.2147 16.1473C26.2992 16.2598 26.3606 16.3879 26.3955 16.5242C26.4304 16.6605 26.4382 16.8024 26.4183 16.9416C26.3984 17.0809 26.3512 17.2149 26.2795 17.336C26.2078 17.4571 26.113 17.5628 26.0005 17.6473Z" fill="#383838"/>
</svg>
