<svg width="40" height="40" viewBox="0 0 40 40" fill="none" xmlns="http://www.w3.org/2000/svg">
<path fill-rule="evenodd" clip-rule="evenodd" d="M34.1564 2.96903C34.2005 2.70479 34.3767 2.52862 34.6409 2.57266C34.8611 2.6167 35.0373 2.79287 34.9932 3.05712L33.0114 21.6426L34.9052 35.5597C34.9052 35.7799 34.729 36.0001 34.5088 36.0442H34.4647C34.2445 36.0442 34.0684 35.868 34.0243 35.6478L32.615 25.254L31.3818 36.8809C31.3378 37.1012 31.1616 37.2773 30.9414 37.2773H30.8974C30.6331 37.2333 30.457 37.0131 30.501 36.7929L32.1305 21.5986L29.4881 2.48458C29.4881 2.26437 29.6642 2.04416 29.8844 2.00012C30.1046 2.00012 30.3248 2.17629 30.3689 2.39649L32.5269 18.0312L34.1564 2.96903ZM24.5554 25.9586H19.931C18.3455 25.9586 17.0243 27.2799 17.0243 28.8654V33.4897C17.0243 35.0752 18.3455 36.3964 19.931 36.3964H24.5554C26.1409 36.3964 27.4621 35.0752 27.4621 33.4897V28.8654C27.4621 27.2799 26.1409 25.9586 24.5554 25.9586ZM26.5813 33.4897C26.5813 34.5907 25.6564 35.5156 24.5554 35.5156H19.931C18.83 35.5156 17.9051 34.5907 17.9051 33.4897V28.8654C17.9051 27.7643 18.83 26.8395 19.931 26.8395H24.5554C25.6564 26.8395 26.5813 27.7643 26.5813 28.8654V33.4897ZM22.2212 27.8084C20.3715 27.8084 18.83 29.3498 18.83 31.1996C18.83 33.0493 20.3715 34.5908 22.2212 34.5908C24.071 34.5908 25.6124 33.0493 25.6124 31.1996C25.6124 29.3058 24.115 27.8084 22.2212 27.8084ZM20.9881 31.64C20.856 31.8162 20.6798 32.1245 20.6798 32.6089C20.6798 32.8732 20.7238 33.0934 20.8119 33.2255C20.1513 32.7851 19.7549 32.0364 19.7549 31.1555C19.7549 30.3188 20.1953 29.5701 20.8119 29.0856C20.7238 29.2618 20.6798 29.4379 20.6798 29.7022C20.6798 30.1608 20.8377 30.4221 20.9666 30.6354L20.9881 30.6711C21.0087 30.7123 21.0293 30.7486 21.0487 30.783L21.0488 30.7831L21.0489 30.7833L21.0489 30.7833L21.0489 30.7833C21.1126 30.8958 21.1642 30.987 21.1642 31.1555C21.1202 31.4198 21.0762 31.5079 20.9881 31.64ZM22.7664 32.2364L22.7664 32.2366L22.7665 32.2367C22.8302 32.3492 22.8819 32.4403 22.8819 32.6089C22.8819 32.8291 22.8378 32.9172 22.7057 33.0934L22.6853 33.1238C22.5983 33.2526 22.4822 33.4247 22.4414 33.71H22.2653H22.001C21.9609 33.469 21.8475 33.3013 21.761 33.1734L21.7368 33.1374C21.7161 33.0961 21.6955 33.0597 21.676 33.0252L21.676 33.0252C21.6122 32.9127 21.5606 32.8215 21.5606 32.653C21.5606 32.4327 21.6047 32.3447 21.7368 32.1685C21.8689 31.9923 22.0451 31.684 22.0451 31.1996C22.0451 30.741 21.8872 30.4797 21.7583 30.2663L21.7368 30.2307C21.7161 30.1894 21.6955 30.153 21.676 30.1185L21.676 30.1185C21.6122 30.0059 21.5606 29.9148 21.5606 29.7462C21.5606 29.526 21.6047 29.4379 21.7368 29.2618L21.761 29.2258C21.8475 29.0979 21.9609 28.9302 22.001 28.6892H22.2653H22.4414C22.4748 28.8894 22.5587 29.039 22.6357 29.1763C22.6604 29.2203 22.6843 29.2631 22.7057 29.3058C22.7263 29.347 22.7469 29.3834 22.7663 29.4177L22.7664 29.4178L22.7665 29.418L22.7665 29.418L22.7665 29.418C22.8302 29.5305 22.8819 29.6217 22.8819 29.7903C22.8819 30.0105 22.8378 30.0986 22.7057 30.2747C22.5736 30.4509 22.3974 30.7592 22.3974 31.2436C22.3974 31.684 22.5736 31.9483 22.7057 32.1245C22.7263 32.1657 22.7469 32.202 22.7664 32.2364ZM23.5865 33.3136C23.6746 33.1374 23.7186 32.9172 23.7186 32.6089C23.7186 32.1503 23.5608 31.889 23.4318 31.6756L23.4104 31.64C23.3897 31.5987 23.3691 31.5622 23.3495 31.5278C23.2858 31.4153 23.2342 31.3241 23.2342 31.1555C23.2342 30.9353 23.2782 30.8473 23.4104 30.6711C23.5425 30.4949 23.7186 30.1866 23.7186 29.7022C23.7186 29.4606 23.6646 29.2731 23.62 29.1185L23.6199 29.1185C23.6076 29.0758 23.596 29.0356 23.5865 28.9975C24.2912 29.4379 24.7756 30.2307 24.7756 31.1115C24.7316 32.0804 24.2912 32.8291 23.5865 33.3136ZM24.5995 2.92498H19.9311C18.3016 2.92498 16.9803 4.24623 16.9803 5.87576V10.5442C16.9803 12.1737 18.3016 13.4949 19.9311 13.4949H24.5995C26.229 13.4949 27.5503 12.1737 27.5503 10.5442V5.87576C27.5503 4.24623 26.229 2.92498 24.5995 2.92498ZM26.6694 10.5442C26.6694 11.6892 25.7446 12.6141 24.5995 12.6141H19.9311C18.786 12.6141 17.8612 11.6892 17.8612 10.5442V5.87576C17.8612 4.73068 18.786 3.80581 19.9311 3.80581H24.5995C25.7446 3.80581 26.6694 4.73068 26.6694 5.87576V10.5442ZM19.3145 8.20992C19.3145 6.58039 20.6358 5.25915 22.2653 5.25915C23.8949 5.25915 25.2161 6.58039 25.2161 8.20992C25.2161 9.83946 23.8949 11.1607 22.2653 11.1607C20.6358 11.1607 19.3145 9.83946 19.3145 8.20992ZM23.4104 6.49231C23.1021 6.2721 22.7057 6.13997 22.2653 6.13997C21.8249 6.13997 21.4285 6.2721 21.0762 6.49231H23.4104ZM21.1202 9.92754C21.4285 10.1477 21.8249 10.2799 22.2653 10.2799C22.7057 10.2799 23.1021 10.1477 23.4544 9.92754H21.1202ZM20.3715 9.04671H24.1591L24.2912 8.65034H20.2394L20.3715 9.04671ZM20.3715 7.37313L20.2394 7.76951H24.2912L24.1591 7.37313H20.3715ZM7.95181 13.539H12.7083C14.3378 13.539 15.6591 12.2177 15.6591 10.5882V5.83173C15.6591 4.20219 14.3378 2.88095 12.7083 2.88095H7.95181C6.32228 2.88095 5.00104 4.20219 5.00104 5.83173V10.5882C4.957 12.2177 6.32228 13.539 7.95181 13.539ZM5.83782 5.83173C5.83782 5.39131 5.96995 4.9509 6.2342 4.64261L6.63057 5.03898C6.71865 5.12706 6.85078 5.17111 6.93886 5.17111C7.02694 5.17111 7.15907 5.12706 7.24715 5.03898C7.42332 4.86282 7.42332 4.59857 7.24715 4.4224L6.89482 4.07007C7.20311 3.8939 7.55544 3.76178 7.95181 3.76178H10.286V4.11411C10.286 4.37836 10.4622 4.55453 10.7264 4.55453C10.9907 4.55453 11.1668 4.37836 11.1668 4.11411V3.76178H12.7083C13.8534 3.76178 14.7782 4.68665 14.7782 5.83173V7.06489H14.1176C13.859 7.06489 13.6848 7.23359 13.6774 7.48845C13.551 6.84556 13.2427 6.23394 12.7524 5.74363C11.8275 4.81876 10.4622 4.51047 9.31714 4.90685L8.78864 4.37835C8.61247 4.20218 8.34822 4.20218 8.17206 4.37835C7.99589 4.55451 7.99589 4.81876 8.17206 4.99493L8.48035 5.30322C8.44041 5.33317 8.39821 5.36313 8.35528 5.39359L8.35523 5.39363L8.35522 5.39364C8.20882 5.49754 8.05401 5.60742 7.95185 5.74363C7.29123 6.40426 6.9389 7.24104 6.9389 8.16591C6.89486 8.254 6.89486 8.254 6.89486 8.29804H6.54253C6.27828 8.29804 6.10211 8.4742 6.10211 8.73845C6.10211 9.0027 6.27828 9.17887 6.54253 9.17887H7.02698C7.20315 9.70736 7.4674 10.1918 7.90781 10.6322L7.90782 10.6322C8.03994 10.7644 8.17206 10.8965 8.30418 10.9846L7.86377 11.425C7.6876 11.6011 7.6876 11.8654 7.86377 12.0416C7.95185 12.1296 8.08398 12.1737 8.17206 12.1737C8.26014 12.1737 8.39227 12.1296 8.48035 12.0416L9.05289 11.469C9.07821 11.4437 9.08898 11.4329 9.09355 11.42C9.09693 11.4104 9.09693 11.3997 9.09693 11.3809C9.4933 11.5131 9.88968 11.6011 10.3301 11.6011C11.2109 11.6011 12.0917 11.2488 12.7524 10.5882C13.5319 9.80866 13.8515 8.72251 13.7112 7.69155C13.7745 7.84906 13.9219 7.94572 14.1176 7.94572H14.7782V10.5442C14.7782 11.6892 13.8534 12.6141 12.7083 12.6141V11.8654C12.7083 11.6012 12.5321 11.425 12.2679 11.425C12.0036 11.425 11.8275 11.6012 11.8275 11.8654V12.6141H7.95181C7.11503 12.6141 6.41036 12.1297 6.10207 11.469C6.19016 11.5571 6.27824 11.6012 6.41036 11.6012C6.54249 11.6012 6.63057 11.5571 6.71865 11.469L7.29119 10.8965C7.46736 10.7203 7.46736 10.4561 7.29119 10.2799C7.11503 10.1037 6.85078 10.1037 6.67461 10.2799L6.10207 10.8525C6.01399 10.9405 5.96995 11.0286 5.96995 11.1167C5.92591 10.9405 5.88187 10.7644 5.88187 10.5442V5.83173H5.83782ZM10.3301 5.65555C9.66947 5.65555 9.00885 5.9198 8.52439 6.40426C8.03993 6.88871 7.77569 7.50529 7.77569 8.20995C7.77569 8.91462 8.03993 9.5312 8.52439 10.0157C9.53734 11.0286 11.1228 11.0286 12.1358 10.0157C13.1487 9.0027 13.1487 7.41721 12.1358 6.40426C11.6513 5.9198 10.9907 5.65555 10.3301 5.65555ZM12.0036 4.86282H12.7964C13.0606 4.86282 13.2368 4.68665 13.2368 4.4224C13.2368 4.15815 13.0606 3.98199 12.7964 3.98199H12.0036C11.7394 3.98199 11.5632 4.15815 11.5632 4.4224C11.5632 4.68665 11.7394 4.86282 12.0036 4.86282ZM9.9337 11.6892H10.7264C10.9466 11.6892 11.1669 11.8654 11.1669 12.1297C11.1669 12.3939 10.9907 12.5701 10.7264 12.5701H9.9337C9.66945 12.5701 9.49328 12.3939 9.49328 12.1297C9.49328 11.8654 9.66945 11.6892 9.9337 11.6892ZM14.2498 10.1478C14.514 10.1478 14.6902 9.9716 14.6902 9.70735V8.91461C14.6902 8.65036 14.514 8.47419 14.2498 8.47419C13.9855 8.47419 13.8094 8.65036 13.8094 8.91461V9.70735C13.8094 9.92756 13.9855 10.1478 14.2498 10.1478ZM6.93883 6.7566C6.85075 6.7566 6.71863 6.71256 6.63054 6.62447L6.05801 6.05193C5.88184 5.87577 5.88184 5.61152 6.05801 5.43535C6.23417 5.25919 6.49842 5.25919 6.67459 5.43535L7.24712 6.00789C7.42329 6.18406 7.42329 6.44831 7.24712 6.62447C7.15904 6.71256 7.02692 6.7566 6.93883 6.7566ZM13.2368 5.78764L13.8093 6.36018C13.8974 6.44827 14.0295 6.49231 14.1176 6.49231C14.2057 6.49231 14.3378 6.44827 14.4259 6.36018C14.6021 6.18402 14.6021 5.91977 14.4259 5.7436L13.8534 5.17106C13.6772 4.9949 13.4129 4.9949 13.2368 5.17106C13.0606 5.30319 13.0606 5.61148 13.2368 5.78764ZM12.9725 10.5882C13.1487 10.412 13.4129 10.412 13.5891 10.5882L14.1616 11.1607C14.3378 11.3369 14.3378 11.6011 14.1616 11.7773C14.0735 11.8654 13.9414 11.9094 13.8533 11.9094C13.7652 11.9094 13.6331 11.8654 13.545 11.7773L12.9725 11.2048C12.7963 11.0286 12.7963 10.7643 12.9725 10.5882ZM24.5995 14.3317H19.887C18.2575 14.3317 16.9362 15.653 16.9362 17.2825V21.9949C16.9362 23.6245 18.2575 24.9457 19.887 24.9457H24.5995C26.229 24.9457 27.5502 23.6245 27.5502 21.9949V17.2825C27.5502 15.653 26.229 14.3317 24.5995 14.3317ZM26.6694 21.9509C26.6694 23.096 25.7445 24.0208 24.5995 24.0208H19.887C18.7419 24.0208 17.8171 23.096 17.8171 21.9509V17.2825C17.8171 16.1374 18.7419 15.2126 19.887 15.2126H24.5995C25.7445 15.2126 26.6694 16.1374 26.6694 17.2825V21.9509ZM19.2705 19.6167C19.2705 17.9871 20.5917 16.6659 22.2212 16.6659C23.8948 16.6659 25.172 17.9871 25.172 19.6167C25.172 21.2462 23.8508 22.5674 22.2212 22.5674C20.5917 22.5674 19.2705 21.2462 19.2705 19.6167ZM20.1513 19.6167C20.1513 20.5856 20.856 21.4224 21.7808 21.6426V17.5908C20.856 17.7669 20.1513 18.6478 20.1513 19.6167ZM22.6616 17.5467V21.6426C23.6306 21.4664 24.2912 20.5415 24.2912 19.5726C24.2912 18.6037 23.5865 17.7669 22.6616 17.5467ZM13.1487 14.5519C11.7394 14.5519 10.5943 15.697 10.5943 17.1063C10.5943 18.5157 11.7394 19.6607 13.1487 19.6607C14.558 19.6607 15.7031 18.5157 15.7031 17.1063C15.7031 15.697 14.514 14.5519 13.1487 14.5519ZM13.1487 18.7799C12.2239 18.7799 11.4751 18.0312 11.4751 17.1063C11.4751 16.1815 12.2239 15.4328 13.1487 15.4328C14.0736 15.4328 14.8223 16.1815 14.8223 17.1063C14.8223 18.0312 14.0295 18.7799 13.1487 18.7799ZM12.0036 17.1063C12.0036 16.4897 12.4881 15.9612 13.1487 15.9612C13.7653 15.9612 14.2938 16.4897 14.2938 17.1063C14.2938 17.7229 13.7653 18.2514 13.1487 18.2514C12.5321 18.2514 12.0036 17.7229 12.0036 17.1063ZM12.8845 17.1504C12.8845 17.2825 12.9725 17.4146 13.1487 17.4146C13.2808 17.4146 13.4129 17.2825 13.4129 17.1504C13.4129 17.0182 13.3249 16.8861 13.1487 16.8861C13.0166 16.8861 12.8845 17.0182 12.8845 17.1504ZM13.1487 20.1452C11.7394 20.1452 10.5943 21.2903 10.5943 22.6996C10.5943 24.1089 11.7394 25.254 13.1487 25.254C14.558 25.254 15.7031 24.1089 15.7031 22.6996C15.7031 21.2903 14.514 20.1452 13.1487 20.1452ZM13.1487 24.3291C12.2239 24.3291 11.4751 23.5804 11.4751 22.6555C11.4751 21.7307 12.2239 20.982 13.1487 20.982C14.0736 20.982 14.8223 21.7307 14.8223 22.6555C14.8223 23.5804 14.0295 24.3291 13.1487 24.3291ZM12.0036 22.6555C12.0036 22.0389 12.4881 21.5104 13.1487 21.5104C13.7653 21.5104 14.2938 22.0389 14.2938 22.6555C14.2938 23.2721 13.7653 23.8006 13.1487 23.8006C12.5321 23.8006 12.0036 23.2721 12.0036 22.6555ZM12.8845 22.6996C12.8845 22.8317 12.9725 22.9638 13.1487 22.9638C13.2808 22.9638 13.4129 22.8317 13.4129 22.6996C13.4129 22.5674 13.3249 22.4353 13.1487 22.4353C13.0166 22.4353 12.8845 22.5674 12.8845 22.6996ZM13.1487 25.7384C11.7394 25.7384 10.5943 26.8835 10.5943 28.2928C10.5943 29.7021 11.7394 30.8472 13.1487 30.8472C14.558 30.8472 15.7031 29.7021 15.7031 28.2928C15.7031 26.8835 14.514 25.7384 13.1487 25.7384ZM13.1487 29.9224C12.2239 29.9224 11.4751 29.1737 11.4751 28.2488C11.4751 27.3239 12.2239 26.5752 13.1487 26.5752C14.0736 26.5752 14.8223 27.3239 14.8223 28.2488C14.8223 29.1737 14.0295 29.9224 13.1487 29.9224ZM12.0036 28.2488C12.0036 27.6322 12.4881 27.1037 13.1487 27.1037C13.7653 27.1037 14.2938 27.6322 14.2938 28.2488C14.2938 28.8654 13.7653 29.3939 13.1487 29.3939C12.5321 29.3939 12.0036 28.8654 12.0036 28.2488ZM12.8845 28.2929C12.8845 28.425 12.9725 28.5571 13.1487 28.5571C13.2808 28.5571 13.4129 28.425 13.4129 28.2929C13.4129 28.1607 13.3249 28.0286 13.1487 28.0286C13.0166 28.0286 12.8845 28.1167 12.8845 28.2929ZM7.55548 14.5519C6.14615 14.5519 5.00108 15.697 5.00108 17.1063C5.00108 18.5157 6.14615 19.6607 7.55548 19.6607C8.9648 19.6607 10.1099 18.5157 10.1099 17.1063C10.1099 15.697 8.9648 14.5519 7.55548 14.5519ZM7.55548 18.7799C6.63061 18.7799 5.8819 18.0312 5.8819 17.1063C5.8819 16.1815 6.63061 15.4328 7.55548 15.4328C8.48035 15.4328 9.22905 16.1815 9.22905 17.1063C9.22905 18.0312 8.48035 18.7799 7.55548 18.7799ZM6.41038 17.1063C6.41038 16.4897 6.89484 15.9612 7.55546 15.9612C8.17204 15.9612 8.70054 16.4897 8.70054 17.1063C8.70054 17.7229 8.17204 18.2514 7.55546 18.2514C6.93888 18.2514 6.41038 17.7229 6.41038 17.1063ZM7.29121 17.1504C7.29121 17.2825 7.37929 17.4146 7.55546 17.4146C7.68758 17.4146 7.81971 17.2825 7.81971 17.1504C7.81971 17.0182 7.73162 16.8861 7.55546 16.8861C7.42333 16.8861 7.29121 17.0182 7.29121 17.1504ZM7.55548 20.1452C6.14615 20.1452 5.00108 21.2903 5.00108 22.6996C5.00108 24.1089 6.14615 25.254 7.55548 25.254C8.9648 25.254 10.1099 24.1089 10.1099 22.6996C10.1099 21.2903 8.9648 20.1452 7.55548 20.1452ZM7.55548 24.3291C6.63061 24.3291 5.8819 23.5804 5.8819 22.6555C5.8819 21.7307 6.63061 20.982 7.55548 20.982C8.48035 20.982 9.22905 21.7307 9.22905 22.6555C9.22905 23.5804 8.48035 24.3291 7.55548 24.3291ZM6.41038 22.6555C6.41038 22.0389 6.89484 21.5104 7.55546 21.5104C8.17204 21.5104 8.70054 22.0389 8.70054 22.6555C8.70054 23.2721 8.17204 23.8006 7.55546 23.8006C6.93888 23.8006 6.41038 23.2721 6.41038 22.6555ZM7.29121 22.6996C7.29121 22.8317 7.37929 22.9638 7.55546 22.9638C7.68758 22.9638 7.81971 22.8317 7.81971 22.6996C7.81971 22.5674 7.73162 22.4353 7.55546 22.4353C7.42333 22.4353 7.29121 22.5674 7.29121 22.6996ZM7.55548 25.7384C6.14615 25.7384 5.00108 26.8835 5.00108 28.2928C5.00108 29.7021 6.14615 30.8472 7.55548 30.8472C8.9648 30.8472 10.1099 29.7021 10.1099 28.2928C10.1099 26.8835 8.9648 25.7384 7.55548 25.7384ZM7.55548 29.9224C6.63061 29.9224 5.8819 29.1737 5.8819 28.2488C5.8819 27.3239 6.63061 26.5752 7.55548 26.5752C8.48035 26.5752 9.22905 27.3239 9.22905 28.2488C9.22905 29.1737 8.48035 29.9224 7.55548 29.9224ZM6.41038 28.2488C6.41038 27.6322 6.89484 27.1037 7.55546 27.1037C8.17204 27.1037 8.70054 27.6322 8.70054 28.2488C8.70054 28.8654 8.17204 29.3939 7.55546 29.3939C6.93888 29.3939 6.41038 28.8654 6.41038 28.2488ZM7.29121 28.2929C7.29121 28.425 7.37929 28.5571 7.55546 28.5571C7.68758 28.5571 7.81971 28.425 7.81971 28.2929C7.81971 28.1607 7.73162 28.0286 7.55546 28.0286C7.42333 28.0286 7.29121 28.1167 7.29121 28.2929ZM13.1487 31.3317C11.7394 31.3317 10.5943 32.4768 10.5943 33.8861C10.5943 35.2954 11.7394 36.4405 13.1487 36.4405C14.558 36.4405 15.7031 35.2954 15.7031 33.8861C15.7031 32.4768 14.514 31.3317 13.1487 31.3317ZM13.1487 35.5156C12.2239 35.5156 11.4751 34.7669 11.4751 33.8421C11.4751 32.9172 12.2239 32.1685 13.1487 32.1685C14.0736 32.1685 14.8223 32.9172 14.8223 33.8421C14.8223 34.7669 14.0295 35.5156 13.1487 35.5156ZM12.0036 33.8421C12.0036 33.2255 12.4881 32.697 13.1487 32.697C13.7653 32.697 14.2938 33.2255 14.2938 33.8421C14.2938 34.4586 13.7653 34.9871 13.1487 34.9871C12.5321 34.9871 12.0036 34.4586 12.0036 33.8421ZM12.8845 33.8861C12.8845 34.0182 12.9725 34.1504 13.1487 34.1504C13.2808 34.1504 13.4129 34.0182 13.4129 33.8861C13.4129 33.754 13.3249 33.6219 13.1487 33.6219C13.0166 33.6219 12.8845 33.754 12.8845 33.8861ZM7.55548 31.3317C6.14615 31.3317 5.00108 32.4768 5.00108 33.8861C5.00108 35.2954 6.14615 36.4405 7.55548 36.4405C8.9648 36.4405 10.1099 35.2954 10.1099 33.8861C10.1099 32.4768 8.9648 31.3317 7.55548 31.3317ZM7.55548 35.5156C6.63061 35.5156 5.8819 34.7669 5.8819 33.8421C5.8819 32.9172 6.63061 32.1685 7.55548 32.1685C8.48035 32.1685 9.22905 32.9172 9.22905 33.8421C9.22905 34.7669 8.48035 35.5156 7.55548 35.5156ZM6.41038 33.8421C6.41038 33.2255 6.89484 32.697 7.55546 32.697C8.17204 32.697 8.70054 33.2255 8.70054 33.8421C8.70054 34.4586 8.17204 34.9871 7.55546 34.9871C6.93888 34.9871 6.41038 34.4586 6.41038 33.8421ZM7.29121 33.8861C7.29121 34.0182 7.37929 34.1504 7.55546 34.1504C7.68758 34.1504 7.81971 34.0182 7.81971 33.8861C7.81971 33.754 7.73162 33.6219 7.55546 33.6219C7.42333 33.6219 7.29121 33.754 7.29121 33.8861Z" fill="black"/>
</svg>
