<svg width="40" height="40" viewBox="0 0 40 40" fill="none" xmlns="http://www.w3.org/2000/svg">
<path d="M22.0725 10.0001C20.8942 10.0001 19.9357 10.9593 19.9357 12.1377C19.9357 12.4669 20.0102 12.7785 20.1438 13.0574C17.9334 13.358 15.834 14.1758 13.9858 15.4658C11.6611 17.0884 9.89381 19.3377 8.87569 21.9715C8.74152 22.3186 8.91373 22.709 9.26067 22.8432C9.60742 22.9773 9.99819 22.8044 10.1323 22.4574C11.0536 20.0744 12.6526 18.0388 14.7568 16.5704C16.9085 15.0685 19.4384 14.2746 22.0728 14.2746C28.9612 14.2746 34.5958 19.7451 34.86 26.5695H23.9234C23.5514 26.5695 23.2497 26.8712 23.2497 27.2432C23.2497 27.6152 23.5514 27.9162 23.9234 27.9162H37.9688C38.3408 27.9162 38.6425 27.6152 38.6425 27.2432C38.6425 26.8712 38.3408 26.5695 37.9688 26.5695H36.2078C35.9651 19.6505 30.7293 13.9801 24.0011 13.059C24.1351 12.7797 24.2098 12.4675 24.2098 12.1377C24.2098 10.9593 23.2514 10.0001 22.0731 10.0001H22.0725ZM22.0725 11.3475C22.508 11.3475 22.8627 11.7022 22.8627 12.1377C22.8627 12.5732 22.508 12.927 22.0725 12.927C21.637 12.927 21.2824 12.5731 21.2824 12.1377C21.2824 11.7022 21.637 11.3475 22.0725 11.3475ZM22.0725 15.1724C21.7005 15.1724 21.3988 15.4741 21.3988 15.8461C21.3988 16.2181 21.7005 16.5198 22.0725 16.5198C24.3834 16.5198 26.5786 17.2557 28.4217 18.6488C30.2055 19.9971 31.5403 21.9106 32.1798 24.0371C32.2675 24.3286 32.5352 24.5175 32.8248 24.5175C32.889 24.5175 32.9541 24.5075 33.0188 24.488C33.375 24.3809 33.577 24.0053 33.4698 23.649C32.7484 21.251 31.2445 19.0937 29.2344 17.5741C27.1555 16.0027 24.679 15.1726 22.0729 15.1726L22.0725 15.1724ZM1 25.3051L3.0017 27.7469H19.807L21.8087 25.3051H1ZM3.58539 29.0943L3.85472 30.0001H18.954L19.2234 29.0943H3.58539Z" fill="#383838"/>
</svg>
