<svg width="40" height="40" viewBox="0 0 40 40" fill="none" xmlns="http://www.w3.org/2000/svg">
<path fill-rule="evenodd" clip-rule="evenodd" d="M17.4092 16.2274L18.9433 16.9774L19.557 15.716C20.3751 14.1138 20.0342 12.1365 18.7729 10.8751C18.0229 10.1251 17.8183 8.96603 18.2956 8.01149L18.9092 6.75012L17.3751 6.00012L16.7615 7.26149C15.9433 8.86376 16.2842 10.841 17.5456 12.1024C18.2956 12.8524 18.5001 14.0115 18.0229 14.966L17.4092 16.2274ZM28.7955 19.6024L31.0455 11.6933L29.4091 11.216L27.2273 18.8183C26.3068 18.4774 25.2841 18.2728 24.2614 18.2728C22.2159 18.2728 20.3068 19.0228 18.8409 20.216C17.6818 19.5342 16.3182 19.1251 14.8864 19.1251C10.9318 19.1251 7.69318 22.1251 7.25 25.9433H5L5.61364 27.1706C6.77273 29.5569 8.75 31.5342 11.1023 32.6933L12.0909 33.2046C13.7955 34.0569 15.7045 34.5001 17.5795 34.5001H22.4205C24.3295 34.5001 26.2045 34.0569 27.9091 33.2046L28.8977 32.6933C31.25 31.5342 33.2273 29.5569 34.3864 27.2046L35 25.9774H32.7159C32.4773 23.2842 30.9773 20.966 28.7955 19.6024ZM22.4205 32.7956H17.5795C15.9432 32.7956 14.3068 32.4206 12.8409 31.6706L11.8523 31.1592C10.25 30.341 8.85227 29.1478 7.82955 27.6478H32.1364C31.1136 29.1137 29.75 30.341 28.1136 31.1592L27.1591 31.6706C25.6932 32.4206 24.0568 32.7956 22.4205 32.7956ZM24.2614 23.4206C25.8295 23.4206 27.1932 24.5115 27.5682 25.9774H20.9545C21.3295 24.5115 22.6932 23.4206 24.2614 23.4206ZM29.3068 25.9774C29.1364 24.8524 28.5909 23.8637 27.8068 23.1478L28.3182 21.3751C29.7841 22.466 30.8068 24.1024 31.0455 26.0115H29.3068V25.9774ZM26.3068 22.1251C25.6932 21.8524 25.0114 21.716 24.2614 21.716C21.7386 21.716 19.625 23.5569 19.2159 25.9774H17.4773C17.9205 22.6365 20.7841 20.0115 24.2614 20.0115C25.1477 20.0115 26 20.1819 26.7841 20.4887L26.3068 22.1251ZM15.7727 25.9774H12.4659C12.8068 24.9887 13.7614 24.2728 14.8864 24.2728C15.2955 24.2728 15.7045 24.3751 16.0455 24.5456C15.9091 25.0228 15.8409 25.5001 15.7727 25.9774ZM14.8864 20.8637C15.875 20.8637 16.7955 21.1024 17.6136 21.5115C17.2727 21.9546 16.9318 22.4319 16.6932 22.9433C16.1477 22.7046 15.5341 22.5342 14.9205 22.5342C12.875 22.5342 11.1364 24.0001 10.7614 25.9433H9.02273C9.39773 23.0796 11.8864 20.8637 14.8864 20.8637ZM22.5908 16.9774L21.0567 16.2274L21.6703 14.966C22.1476 14.0115 21.9431 12.8524 21.1931 12.1024C19.9317 10.841 19.5908 8.86376 20.409 7.26149L21.0226 6.00012L22.5567 6.75012L21.9431 8.01149C21.4658 8.96603 21.6703 10.1251 22.4203 10.8751C23.6817 12.1365 24.0226 14.1138 23.2044 15.716L22.5908 16.9774Z" fill="#383838"/>
</svg>
