<svg width="40" height="40" viewBox="0 0 40 40" fill="none" xmlns="http://www.w3.org/2000/svg">
<path fill-rule="evenodd" clip-rule="evenodd" d="M14.8836 5.06444C25.1493 6.39091 33.6272 14.8688 34.9536 25.1921C35.242 26.8646 34.1462 28.1334 32.7621 28.3065C32.1277 28.3641 31.551 28.1911 31.0319 27.8451L5.82904 34.9965C5.59835 35.0541 5.36766 34.9965 5.19464 34.8235C5.02163 34.6504 4.96395 34.4197 5.02163 34.1891L12.2307 8.98617C11.8847 8.52479 11.7116 7.8904 11.7693 7.256C11.9423 5.81419 13.2111 4.71841 14.8836 5.06444ZM12.9228 16.6566C12.9228 15.9069 12.5191 15.2148 11.827 14.8688L10.7312 18.6752H10.9042C12 18.6752 12.9228 17.7524 12.9228 16.6566ZM10.6447 19.9151C10.5582 19.9007 10.4717 19.8863 10.3852 19.8863L6.57878 33.4393L20.0741 29.5753C20.0165 29.2292 19.9588 28.8832 19.9588 28.5371C19.9588 26.1726 21.862 24.2694 24.2266 24.2694C26.0721 24.2694 27.7446 25.5382 28.2636 27.2684L30.1668 26.7493C30.1476 26.6724 30.122 26.5955 30.0963 26.5186C30.0451 26.3648 29.9938 26.211 29.9938 26.0572C29.0711 17.7524 22.2657 11.0047 13.9609 10.0243C13.6148 10.0243 13.4995 9.96661 13.2688 9.85126L12.173 13.6576C13.3841 14.119 14.1916 15.3301 14.1916 16.6566C14.1916 18.4445 12.6921 19.9439 10.9042 19.9439C10.8177 19.9439 10.7312 19.9295 10.6447 19.9151L10.6447 19.9151ZM21.2276 28.5948C21.2276 28.8255 21.2853 29.0562 21.3429 29.2869L27.0525 27.6721C26.6488 26.4609 25.553 25.5959 24.2266 25.5959C22.5541 25.5959 21.2276 26.9223 21.2276 28.5948ZM31.2626 25.9419C31.3203 26.5763 31.897 27.0953 32.6467 27.0377C33.2811 26.98 33.9155 26.4033 33.7425 25.4805C32.4737 15.6762 24.5149 7.65971 14.7106 6.39091C13.6725 6.16022 13.0958 6.79462 13.0381 7.42902C12.9228 8.12109 13.4418 8.75548 14.1339 8.81316C23.0154 9.79359 30.2245 17.0603 31.2626 25.9419ZM8.71267 28.0758C8.71267 26.6917 9.80844 25.5382 11.2503 25.5382C12.6921 25.5382 13.8455 26.6917 13.7878 28.0758C13.7878 29.4599 12.6344 30.6134 11.2503 30.6134C9.86612 30.6134 8.71267 29.5176 8.71267 28.0758ZM9.92379 28.0758C9.92379 28.8255 10.5005 29.4023 11.2503 29.4023C12 29.4023 12.5767 28.8255 12.5767 28.0758C12.5767 27.326 12 26.7493 11.2503 26.7493C10.5005 26.7493 9.92379 27.326 9.92379 28.0758ZM24.2265 21.3281C25.3223 21.3281 26.245 20.4053 26.245 19.3095C26.245 18.2138 25.3223 17.291 24.2265 17.291C23.1307 17.291 22.208 18.2138 22.208 19.3095C22.208 20.4053 23.1307 21.3281 24.2265 21.3281ZM24.2265 18.5598C24.6302 18.5598 24.9763 18.9058 24.9763 19.3095C24.9763 19.7133 24.6302 20.0593 24.2265 20.0593C23.8228 20.0593 23.4768 19.7133 23.4768 19.3095C23.4768 18.9058 23.8228 18.5598 24.2265 18.5598ZM14.826 20.1746C14.826 18.6175 16.0948 17.3487 17.652 17.3487C19.2091 17.3487 20.4779 18.6175 20.4779 20.1746C20.4779 21.7318 19.2091 23.0006 17.652 23.0006C16.0948 23.0006 14.826 21.7318 14.826 20.1746ZM16.0371 20.1746C16.0371 21.0974 16.7869 21.7894 17.652 21.7894C18.517 21.7894 19.2668 21.0397 19.2668 20.1746C19.2668 19.2519 18.5747 18.5598 17.652 18.5598C16.7292 18.5598 16.0371 19.3095 16.0371 20.1746ZM17.6518 13.773C18.4016 13.773 19.036 14.4074 19.036 15.1571C19.036 15.5031 19.3243 15.7915 19.6704 15.7915C20.0164 15.7915 20.3048 15.5031 20.3048 15.1571C20.3048 13.7153 19.1513 12.5042 17.6518 12.5042C17.3058 12.5042 17.0174 12.7925 17.0174 13.1386C17.0174 13.4846 17.3058 13.773 17.6518 13.773ZM14.9413 25.8265L16.1524 24.5001C16.3831 24.2694 16.7868 24.2694 17.0175 24.4424C17.3059 24.6731 17.3059 25.0768 17.0752 25.3075L15.8641 26.6339C15.6334 26.9223 15.2297 26.9223 14.999 26.6916C14.7106 26.4609 14.7106 26.0572 14.9413 25.8265Z" fill="black"/>
</svg>
