<svg width="40" height="40" viewBox="0 0 40 40" fill="none" xmlns="http://www.w3.org/2000/svg">
<path d="M5 25.7723V31.9585C5 33.253 6.08019 34.3062 7.40782 34.3062H12.7869C14.1145 34.3062 15.1945 33.253 15.1945 31.9585V25.7723C15.1945 24.4779 14.1145 23.4249 12.7869 23.4249H7.40782C6.08019 23.4249 5 24.4779 5 25.7723ZM12.8321 33.6073C12.8167 33.6077 12.8023 33.6117 12.7869 33.6117H7.40782C6.47283 33.6117 5.71224 32.8702 5.71224 31.9585V27.4371C6.14777 27.8588 6.74701 28.12 7.40782 28.12H12.7869C12.8021 28.12 12.8169 28.118 12.8321 28.1177V33.6073ZM14.4823 31.9585C14.4823 32.6034 14.098 33.1572 13.5443 33.4296V27.9991C13.901 27.8835 14.2213 27.6898 14.4823 27.4371V31.9585ZM14.4823 25.7723C14.4823 26.684 13.7217 27.4255 12.7869 27.4255H7.40782C6.47283 27.4255 5.71224 26.684 5.71224 25.7723C5.71224 24.8609 6.47283 24.1193 7.40782 24.1193H12.7869C13.7217 24.1193 14.4823 24.8609 14.4823 25.7723ZM8.80327 26.0623C8.9957 26.0623 9.18661 26.0413 9.3638 26.0028C9.3495 26.0498 9.33815 26.0982 9.33815 26.1513C9.33815 26.6529 10.0127 26.8774 10.6813 26.8774C11.3497 26.8774 12.0242 26.6529 12.0242 26.1513C12.0242 25.9981 11.9559 25.8737 11.8495 25.7707C12.3941 25.7077 12.8656 25.4845 12.8656 25.0655C12.8656 24.5638 12.1911 24.3394 11.5225 24.3394C10.8541 24.3394 10.1796 24.5638 10.1796 25.0655C10.1796 25.2187 10.2478 25.343 10.3543 25.446C10.2741 25.4553 10.1964 25.4681 10.1207 25.4845C10.135 25.4376 10.1464 25.3892 10.1464 25.3361C10.1464 24.8344 9.47187 24.61 8.80327 24.61C8.13485 24.61 7.46034 24.8344 7.46034 25.3361C7.46034 25.8378 8.13485 26.0623 8.80327 26.0623ZM11.8858 25.0655C11.6882 25.1025 11.3566 25.1025 11.1595 25.0655C11.3566 25.0286 11.6882 25.0286 11.8858 25.0655ZM11.0443 26.1513C10.8472 26.1882 10.5155 26.1882 10.318 26.1513C10.5155 26.1143 10.8472 26.1143 11.0443 26.1513ZM9.16653 25.3361C8.96899 25.3731 8.63739 25.3731 8.4402 25.3361C8.63739 25.2991 8.96899 25.2991 9.16653 25.3361ZM17.8322 29.5083L22.9786 31.0337C23.1247 31.0769 23.2729 31.1012 23.4216 31.1169C23.4405 31.1199 23.4594 31.1252 23.4782 31.1252C23.4845 31.1252 23.4903 31.1227 23.4966 31.1223C23.557 31.1268 23.6172 31.1354 23.6775 31.1354C24.068 31.1354 24.456 31.0415 24.8116 30.8563C25.3803 30.5603 25.7963 30.068 25.9827 29.4702C25.9828 29.4699 25.9827 29.4697 25.9828 29.4694L27.8276 23.5514C28.2137 22.3129 27.4945 20.9991 26.2244 20.6224L21.0778 19.0974C20.4642 18.9154 19.8135 18.9785 19.2449 19.2747C18.6761 19.5707 18.2602 20.0629 18.0739 20.6607L16.2288 26.5797C16.0424 27.1775 16.1069 27.8122 16.4105 28.3666C16.7143 28.9212 17.2191 29.3268 17.8322 29.5083ZM25.3014 29.2674C25.3014 29.2676 25.3011 29.2678 25.3011 29.2681C25.1701 29.6886 24.8771 30.0349 24.4761 30.2436C24.3138 30.3281 24.1409 30.3783 23.9653 30.4084L25.585 25.2128C25.9521 25.2034 26.3154 25.1135 26.6504 24.9404L25.3014 29.2674ZM18.7554 20.8628C18.8863 20.4423 19.1793 20.0959 19.5803 19.8872C19.8312 19.7567 20.1046 19.6904 20.3799 19.6904C20.5442 19.6904 20.7094 19.7141 20.8706 19.762L26.0171 21.2868C26.9116 21.5521 27.4181 22.4773 27.1462 23.3493C27.0152 23.7697 26.7222 24.1161 26.3213 24.3248C25.9206 24.5337 25.4624 24.5781 25.0312 24.4504L19.8846 22.9251C19.4534 22.7974 19.0981 22.5117 18.8841 22.1208C18.67 21.73 18.6243 21.2831 18.7554 20.8628ZM16.9101 26.7818L18.2593 22.4537C18.5632 23.0052 19.0665 23.4086 19.6773 23.5895L24.8239 25.1147C24.8386 25.119 24.8536 25.1204 24.8683 25.1245L23.2306 30.3779C23.2158 30.374 23.2006 30.3736 23.1859 30.3693L18.0395 28.8439C17.6083 28.7162 17.253 28.4306 17.0389 28.0396C16.8249 27.6488 16.7792 27.2021 16.9101 26.7818ZM21.6263 22.0163C21.817 22.0729 22.0041 22.1017 22.1814 22.1146C22.1467 22.1642 22.1242 22.2129 22.1116 22.2532C21.9619 22.7331 22.5402 23.1392 23.1798 23.3287C23.4238 23.4011 23.6689 23.4393 23.8842 23.4393C23.9284 23.4393 23.9713 23.4376 24.0127 23.4344C24.4925 23.3969 24.6375 23.1555 24.6813 23.0149C24.7097 22.924 24.7251 22.7749 24.632 22.6024C24.7617 22.6248 24.89 22.6391 25.0119 22.6391C25.3958 22.6391 25.7156 22.518 25.8102 22.2147C25.8542 22.074 25.8712 21.7947 25.4941 21.5033C25.303 21.3555 25.0359 21.2263 24.742 21.1393C24.448 21.0522 24.1536 21.014 23.9091 21.0335C23.4293 21.071 23.2843 21.3124 23.2405 21.4529C23.1948 21.5995 23.223 21.7379 23.2941 21.8666C23.2144 21.8528 23.1368 21.843 23.061 21.8373C23.094 21.789 23.1156 21.7419 23.1278 21.7027C23.1716 21.5621 23.1888 21.2827 22.8119 20.9911C22.6206 20.8434 22.3535 20.7141 22.0596 20.6271C21.7656 20.5398 21.4705 20.503 21.2267 20.5215C20.7468 20.559 20.6017 20.8004 20.5577 20.9413C20.4085 21.4211 20.9869 21.8271 21.6263 22.0163ZM24.5349 21.8037C24.6716 21.8442 24.7837 21.891 24.8726 21.9368C24.7728 21.9265 24.6528 21.9048 24.516 21.8643C24.3791 21.8236 24.2669 21.7766 24.1781 21.731C24.2781 21.7412 24.3981 21.763 24.5349 21.8037ZM23.406 22.604C23.5429 22.6445 23.655 22.6914 23.7439 22.737C23.6441 22.7269 23.5239 22.705 23.3871 22.6645C23.2502 22.6238 23.1381 22.5768 23.0492 22.5312C23.1492 22.5414 23.2692 22.5633 23.406 22.604ZM21.8525 21.2915C21.9894 21.3321 22.1015 21.379 22.1904 21.4246C22.0904 21.4145 21.9704 21.3926 21.8334 21.3519C21.6965 21.3114 21.5844 21.2644 21.4955 21.2188C21.5955 21.229 21.7155 21.2509 21.8525 21.2915ZM28.0657 27.1188C28.1208 27.1332 28.1758 27.14 28.2297 27.14C28.4907 27.14 28.7239 26.9788 28.8072 26.7218L34.9224 7.84545C35.0542 7.45262 35.0172 7.03555 34.8178 6.67087C34.6185 6.30636 34.2843 6.04374 33.8763 5.9315C33.4642 5.81808 33.0347 5.87369 32.6671 6.08765C32.2993 6.30178 32.0456 6.64425 31.9528 7.052C31.9526 7.05234 31.9526 7.05285 31.9524 7.05335L27.6249 26.4147C27.5538 26.7324 27.7433 27.0351 28.0657 27.1188ZM32.6483 7.20119L32.6482 7.2017C32.6984 6.98283 32.8349 6.79887 33.0325 6.68376C33.2298 6.56864 33.4611 6.5388 33.6828 6.59983C33.9022 6.66019 34.082 6.80142 34.1893 6.99758C34.2964 7.19373 34.3164 7.41821 34.2445 7.63284L28.7859 24.4818L32.6483 7.20119ZM31.1849 7.6125C31.4977 7.33377 31.6756 6.95265 31.6859 6.53965C31.6963 6.12665 31.5375 5.73772 31.2392 5.44458C30.9376 5.14806 30.5356 4.99072 30.1075 5.00056C29.6792 5.01073 29.2857 5.18722 28.9991 5.49765C28.9988 5.49799 28.9984 5.49833 28.9981 5.49867L15.4647 20.2824C15.2427 20.5251 15.255 20.8794 15.4934 21.1067C15.6145 21.2222 15.7678 21.2802 15.9214 21.2802C16.0702 21.2802 16.2194 21.2258 16.3394 21.1166L31.1849 7.6125ZM29.529 5.96168C29.683 5.79502 29.8946 5.70025 30.1247 5.69483C30.3558 5.68923 30.5712 5.77417 30.7335 5.93371C30.8942 6.09138 30.9794 6.30059 30.9738 6.52269C30.9684 6.74496 30.8726 6.94993 30.7017 7.10235L17.4493 19.1572L29.529 5.96168Z" fill="#383838"/>
</svg>
