<svg width="40" height="40" viewBox="0 0 40 40" fill="none" xmlns="http://www.w3.org/2000/svg">
<path d="M13.4633 5.00196C13.4242 5.00196 13.3852 5.00431 13.3469 5.01021C13.0403 5.0571 12.7698 5.28604 12.7109 5.62326L12.594 6.29329L12.2667 5.61048C12.0699 5.19983 11.5712 5.06245 11.1957 5.27341L10.6713 5.56773C10.2962 5.7784 10.1714 6.28496 10.4273 6.6538L11.1458 7.68905C10.4819 7.84539 9.91132 8.33781 9.79075 9.05677L8.82149 14.8373C8.28651 14.6762 7.92443 14.6177 7.92443 14.6177C7.90388 14.6154 7.88298 14.6118 7.86207 14.6118C7.79156 14.6142 7.72371 14.6396 7.66966 14.6847C7.66966 14.6847 6.83276 15.3842 6.09935 16.4677C5.52021 17.3234 4.98893 18.4414 5.00236 19.6629C5.00118 19.6736 5 19.6851 5 19.6984C5 19.7704 5.00355 19.842 5.00827 19.9132C5.00237 19.9381 5 19.9612 5 19.9853C5 28.2572 11.7162 34.9694 19.9928 34.9694C28.2657 34.9694 35.3667 28.3809 34.9853 18.9611C34.9853 18.9552 34.9846 18.9473 34.9841 18.9418C34.9853 18.0122 34.3627 17.092 33.4421 16.7079C33.4765 16.5438 33.4999 16.3778 33.5 16.2096V16.2086C33.4977 15.1443 32.7989 14.2193 31.8021 13.8852C31.8202 13.7657 31.8523 13.6482 31.8524 13.527V13.5258C31.8489 12.1707 30.7318 11.0673 29.3672 11.0639C28.5639 11.0627 27.8301 11.4611 27.3688 12.1009C27.1908 12.0604 27.0103 12.0324 26.8272 12.0315H26.826C26.0411 12.0292 25.3437 12.3946 24.8929 12.9627C24.0419 12.1619 22.8941 11.6706 21.6346 11.6706C20.2482 11.6706 18.9987 12.2665 18.129 13.2155C18.129 13.2155 18.1284 13.2155 18.1281 13.2155C18.121 13.2155 18.1137 13.2155 18.1065 13.2162C17.9829 13.2221 17.8596 13.2301 17.737 13.2384C17.6144 13.2467 17.4924 13.2551 17.3708 13.2634C17.3438 13.2657 17.3171 13.2716 17.2914 13.28C17.189 12.9947 16.9897 12.7424 16.7085 12.5796C16.5513 12.4887 16.3826 12.4341 16.2123 12.4128C15.7011 12.349 15.1754 12.5877 14.904 13.0588C14.8103 13.2215 14.7559 13.3964 14.7373 13.5727C14.6274 13.5894 14.518 13.6085 14.4093 13.6273L15.4957 10.5715C15.7385 9.88838 15.4992 9.183 15.0056 8.71754L16.1487 8.17774C16.5548 7.98619 16.7019 7.48587 16.4823 7.11559L16.1762 6.59966C15.9564 6.22915 15.4554 6.1011 15.0798 6.35793L14.5855 6.69581L14.7704 6.16645C14.9188 5.7415 14.6609 5.29225 14.2462 5.18168L13.6591 5.02505C13.5943 5.00839 13.5284 5.00012 13.4632 5.00012L13.4633 5.00196ZM13.4715 5.62706C13.481 5.62764 13.4891 5.62824 13.4974 5.62942L14.0843 5.78603C14.1512 5.80269 14.2067 5.88394 14.1795 5.96206L13.6812 7.3886C13.5819 7.6731 13.9036 7.91917 14.1525 7.74908L15.4316 6.87441C15.5002 6.82752 15.6066 6.86616 15.6379 6.91931L15.9438 7.43521C15.9753 7.48812 15.9637 7.57547 15.8809 7.61455L14.3822 8.32199C14.313 8.29424 14.2421 8.27037 14.1692 8.25077C14.1681 8.25014 14.1669 8.24979 14.1645 8.24958L12.1078 7.70111C12.0328 7.68174 11.9571 7.66593 11.8814 7.65506L10.9392 6.2975C10.8878 6.22345 10.9209 6.14255 10.976 6.11179L11.5004 5.81721C11.5552 5.7865 11.6667 5.80658 11.702 5.87957L12.4507 7.44209C12.582 7.71625 12.988 7.66025 13.0401 7.36083L13.325 5.73027C13.3368 5.6646 13.4083 5.62326 13.4707 5.62574L13.4715 5.62706ZM11.6236 8.26086C11.6471 8.26149 11.6709 8.26204 11.6946 8.26322C11.7052 8.26388 11.7159 8.26558 11.7267 8.26558C11.7413 8.26676 11.756 8.26793 11.7705 8.27148C11.7811 8.27266 11.7908 8.27384 11.801 8.27739C11.8168 8.27975 11.8328 8.2833 11.8486 8.28566C11.8569 8.28684 11.8661 8.28803 11.8748 8.29157C11.8991 8.29748 11.9234 8.3022 11.9474 8.30822L14.0039 8.85669C14.0767 8.87606 14.1468 8.90157 14.2137 8.93204C14.2255 8.93795 14.2376 8.94267 14.2493 8.9487C14.7872 9.21343 15.1021 9.81599 14.906 10.3675L14.6985 10.9513L11.8073 10.1805C11.7771 10.1722 11.7459 10.1698 11.7145 10.1698C11.3512 10.1781 11.2938 10.6962 11.6464 10.7847L14.4886 11.5425L12.9497 15.8716L11.9766 15.6122C11.9465 15.6039 11.915 15.6016 11.8838 15.6016C11.5207 15.6098 11.4634 16.1277 11.8156 16.2164L12.7399 16.4629L12.475 17.2077C11.673 16.0788 10.4118 15.4159 9.41972 15.0445L9.78523 12.8651C9.79704 12.871 9.80825 12.8734 9.82006 12.8758L12.8029 13.671C13.207 13.7811 13.369 13.1734 12.9638 13.0677L9.98107 12.2724C9.95084 12.2642 9.91966 12.2618 9.88824 12.2618C9.88759 12.2618 9.88718 12.2618 9.88706 12.2618L10.4064 9.16514C10.4989 8.61376 11.038 8.25532 11.6238 8.26493L11.6236 8.26086ZM29.365 11.6908V11.6913C30.3952 11.6937 31.2244 12.5159 31.2273 13.5299C31.2273 13.6968 31.2034 13.8633 31.1577 14.0242C31.1082 14.1983 31.2168 14.3779 31.3941 14.4151C32.2573 14.5961 32.8725 15.3457 32.875 16.2129C32.875 16.4142 32.8411 16.6134 32.7753 16.8032C32.716 16.974 32.8136 17.159 32.9879 17.2067C33.7792 17.4229 34.3717 18.2621 34.3592 18.9687C34.3592 18.971 34.3592 18.9746 34.3592 18.9769C34.3509 19.3868 34.2637 19.7128 34.0429 20.0015C33.8211 20.2916 33.446 20.5589 32.8114 20.7836C32.6108 20.8549 32.5385 21.1012 32.669 21.2692C32.7314 21.3497 32.7865 21.4342 32.8344 21.5223C32.8822 21.6104 32.9225 21.7022 32.9551 21.7965C32.9778 21.8625 32.9967 21.9295 33.0119 21.9977C32.3242 22.6869 31.3895 23.2912 30.245 23.8037C29.147 24.2954 27.8629 24.6937 26.443 24.9901L26.8829 23.3468L31.2227 22.5142C31.6032 22.4455 31.544 21.8831 31.1575 21.895C31.1397 21.8956 31.1221 21.8973 31.1048 21.9009L27.0621 22.6764L27.342 21.6303L27.9708 19.2886L32.3124 18.456C32.6953 18.3889 32.6358 17.8226 32.2472 17.8365C32.2295 17.8372 32.2118 17.8389 32.1944 17.8425L28.1506 18.6182L28.3132 18.0129L29.2848 14.3955C29.3431 14.1895 29.1814 13.9872 28.9675 13.9986C28.8309 14.0068 28.7149 14.1011 28.6813 14.2336L27.7099 17.851L27.5484 18.4527L24.4426 15.7702C24.3875 15.7214 24.3171 15.6934 24.2435 15.6914C23.9479 15.6831 23.8078 16.0525 24.0342 16.2426L27.3685 19.1226L26.7384 21.4686L26.4594 22.5112L23.3527 19.8279C23.2977 19.7791 23.2272 19.7511 23.1536 19.7491C22.8581 19.7408 22.7181 20.1102 22.9445 20.3003L26.28 23.1816L25.7606 25.122C25.198 25.2235 24.6167 25.31 24.0188 25.3804C24.3525 24.7948 24.5252 24.1531 24.4986 23.5108C24.4975 23.4828 24.4962 23.4546 24.4939 23.4266C24.4939 23.4265 24.4939 23.4266 24.4939 23.4266C24.4915 23.3986 24.4891 23.3703 24.4868 23.3424C24.4868 23.3424 24.4868 23.3424 24.4868 23.3424C24.4844 23.3144 24.4809 23.2861 24.4773 23.2582C24.4773 23.2582 24.4773 23.2582 24.4773 23.2582C24.4702 23.2019 24.4619 23.1456 24.4517 23.0896C24.4517 23.0896 24.4517 23.0896 24.4517 23.0896C24.4314 22.9773 24.4047 22.8654 24.3714 22.7541C24.1051 21.8639 23.4246 21.0349 22.3051 20.3869C22.1308 20.2861 21.9508 20.1921 21.7663 20.1053C21.8851 19.5555 22.2415 19.0823 22.7605 18.8374C22.7641 18.8351 22.7676 18.8351 22.7712 18.8315C22.783 18.8256 22.7941 18.8209 22.8056 18.8149C22.8188 18.809 22.8319 18.8042 22.8451 18.7982C22.8475 18.7973 22.8486 18.797 22.851 18.7959C22.8569 18.7935 22.8634 18.79 22.8695 18.7876C22.8886 18.7793 22.9077 18.7738 22.9271 18.7654C22.9306 18.7642 22.9341 18.763 22.9389 18.763L23.6021 18.5327L22.9883 18.1954C22.9877 18.1954 22.9875 18.1947 22.9871 18.1944C22.9686 18.1838 22.9503 18.175 22.9322 18.1631C22.9142 18.1525 22.8963 18.1409 22.8787 18.1302C22.8258 18.0964 22.7751 18.06 22.7265 18.0218C22.7103 18.0079 22.6943 17.9968 22.6785 17.9826C22.6628 17.9688 22.6475 17.9549 22.6322 17.9419C22.6018 17.9141 22.5724 17.8859 22.544 17.8565C22.5014 17.8125 22.4611 17.7667 22.4233 17.7187C22.4107 17.7021 22.3984 17.6868 22.3862 17.6705C22.3621 17.6381 22.3391 17.6045 22.3173 17.5707C22.3125 17.5648 22.309 17.5569 22.3051 17.5514C22.298 17.5407 22.2917 17.5292 22.2853 17.5195C22.2746 17.5028 22.2648 17.4845 22.255 17.467C22.2503 17.4588 22.2456 17.4504 22.2408 17.4393C22.2171 17.3946 22.195 17.3495 22.1749 17.3029C22.1702 17.2923 22.1655 17.2807 22.1614 17.2699C22.1578 17.2617 22.1555 17.2533 22.1519 17.2477C22.1448 17.2284 22.1374 17.2101 22.1306 17.1909C22.1172 17.1527 22.1048 17.1141 22.0938 17.075C22.0832 17.036 22.0732 16.9966 22.0649 16.9567C22.0601 16.9373 22.0566 16.9168 22.053 16.8966C22.046 16.8564 22.0405 16.8157 22.0362 16.7749C22.0362 16.7737 22.0362 16.7725 22.0356 16.769C22.0297 16.7093 22.0261 16.6489 22.0261 16.5882C22.0261 16.4937 22.0332 16.4008 22.0465 16.3102C22.0477 16.2996 22.0501 16.288 22.0525 16.2769C22.056 16.2575 22.0584 16.2389 22.0619 16.2203C22.0654 16.2037 22.069 16.1901 22.0725 16.1748C22.0761 16.161 22.0784 16.1468 22.082 16.133C22.0867 16.1137 22.0914 16.0972 22.097 16.0795C22.1005 16.0689 22.1029 16.0573 22.1064 16.0468C22.1112 16.0301 22.1182 16.0127 22.1236 15.9958C22.1271 15.9851 22.1306 15.9736 22.1354 15.962C22.1413 15.9482 22.1472 15.9318 22.153 15.9168C22.1577 15.9029 22.1624 15.8918 22.1678 15.8791C22.1761 15.8597 22.1842 15.8422 22.1925 15.8239C22.1961 15.8157 22.1996 15.8073 22.2032 15.799C22.2126 15.7796 22.2234 15.7582 22.234 15.7383C22.2375 15.7324 22.2399 15.7277 22.2434 15.7216C22.2553 15.6994 22.2672 15.679 22.2797 15.6582C22.2821 15.6559 22.2844 15.6499 22.2868 15.6476C22.3 15.6254 22.3138 15.604 22.3279 15.5827C22.3302 15.5804 22.3314 15.5768 22.3338 15.5745C22.3483 15.5523 22.3634 15.5315 22.3789 15.5105C22.3813 15.5081 22.3825 15.5046 22.3836 15.5022C22.7126 15.0601 23.2399 14.7722 23.8411 14.7626L23.8818 14.7618C23.9087 14.7618 23.9356 14.7627 23.9624 14.7642C23.9913 14.7654 24.0202 14.7666 24.0489 14.7701C24.1639 14.7807 24.2777 14.8031 24.3888 14.8353C24.4166 14.8436 24.4442 14.852 24.4716 14.8602C24.499 14.8685 24.5262 14.8796 24.5532 14.8902L25.0097 15.0693L24.9787 14.5796C24.9776 14.563 24.9764 14.5452 24.9764 14.5292C24.9757 14.5125 24.9753 14.4981 24.9753 14.4839C24.9753 14.4562 24.9761 14.4296 24.9765 14.4024C24.9771 14.3942 24.9772 14.3858 24.9777 14.3775C24.9788 14.3526 24.9812 14.3265 24.9836 14.3013C24.9842 14.2931 24.9847 14.2875 24.9859 14.2791C24.9883 14.2598 24.9906 14.2417 24.993 14.2231C24.9942 14.2125 24.9954 14.2009 24.9977 14.1918C25.0013 14.1725 25.0048 14.1511 25.0084 14.1311C25.0119 14.1145 25.0155 14.0974 25.019 14.0804C25.0199 14.078 25.0214 14.0721 25.0214 14.0697C25.06 13.9034 25.1216 13.7461 25.2029 13.6005L25.2436 13.5273C25.5669 13.0037 26.1506 12.6564 26.8234 12.6579C27.0168 12.6588 27.209 12.6895 27.3933 12.7488C27.5335 12.7941 27.6861 12.735 27.7598 12.6077C28.0878 12.0397 28.6989 11.6892 29.3649 11.6901L29.365 11.6908ZM21.6342 12.2978C22.7828 12.2978 23.8083 12.7753 24.5566 13.53C24.4679 13.7385 24.4071 13.9614 24.3792 14.1943C24.2452 14.1663 24.1093 14.147 23.9723 14.1402C23.4322 13.5892 22.7121 13.2284 21.9466 13.1531H21.6348H21.6342C19.8299 13.1532 18.3606 14.6219 18.3606 16.4251C18.3606 18.0902 19.6133 19.4697 21.2257 19.6714C21.2041 19.7307 21.1847 19.7912 21.1678 19.8527C20.374 19.5578 19.5314 19.3898 18.7398 19.3681C18.7315 19.3598 18.7219 19.3514 18.7141 19.3431C18.5272 19.1563 18.358 18.9519 18.2096 18.7322C18.1989 18.7156 18.1899 18.6985 18.1792 18.6823L18.5659 18.5786L18.5086 18.2915C18.5051 18.2748 18.5015 18.2555 18.4968 18.2374C18.4921 18.218 18.4886 18.2014 18.4834 18.1833C18.4751 18.1533 18.4665 18.124 18.4571 18.0949C18.456 18.0925 18.4548 18.0889 18.4536 18.0866C18.3005 17.6192 17.9724 17.2443 17.5527 16.9905C17.5264 16.8047 17.504 16.6178 17.504 16.4258C17.504 14.1427 19.3493 12.2984 21.6338 12.2984L21.6342 12.2978ZM16.03 13.0265C16.0635 13.0259 16.0973 13.0277 16.1309 13.0324C16.2208 13.043 16.3106 13.074 16.3952 13.123C16.7335 13.3187 16.847 13.7409 16.6545 14.0751C16.462 14.4093 16.0426 14.5213 15.7044 14.3254C15.3661 14.1297 15.2524 13.7072 15.4449 13.373C15.5712 13.1537 15.7952 13.0302 16.0299 13.0266L16.03 13.0265ZM21.3219 13.7959V15.6714L19.9937 14.344C20.3676 14.0495 20.8232 13.854 21.3219 13.7959ZM21.9466 13.7971C22.3736 13.8497 22.779 14.0072 23.1309 14.2499C22.6601 14.3968 22.2496 14.6803 21.9466 15.0532V13.7971ZM17.6239 13.8744C17.1529 14.6117 16.8796 15.4869 16.8796 16.4248C16.8796 16.5202 16.8831 16.6145 16.889 16.7082C16.8143 16.6888 16.738 16.6701 16.6605 16.6557C16.693 16.0964 16.4098 15.5485 15.9076 15.257C15.6572 15.112 15.3705 15.0416 15.0818 15.0543C14.5689 15.0765 14.1025 15.3598 13.8467 15.804C13.6146 16.2082 13.5879 16.69 13.7546 17.11C13.5127 17.1788 13.2851 17.2708 13.0753 17.3828L14.1687 14.3069C14.2238 14.2962 14.2785 14.2875 14.3338 14.2761C14.4942 14.2473 14.6565 14.2202 14.8198 14.1938C14.9252 14.4672 15.1204 14.7079 15.3919 14.8651C16.0207 15.229 16.8348 15.0142 17.1966 14.3859C17.2874 14.2282 17.3416 14.0588 17.3617 13.8879C17.3805 13.8903 17.3993 13.8903 17.4181 13.8886C17.4867 13.8827 17.5557 13.878 17.6247 13.8748L17.6239 13.8744ZM19.552 14.7852L20.8801 16.1126H19.0036C19.0618 15.6143 19.2574 15.1588 19.552 14.7852ZM8.30813 15.3546C9.19462 15.5919 11.3629 16.3281 12.2392 18.0308C12.1859 18.0901 12.1355 18.1514 12.0884 18.2143C11.7542 18.6602 11.5789 19.2 11.6427 19.7396C11.618 19.7534 11.5955 19.7729 11.5759 19.7942L9.95526 21.4986L9.79484 20.9004L9.32772 19.1575L10.7409 17.8031C10.9491 17.6091 10.8101 17.2603 10.5253 17.2626C10.4441 17.2633 10.3664 17.2956 10.3086 17.3525L9.14329 18.4694L9.0187 18.0047L8.30813 15.3546ZM7.70297 15.509L8.41523 18.1663L8.54449 18.6485L6.97795 18.2774C6.9476 18.2692 6.9163 18.2668 6.885 18.2692C6.52158 18.2885 6.47845 18.8074 6.83374 18.8858L8.72817 19.3345L9.19153 21.0629L9.35326 21.6661L7.13713 21.0323C7.10713 21.024 7.07608 21.0185 7.04478 21.0185C6.6813 21.0208 6.61447 21.5369 6.96528 21.6319L9.54177 22.3689L9.95263 23.9015C9.87893 23.8715 9.80584 23.8416 9.73371 23.8109C8.43167 23.2593 7.38928 22.6047 6.68661 21.9008C6.13019 21.3435 5.78917 20.7651 5.67116 20.1715C5.46983 18.9347 5.99095 17.7427 6.61594 16.8194C7.02845 16.2099 7.43834 15.7684 7.70286 15.5092L7.70297 15.509ZM15.172 15.6773C15.3197 15.6796 15.4648 15.7222 15.5938 15.7968H15.5932C15.8865 15.9669 16.0412 16.2806 16.0269 16.6037C15.7558 16.6096 15.4773 16.647 15.1981 16.7216L14.3714 16.9431C14.2411 16.6814 14.2389 16.3732 14.3873 16.1146V16.1153C14.5368 15.8555 14.8073 15.6911 15.1084 15.6778C15.1295 15.6769 15.1506 15.6767 15.1717 15.6772L15.172 15.6773ZM19.0036 16.7369H20.8801L19.5539 18.0623C19.2585 17.6897 19.0619 17.2353 19.0036 16.7369ZM21.3219 17.1783V19.0468C20.8247 18.9888 20.3703 18.7946 19.9969 18.5026L21.3219 17.1783ZM16.0941 17.2285C16.1114 17.2285 16.1289 17.2285 16.1463 17.2291C16.1646 17.2297 16.1828 17.2301 16.2008 17.2314C16.2182 17.2321 16.2357 17.2326 16.253 17.2338C16.5249 17.2504 16.779 17.3112 17.0009 17.4059C17.0248 17.4166 17.0482 17.4253 17.0711 17.4378L17.1163 17.46C17.155 17.4794 17.1925 17.5005 17.2287 17.5224C17.2311 17.5236 17.2323 17.5248 17.2347 17.5248C17.2493 17.533 17.2637 17.5441 17.2779 17.5525C17.2873 17.5584 17.2964 17.5631 17.3056 17.5719C17.3127 17.5778 17.3197 17.5802 17.3265 17.5857C17.5357 17.7337 17.6943 17.9208 17.7959 18.1377L12.841 19.4656L12.2732 19.6175C12.2354 19.1638 12.4275 18.6973 12.8352 18.3138C13.1253 18.0413 13.5135 17.8189 13.9689 17.6969L14.3044 17.6071C14.3053 17.6071 14.3068 17.6065 14.3068 17.6064L15.3603 17.3242C15.3988 17.3136 15.4372 17.3049 15.4754 17.296C15.4874 17.2937 15.4992 17.2901 15.5111 17.2877C15.5373 17.2818 15.5636 17.2771 15.5898 17.2711C15.6057 17.2687 15.6215 17.2652 15.6374 17.2628C15.6592 17.2605 15.6812 17.2546 15.703 17.2522C15.7211 17.2498 15.7389 17.2463 15.7569 17.2463C15.7764 17.2439 15.7959 17.2404 15.8152 17.2404C15.8339 17.238 15.8524 17.238 15.871 17.2345C15.8897 17.2333 15.9083 17.2321 15.9267 17.2321C15.946 17.231 15.9652 17.2298 15.9844 17.2298C16.0016 17.2291 16.019 17.2286 16.0362 17.2274C16.0557 17.2274 16.075 17.2274 16.0942 17.2274L16.0941 17.2285ZM21.9466 18.1043C22.0363 18.2152 22.1355 18.3194 22.2435 18.4148C22.1382 18.4802 22.0392 18.5534 21.9466 18.633V18.1043ZM17.5462 18.8518C17.5928 18.93 17.6413 19.0067 17.692 19.0816C17.7661 19.1911 17.8449 19.2972 17.9276 19.4002C17.4728 19.4523 17.0471 19.5645 16.6803 19.748L16.5143 19.1282L17.5462 18.8518ZM15.9146 19.3041L16.133 20.1186C15.997 20.2422 15.8774 20.3827 15.7775 20.5414C15.7632 20.5636 15.7497 20.586 15.7364 20.6087C15.7202 20.6367 15.7049 20.6651 15.6904 20.6939C15.6502 20.7723 15.6162 20.853 15.5871 20.935C15.3246 20.8457 15.0488 20.7853 14.7637 20.7571L14.4776 19.6892L15.9146 19.3041ZM13.8703 19.8368L14.115 20.7496C13.7716 20.7745 13.441 20.8488 13.1299 20.9628C13.1904 20.6452 13.2318 20.3243 13.2473 20.0039L13.8703 19.8368ZM18.585 19.9895H18.61C18.662 19.9901 18.7144 19.9907 18.7672 19.9919C18.7695 19.9919 18.7719 19.9919 18.7743 19.9919C18.8775 19.9942 18.9821 20.0025 19.0877 20.0112C19.0936 20.0119 19.1004 20.0123 19.1068 20.0124C19.1571 20.0183 19.2077 20.023 19.2584 20.0291C19.2667 20.0299 19.2742 20.0314 19.2821 20.0314C19.3273 20.0373 19.3725 20.0421 19.418 20.0481C19.4262 20.0492 19.4335 20.0504 19.4412 20.0504C19.4888 20.0563 19.5367 20.0643 19.5846 20.0726C19.5997 20.075 19.6148 20.0786 19.6299 20.0809C19.6681 20.0868 19.7062 20.0947 19.7445 20.1003C19.7586 20.1027 19.7727 20.1062 19.7869 20.1085C19.8302 20.1168 19.8736 20.1252 19.9169 20.1363C19.9354 20.1387 19.9538 20.1446 19.9722 20.1469C20.0093 20.1552 20.0465 20.1636 20.0836 20.1719C20.1058 20.1778 20.128 20.1825 20.1503 20.1885C20.1829 20.1968 20.2155 20.2052 20.248 20.2134C20.2689 20.2193 20.2897 20.2241 20.3106 20.2301C20.3534 20.2407 20.3961 20.2523 20.4388 20.2659C20.4557 20.2718 20.4726 20.2765 20.4895 20.2797C20.5223 20.2903 20.5551 20.2991 20.5877 20.3097C20.6055 20.3156 20.6233 20.3203 20.641 20.3263C20.686 20.3402 20.7308 20.3558 20.7754 20.371C20.7888 20.3769 20.802 20.3793 20.8152 20.3848C20.8562 20.3986 20.8971 20.4136 20.9378 20.4286C20.9461 20.431 20.9539 20.4345 20.9619 20.4369C21.0148 20.4563 21.0675 20.4768 21.1197 20.4976C21.1204 20.4976 21.1209 20.4982 21.1209 20.4983C21.1749 20.5205 21.2286 20.5421 21.2818 20.5648L21.2842 20.5655C21.3435 20.5905 21.4023 20.6172 21.4606 20.644C21.4629 20.6451 21.4688 20.6463 21.4738 20.6499C21.475 20.6505 21.4761 20.651 21.4785 20.6522C21.5324 20.6771 21.5859 20.7027 21.6387 20.729C21.6387 20.729 21.6387 20.7291 21.6387 20.729C21.6512 20.7349 21.6681 20.7428 21.6895 20.7539C21.6895 20.7539 21.6895 20.7539 21.6901 20.7539V20.7533C21.7313 20.7755 21.7723 20.7955 21.8128 20.8171C21.8697 20.8476 21.9253 20.8784 21.9795 20.9094C21.9843 20.9117 21.9878 20.9153 21.9923 20.9176C22.0241 20.937 22.0552 20.9545 22.0861 20.973C22.1023 20.9836 22.1177 20.9924 22.1337 21.0024V21.0031C22.1337 21.0031 22.1343 21.0036 22.1346 21.0038C22.1623 21.0204 22.1893 21.0376 22.2148 21.054V21.0534C22.2318 21.064 22.249 21.0756 22.2656 21.0859C22.2947 21.1052 22.3233 21.1241 22.3514 21.1433C22.3795 21.1626 22.4071 21.1818 22.4344 21.2012C22.489 21.2401 22.5418 21.2794 22.593 21.319C22.6186 21.3384 22.6436 21.3587 22.6683 21.3787C22.7425 21.4385 22.8128 21.4992 22.8795 21.5608C23.3464 21.9908 23.632 22.4552 23.7721 22.9236C23.9503 23.5192 23.8984 24.1343 23.6431 24.7268C23.6407 24.7327 23.6372 24.7406 23.6348 24.7462C23.6313 24.7521 23.6289 24.76 23.6254 24.7655C23.5789 24.8695 23.5264 24.9726 23.4675 25.0747C23.3851 25.2177 23.3034 25.3342 23.2062 25.4548C22.1728 25.5493 21.097 25.5981 19.9917 25.5981C19.5406 25.5981 19.0947 25.5898 18.6542 25.5732C18.5718 25.5133 18.5054 25.4567 18.397 25.3728C18.2775 25.2802 18.1606 25.1834 18.0465 25.0832C18.0234 25.0639 18.0005 25.0423 17.9776 25.0217L17.9117 24.961C17.8538 24.9075 17.7976 24.8542 17.7429 24.8008C17.7335 24.7925 17.7236 24.7814 17.7141 24.7728C17.7047 24.7645 17.6948 24.7534 17.6852 24.7437C17.6622 24.7215 17.6396 24.6977 17.617 24.6744C17.6015 24.6578 17.5862 24.6425 17.5708 24.6265C17.5459 24.6015 17.5212 24.574 17.4968 24.5474C17.4834 24.5336 17.4701 24.5186 17.457 24.5039C17.431 24.4753 17.4052 24.4468 17.3798 24.418C17.3692 24.4074 17.3587 24.3931 17.3482 24.382C17.3176 24.3468 17.2872 24.3116 17.2575 24.276C17.2516 24.2678 17.2457 24.2622 17.2399 24.2538C17.2121 24.2203 17.1848 24.1867 17.1578 24.1532C17.1519 24.1449 17.1453 24.1365 17.139 24.131C17.0736 24.0484 17.0106 23.9652 16.9502 23.8812C16.9479 23.8789 16.9467 23.8753 16.9443 23.873C16.9133 23.8297 16.8828 23.7862 16.8531 23.7427C16.7755 23.6287 16.7027 23.5139 16.6355 23.3991C16.5088 23.1823 16.402 22.9654 16.317 22.7527H16.3177C16.2301 22.5334 16.1655 22.3191 16.1274 22.1154C16.1267 22.1131 16.1262 22.1096 16.1262 22.1072C16.1203 22.0784 16.1156 22.0496 16.1118 22.0212C16.0787 21.7989 16.0781 21.5901 16.1094 21.3989L16.11 21.3966C16.1352 21.2435 16.1802 21.1023 16.2473 20.9715C16.2567 20.9521 16.2673 20.9336 16.2781 20.9147C16.2899 20.8953 16.3012 20.8759 16.3135 20.8567C16.6859 20.2828 17.5309 19.98 18.5852 19.9837L18.585 19.9895ZM12.5944 20.1788C12.5621 20.5575 12.5018 20.9403 12.4049 21.3224C11.445 21.9381 10.7869 22.9845 10.7054 24.186C10.6948 24.1837 10.6832 24.1777 10.6722 24.1754C10.6711 24.1695 10.6699 24.1648 10.6687 24.1587L10.5717 23.7966L10.1453 22.2062L11.9458 20.3128C11.9761 20.3211 12.0073 20.3235 12.0386 20.3211C12.0492 20.3204 12.0595 20.3199 12.0699 20.3187C12.0805 20.3176 12.0902 20.3164 12.1003 20.3128C12.1009 20.3128 12.1014 20.3128 12.1026 20.3122L12.5944 20.1788ZM33.785 21.0171C33.6968 21.1643 33.5986 21.3085 33.491 21.4496C33.4589 21.3726 33.4233 21.2968 33.3834 21.2234C33.3834 21.2228 33.3822 21.2222 33.3822 21.221C33.527 21.157 33.661 21.0888 33.7852 21.0167L33.785 21.0171ZM14.398 21.363C14.4295 21.363 14.4609 21.3636 14.4922 21.3642C14.4982 21.3648 14.5029 21.3652 14.5088 21.3654C14.5326 21.3663 14.5564 21.3678 14.58 21.3678C14.5895 21.3684 14.6 21.3688 14.6098 21.3701C14.6104 21.3702 14.6106 21.3701 14.611 21.3701C14.9103 21.395 15.1946 21.4674 15.4652 21.5686C15.457 21.7255 15.4643 21.8849 15.4844 22.0451C15.4867 22.0701 15.4903 22.0931 15.4938 22.1172C15.4938 22.1184 15.4944 22.1196 15.4945 22.1196C15.154 21.9582 14.7825 21.8651 14.3981 21.8648C12.9815 21.8648 11.8263 23.0193 11.8263 24.4352C11.8263 24.4706 11.8273 24.5061 11.8287 24.5416C11.6571 24.4922 11.488 24.4415 11.322 24.3891C11.322 24.3832 11.322 24.3808 11.322 24.3753C11.3227 24.367 11.3232 24.3586 11.3232 24.3531C11.3527 23.2566 11.954 22.3068 12.8399 21.7857C12.8494 21.7797 12.8593 21.775 12.8685 21.7663C13.3186 21.5091 13.8404 21.3619 14.3976 21.3619L14.398 21.363ZM34.29 21.3769C33.4944 29.1629 27.2191 34.3466 19.9925 34.3466C12.6503 34.3466 6.59984 28.851 5.73165 21.7485C5.88226 21.9525 6.05369 22.1502 6.24447 22.3413C7.02752 23.1257 8.13535 23.8112 9.48996 24.3851C12.1942 25.5308 15.8896 26.2287 19.9704 26.2313C19.9775 26.2319 19.9851 26.2319 19.9925 26.2319C24.0794 26.2319 27.7841 25.5882 30.5 24.3719C32.2041 23.6087 33.5347 22.6007 34.2898 21.377L34.29 21.3769ZM20.973 21.8334C20.9293 21.8334 20.8858 21.8346 20.8423 21.8393C20.2629 21.879 19.713 22.1953 19.4034 22.7328C18.9081 23.5929 19.2096 24.7017 20.0712 25.2004C20.9328 25.6991 22.0435 25.4058 22.5388 24.5457C23.0341 23.6856 22.7328 22.5768 21.8712 22.0781C21.5884 21.9145 21.2789 21.8361 20.973 21.835V21.8334ZM20.9394 22.4546C20.9963 22.4537 21.0536 22.457 21.1108 22.4629C21.2634 22.4822 21.4155 22.5327 21.5582 22.6153C22.1293 22.9459 22.3233 23.6653 21.9973 24.2313C21.6714 24.7972 20.9553 24.9877 20.3842 24.6571C19.8132 24.3266 19.619 23.6072 19.9449 23.0412C20.1588 22.6698 20.5406 22.4601 20.9394 22.4533V22.4546ZM14.3981 22.492C14.9088 22.492 15.3974 22.693 15.7607 23.0495C15.8543 23.2749 15.9673 23.4995 16.0971 23.7213C16.1619 23.8322 16.2311 23.9423 16.3039 24.0513C16.3306 24.1788 16.3444 24.3085 16.3451 24.4389C16.3451 24.5734 16.3316 24.7042 16.3057 24.8305C16.2797 24.9572 16.2416 25.0791 16.1923 25.1954C16.165 25.26 16.1338 25.3227 16.0999 25.3834C16.019 25.3751 15.9387 25.364 15.8584 25.354C15.9624 24.5529 15.4875 23.7773 14.7092 23.6001C14.6043 23.5751 14.4994 23.5643 14.3958 23.5634C13.6836 23.5575 13.0321 24.0739 12.8335 24.809C12.7119 24.78 12.5911 24.7503 12.4718 24.7195C12.4585 24.6277 12.4512 24.5338 12.4512 24.4381C12.4512 23.3596 13.3192 22.4921 14.3982 22.4921L14.3981 22.492ZM14.3886 24.188C14.4493 24.188 14.5103 24.1962 14.5706 24.2073C15.0176 24.309 15.3088 24.7566 15.2402 25.2684C14.6207 25.1775 14.0206 25.0697 13.4432 24.946C13.5787 24.4827 13.9783 24.1851 14.3886 24.1866V24.188ZM16.9277 24.8565C17.0379 24.9807 17.1528 25.1021 17.2717 25.2203C17.2728 25.2211 17.274 25.2226 17.274 25.2226L17.2764 25.225C17.2986 25.2472 17.3212 25.269 17.3436 25.2906C17.3237 25.3605 17.304 25.4306 17.282 25.4991C17.1072 25.4853 16.9333 25.4701 16.7608 25.4534C16.7632 25.4475 16.7655 25.4428 16.7679 25.4367C16.833 25.2829 16.8837 25.1213 16.9179 24.9539C16.925 24.9217 16.9238 24.8874 16.9274 24.8547L16.9277 24.8565ZM31.9239 25.4614C31.7984 25.4614 31.685 25.5359 31.6359 25.6513C31.4839 25.9947 31.3129 26.3276 31.1242 26.6495C30.9045 27.011 31.455 27.3333 31.6631 26.965C31.8637 26.623 32.0454 26.269 32.2071 25.9038C32.3021 25.6973 32.1513 25.4618 31.9239 25.4613V25.4614ZM30.7666 27.4526C30.6637 27.4502 30.5661 27.4983 30.5058 27.5815C30.2827 27.8808 30.0431 28.1685 29.7881 28.4438C29.5331 28.7191 29.2627 28.9823 28.9782 29.2324C27.8402 30.2331 26.4757 31.027 24.9656 31.5704C24.5744 31.7118 24.7855 32.2982 25.1771 32.158C26.7568 31.5895 28.1898 30.7573 29.3907 29.7013C29.691 29.4374 29.9767 29.1593 30.2464 28.8679C30.5162 28.5766 30.7702 28.2719 31.0067 27.9545C31.162 27.7519 31.0217 27.459 30.7666 27.4525V27.4526Z" fill="#383838"/>
</svg>
