<svg width="40" height="40" viewBox="0 0 40 40" fill="none" xmlns="http://www.w3.org/2000/svg">
<path d="M18.4697 6.00012C18.4697 6.00012 15.1517 9.98279 18.4697 12.3259C21.7877 14.6691 20.3168 15.5901 19.026 17.246M5.17809 21.044H34.576H5.17809ZM29.6068 33.6293C29.6068 32.0137 25.4348 31.4885 20.2879 31.4885C15.1411 31.4885 10.969 32.0137 10.969 33.6293H29.6068ZM26.96 31.1963C31.7396 28.8763 35 24.2418 35 18.9024H5C5 24.3896 8.47322 29.0065 13.4708 31.2575L26.96 31.1963ZM27.8144 18.9024L33.6995 12.7978L32.2701 11.4023L23.8408 18.9024H27.8144ZM13.4704 28.7912C13.9911 29.0928 14.5542 29.3513 15.1584 29.5415L13.4704 28.7912ZM8.92226 23.9523C8.92226 23.9523 9.95223 25.9809 11.904 27.6671L8.92226 23.9523ZM11.6852 6.00012C11.6852 6.00012 8.36721 9.98279 11.6852 12.3259C15.0033 14.6691 13.5323 15.5901 12.2416 17.246L11.6852 6.00012ZM15.0775 6.00012C15.0775 6.00012 11.7594 9.98279 15.0775 12.3259C18.3955 14.6691 16.9245 15.5901 15.6338 17.246L15.0775 6.00012Z" stroke="#383838" stroke-miterlimit="10" stroke-linecap="round"/>
</svg>
