<svg width="40" height="40" viewBox="0 0 40 40" fill="none" xmlns="http://www.w3.org/2000/svg">
<path fill-rule="evenodd" clip-rule="evenodd" d="M19.4418 18.7327C19.2937 18.5881 19.2105 18.3921 19.2105 18.1876V15.1043C19.2105 14.8999 19.1274 14.7038 18.9793 14.5592C18.8312 14.4147 18.6304 14.3335 18.4211 14.3335H7.36842C7.15904 14.3335 6.95823 14.4147 6.81018 14.5592C6.66212 14.7038 6.57895 14.8999 6.57895 15.1043V16.646H16.0526C16.262 16.646 16.4628 16.7272 16.6109 16.8717C16.7589 17.0163 16.8421 17.2124 16.8421 17.4168V34.3751C16.8421 34.5796 16.7589 34.7756 16.6109 34.9202C16.4628 35.0647 16.262 35.146 16.0526 35.146H6.57895V36.6876C6.57895 36.8921 6.66212 37.0881 6.81018 37.2327C6.95823 37.3772 7.15904 37.4585 7.36842 37.4585H17.6316C17.841 37.4585 18.0418 37.5397 18.1898 37.6842C18.3379 37.8288 18.4211 38.0248 18.4211 38.2293C18.4211 38.4337 18.3379 38.6298 18.1898 38.7743C18.0418 38.9189 17.841 39.0001 17.6316 39.0001H7.36842C6.74028 39.0001 6.13786 38.7565 5.69369 38.3228C5.24953 37.8891 5 37.3009 5 36.6876V15.1043C5.00137 14.6272 5.15385 14.1622 5.43653 13.773C5.71921 13.3838 6.11825 13.0896 6.57895 12.9305V10.4793C6.57895 9.86598 6.82848 9.27778 7.27264 8.8441C7.71681 8.41043 8.31922 8.16679 8.94737 8.16679H10.5263V2.77096C10.5263 2.56652 10.6095 2.37045 10.7575 2.22589C10.9056 2.08133 11.1064 2.00012 11.3158 2.00012H14.4737C14.6831 2.00012 14.8839 2.08133 15.0319 2.22589C15.18 2.37045 15.2632 2.56652 15.2632 2.77096V8.16679H16.8421C17.4703 8.16679 18.0727 8.41043 18.5168 8.8441C18.961 9.27778 19.2105 9.86598 19.2105 10.4793V12.9305C19.6712 13.0896 20.0703 13.3838 20.3529 13.773C20.6356 14.1622 20.7881 14.6272 20.7895 15.1043V18.1876C20.7895 18.3921 20.7063 18.5881 20.5582 18.7327C20.4102 18.8772 20.2094 18.9585 20 18.9585C19.7906 18.9585 19.5898 18.8772 19.4418 18.7327ZM15.2632 33.6043V18.1876H6.57895V33.6043H15.2632ZM13.6842 5.08346V3.54179H12.1053V5.08346H13.6842ZM13.6842 6.62512H12.1053V8.16679H13.6842V6.62512ZM8.15789 10.4793V12.7918H17.6316V10.4793C17.6316 10.2749 17.5484 10.0788 17.4003 9.93423C17.2523 9.78967 17.0515 9.70846 16.8421 9.70846H8.94737C8.73799 9.70846 8.53718 9.78967 8.38913 9.93423C8.24107 10.0788 8.15789 10.2749 8.15789 10.4793ZM30.2711 6.47866C30.4132 18.573 34.6684 22.2191 34.7158 22.2191C34.8049 22.2916 34.8766 22.3823 34.9257 22.4849C34.9748 22.5875 35.0002 22.6994 35 22.8126V36.6876C35 37.3009 34.7505 37.8891 34.3063 38.3228C33.8621 38.7565 33.2597 39.0001 32.6316 39.0001H21.5789C20.9508 39.0001 20.3484 38.7565 19.9042 38.3228C19.4601 37.8891 19.2105 37.3009 19.2105 36.6876V22.8126C19.2113 22.6988 19.2379 22.5865 19.2884 22.4839C19.3389 22.3812 19.4121 22.2908 19.5026 22.2191C19.5421 22.1882 23.8053 18.4574 23.9474 6.47866C23.4305 6.29018 22.9972 5.93141 22.7223 5.46428C22.4475 4.99715 22.3483 4.45098 22.4419 3.92005C22.5355 3.38913 22.816 2.90677 23.235 2.55624C23.654 2.20571 24.1852 2.00902 24.7368 2.00012H29.4737C30.026 2.00731 30.5584 2.20277 30.9788 2.55269C31.3991 2.90261 31.681 3.38498 31.7756 3.91636C31.8702 4.44773 31.7716 4.99468 31.4968 5.46258C31.2221 5.93048 30.7885 6.2899 30.2711 6.47866ZM29.3079 13.5626C28.9101 11.2702 28.7015 8.9502 28.6842 6.62512H25.5263C25.5038 8.95061 25.29 11.2706 24.8868 13.5626H29.3079ZM29.4737 3.54179H24.7368C24.5275 3.54179 24.3267 3.623 24.1786 3.76756C24.0305 3.91212 23.9474 4.10818 23.9474 4.31262C23.9474 4.51706 24.0305 4.71312 24.1786 4.85768C24.3267 5.00224 24.5275 5.08346 24.7368 5.08346H29.4737C29.6831 5.08346 29.8839 5.00224 30.0319 4.85768C30.18 4.71312 30.2632 4.51706 30.2632 4.31262C30.2632 4.10818 30.18 3.91212 30.0319 3.76756C29.8839 3.623 29.6831 3.54179 29.4737 3.54179ZM33.1898 37.2327C33.3379 37.0881 33.4211 36.8921 33.4211 36.6876L33.4132 23.1364C32.6947 22.4041 30.8 20.0762 29.6395 15.1043H24.5632C23.4026 20.053 21.5079 22.3655 20.7895 23.1364V24.3543H31.0526C31.262 24.3543 31.4628 24.4355 31.6109 24.5801C31.7589 24.7246 31.8421 24.9207 31.8421 25.1251C31.8421 25.3296 31.7589 25.5256 31.6109 25.6702C31.4628 25.8147 31.262 25.896 31.0526 25.896H20.7895V34.3751H31.0526C31.262 34.3751 31.4628 34.4563 31.6109 34.6009C31.7589 34.7455 31.8421 34.9415 31.8421 35.146C31.8421 35.3504 31.7589 35.5465 31.6109 35.691C31.4628 35.8356 31.262 35.9168 31.0526 35.9168H20.7895V36.6876C20.7895 36.8921 20.8727 37.0881 21.0207 37.2327C21.1688 37.3772 21.3696 37.4585 21.5789 37.4585H32.6316C32.841 37.4585 33.0418 37.3772 33.1898 37.2327Z" fill="#383838"/>
</svg>
