<svg width="40" height="40" viewBox="0 0 40 40" fill="none" xmlns="http://www.w3.org/2000/svg">
<path fill-rule="evenodd" clip-rule="evenodd" d="M33.0779 16.8088C33.4866 17.2021 33.8669 17.624 34.2161 18.071C35.1371 19.2641 35.2564 20.8588 34.5217 22.1355C34.164 22.7616 33.617 23.2583 32.9593 23.554C32.3879 23.8151 31.7606 23.93 31.1337 23.8884C30.5069 23.8468 29.9002 23.6499 29.3684 23.3155C24.8565 20.5151 20.2739 20.6648 20.029 20.6728L20.0191 20.6731C20.0056 20.6738 19.9921 20.6738 19.9787 20.6731C19.9314 20.6703 15.2434 20.4517 10.6293 23.3155C10.022 23.6942 9.32078 23.8955 8.60502 23.8966C8.06534 23.8966 7.53207 23.7797 7.04188 23.554C6.38418 23.2583 5.83716 22.7616 5.47944 22.1355C4.74344 20.8588 4.86268 19.2641 5.78302 18.071C6.13828 17.616 6.52505 17.1864 6.94046 16.7855C7.14399 16.5867 7.36876 16.3805 7.61615 16.1687C7.69067 16.1051 7.7874 16.0737 7.88507 16.0814C7.98275 16.0891 8.07335 16.1353 8.13697 16.2098C8.20058 16.2843 8.23198 16.3811 8.22427 16.4787C8.21656 16.5764 8.17037 16.667 8.09585 16.7306C7.93549 16.8663 7.78679 16.999 7.64973 17.1288C8.12185 18.105 8.72096 19.0144 9.43147 19.8336C9.49653 19.9069 9.5298 20.0031 9.52395 20.101C9.51811 20.1988 9.47362 20.2904 9.40029 20.3554C9.32695 20.4205 9.23077 20.4538 9.13291 20.4479C9.03504 20.4421 8.94351 20.3976 8.87844 20.3243C8.17734 19.5192 7.57886 18.6302 7.09671 17.6777C6.84057 17.947 6.59813 18.229 6.37031 18.5226C5.63089 19.4766 5.53358 20.7505 6.11812 21.7702C6.40099 22.2633 6.83282 22.6541 7.35163 22.8865C7.81165 23.0957 8.31643 23.1873 8.8206 23.1531C9.32478 23.1189 9.81255 22.9599 10.2401 22.6905C10.554 22.4941 10.8665 22.3114 11.1776 22.1423C10.8492 21.9804 10.5353 21.7906 10.2394 21.5749C10.2002 21.5464 10.1669 21.5104 10.1416 21.469C10.1163 21.4277 10.0993 21.3817 10.0918 21.3338C10.0842 21.2859 10.0861 21.2369 10.0975 21.1898C10.1088 21.1426 10.1293 21.0981 10.1579 21.0589C10.1864 21.0196 10.2224 20.9864 10.2637 20.9611C10.3051 20.9357 10.3511 20.9188 10.399 20.9112C10.4469 20.9037 10.4958 20.9056 10.543 20.9169C10.5902 20.9283 10.6346 20.9488 10.6739 20.9773C11.0908 21.2872 11.5513 21.5336 12.0403 21.7085C15.4633 20.0885 18.5594 19.9268 19.6285 19.9268V18.757C19.6285 18.6591 19.6674 18.5651 19.7367 18.4958C19.8059 18.4266 19.8999 18.3876 19.9978 18.3876C20.0958 18.3876 20.1898 18.4266 20.259 18.4958C20.3283 18.5651 20.3672 18.6591 20.3672 18.757V19.9268C21.5786 19.9406 22.7852 20.0821 23.967 20.3489C24.8079 19.5704 25.5267 18.3657 26.1099 16.7608C26.1257 16.7143 26.1507 16.6714 26.1833 16.6346C26.2159 16.5978 26.2555 16.568 26.2998 16.5467C26.3442 16.5254 26.3923 16.5132 26.4413 16.5108C26.4904 16.5084 26.5395 16.5158 26.5857 16.5326C26.6319 16.5494 26.6743 16.5752 26.7104 16.6085C26.7464 16.6419 26.7755 16.6821 26.7958 16.7269C26.8162 16.7716 26.8274 16.82 26.8288 16.8691C26.8302 16.9182 26.8218 16.9671 26.8041 17.013C26.2572 18.5179 25.5863 19.7048 24.8044 20.5531C26.5519 21.0187 28.2213 21.7389 29.759 22.6905C30.1867 22.9599 30.6746 23.1188 31.1789 23.1529C31.6833 23.187 32.1881 23.0952 32.6482 22.8858C33.1671 22.6536 33.599 22.2628 33.8817 21.7695C34.4683 20.7532 34.371 19.48 33.6336 18.5254C33.405 18.2316 33.1614 17.9498 32.9038 17.6811C32.6673 18.145 32.4042 18.5949 32.1157 19.0284C32.0887 19.0689 32.054 19.1037 32.0136 19.1307C31.9731 19.1578 31.9277 19.1767 31.88 19.1862C31.8323 19.1958 31.7832 19.1958 31.7354 19.1864C31.6877 19.1769 31.6422 19.1582 31.6018 19.1312C31.5613 19.1042 31.5265 19.0695 31.4994 19.029C31.4723 18.9886 31.4535 18.9432 31.4439 18.8955C31.4344 18.8478 31.4343 18.7986 31.4438 18.7509C31.4532 18.7031 31.472 18.6577 31.499 18.6172C31.8147 18.1417 32.0984 17.6456 32.348 17.1322C31.3256 16.1803 29.7714 15.0256 27.5976 14.1403C27.5476 14.3966 27.4729 14.7502 27.3674 15.1682C27.357 15.2167 27.337 15.2626 27.3085 15.3032C27.28 15.3438 27.2436 15.3782 27.2015 15.4044C27.1594 15.4306 27.1125 15.4481 27.0635 15.4558C27.0145 15.4635 26.9645 15.4613 26.9164 15.4492C26.8683 15.4371 26.8231 15.4155 26.7835 15.3856C26.7439 15.3557 26.7108 15.3182 26.6861 15.2752C26.6613 15.2322 26.6455 15.1847 26.6395 15.1355C26.6335 15.0862 26.6375 15.0363 26.6513 14.9886C26.7705 14.5124 26.85 14.1204 26.8959 13.8703C25.1107 13.2309 22.9487 12.7813 20.3686 12.7416V16.0789C20.3686 16.1769 20.3297 16.2708 20.2604 16.3401C20.1911 16.4094 20.0972 16.4483 19.9992 16.4483C19.9013 16.4483 19.8073 16.4094 19.738 16.3401C19.6688 16.2708 19.6299 16.1769 19.6299 16.0789V12.7437C17.2828 12.7793 15.094 13.1576 13.1025 13.8709C13.2629 14.7323 13.8228 17.3063 15.0734 19.199C15.1274 19.2808 15.1467 19.3807 15.127 19.4767C15.1073 19.5727 15.0503 19.6569 14.9686 19.7109C14.8868 19.7649 14.7869 19.7842 14.6909 19.7645C14.5949 19.7449 14.5106 19.6879 14.4566 19.6061C13.1793 17.6708 12.5961 15.1565 12.4008 14.1382C12.081 14.2661 11.7676 14.405 11.4606 14.5549C11.3723 14.5973 11.2707 14.6029 11.1782 14.5705C11.0858 14.538 11.01 14.4702 10.9675 14.3818C10.9251 14.2935 10.9195 14.1919 10.9519 14.0995C10.9844 14.007 11.0522 13.9312 11.1406 13.8888C11.6006 13.669 12.0719 13.4678 12.5543 13.285L12.5639 13.2816C14.8164 12.4312 17.3102 12.0001 19.9999 12.0001C22.974 12.0001 25.4315 12.5264 27.4256 13.2789L27.4565 13.2905C30.0743 14.2862 31.8882 15.665 33.021 16.7532C33.0419 16.7696 33.061 16.7882 33.0779 16.8088ZM9.39994 14.8536C9.29303 14.9222 9.18818 14.9907 9.08539 15.0592C9.00361 15.1138 8.94683 15.1985 8.92755 15.2949C8.90827 15.3913 8.92808 15.4914 8.9826 15.5732C9.03712 15.655 9.12191 15.7118 9.21829 15.731C9.31468 15.7503 9.41478 15.7305 9.49656 15.676C9.59524 15.6102 9.69552 15.5449 9.7974 15.48C9.83835 15.454 9.87377 15.4202 9.90165 15.3805C9.92953 15.3408 9.94931 15.296 9.95987 15.2486C9.97044 15.2013 9.97157 15.1523 9.96321 15.1045C9.95485 15.0568 9.93717 15.0111 9.91116 14.9701C9.88515 14.9292 9.85133 14.8938 9.81164 14.8659C9.77194 14.838 9.72714 14.8182 9.67979 14.8077C9.63245 14.7971 9.58349 14.796 9.53571 14.8043C9.48792 14.8127 9.44226 14.8304 9.40131 14.8564L9.39994 14.8536ZM31.6045 24.8101C31.5155 24.7694 31.414 24.7657 31.3223 24.7997C31.2306 24.8338 31.1561 24.9028 31.1152 24.9917C30.8077 25.6604 30.3152 26.2271 29.6959 26.6248C29.0765 27.0226 28.3563 27.2346 27.6203 27.236H12.3796C11.6236 27.2372 10.8841 27.0151 10.2539 26.5975C9.62376 26.1799 9.13095 25.5855 8.83733 24.8889C8.81925 24.8431 8.79217 24.8013 8.75768 24.766C8.72318 24.7308 8.68199 24.7028 8.63651 24.6837C8.59103 24.6647 8.5422 24.6549 8.49289 24.655C8.44358 24.6551 8.39479 24.6651 8.3494 24.6844C8.304 24.7036 8.26293 24.7318 8.22859 24.7672C8.19426 24.8026 8.16735 24.8445 8.14947 24.8904C8.13159 24.9364 8.12309 24.9855 8.12448 25.0347C8.12586 25.084 8.1371 25.1326 8.15753 25.1774C8.50753 26.0074 9.09475 26.7156 9.84558 27.2132C10.5964 27.7109 11.4774 27.9758 12.3782 27.9748H27.6196C28.4969 27.974 29.3557 27.7219 30.0942 27.2482C30.8328 26.7746 31.4201 26.0992 31.7868 25.3022C31.8074 25.2579 31.8191 25.21 31.8211 25.1613C31.8231 25.1125 31.8154 25.0638 31.7985 25.018C31.7815 24.9723 31.7556 24.9303 31.7223 24.8946C31.689 24.8589 31.649 24.8302 31.6045 24.8101ZM29.5425 21.6469C29.6203 21.6477 29.6964 21.6237 29.7597 21.5783C29.9928 21.4083 30.2161 21.2253 30.4285 21.0301C30.5012 20.964 30.5447 20.8718 30.5494 20.7737C30.5541 20.6756 30.5196 20.5796 30.4536 20.5069C30.4208 20.4709 30.3814 20.4417 30.3374 20.4209C30.2934 20.4002 30.2457 20.3883 30.1971 20.386C30.099 20.3813 30.003 20.4158 29.9303 20.4819C29.7387 20.6581 29.5374 20.8235 29.3273 20.9773C29.2642 21.0232 29.2172 21.0879 29.1931 21.162C29.1691 21.2362 29.1691 21.3161 29.1932 21.3903C29.2173 21.4645 29.2643 21.5291 29.3274 21.575C29.3905 21.6208 29.4665 21.6455 29.5445 21.6455L29.5425 21.6469ZM13.5247 23.4978C13.4811 23.5152 13.4345 23.5241 13.3876 23.5238V23.5259C13.3013 23.5265 13.2175 23.4969 13.1508 23.4421C13.084 23.3874 13.0386 23.311 13.0223 23.2262C13.006 23.1415 13.0199 23.0537 13.0616 22.9781C13.1033 22.9025 13.1702 22.8439 13.2506 22.8125L13.3431 22.7762C13.4329 22.7446 13.5315 22.7489 13.6183 22.7883C13.705 22.8277 13.7732 22.899 13.8086 22.9875C13.8439 23.0759 13.8438 23.1746 13.8081 23.2629C13.7725 23.3513 13.704 23.4224 13.6172 23.4615L13.5247 23.4978ZM12.7804 25.8579C12.8076 25.9268 12.8547 25.9859 12.9158 26.0277C12.9769 26.0695 13.0491 26.092 13.1231 26.0923C13.17 26.0925 13.2166 26.0837 13.2601 26.0662L13.3527 26.0299C13.4011 26.0147 13.4459 25.9897 13.4842 25.9565C13.5225 25.9232 13.5536 25.8824 13.5755 25.8366C13.5973 25.7908 13.6095 25.741 13.6113 25.6903C13.613 25.6395 13.6043 25.589 13.5857 25.5418C13.567 25.4946 13.5388 25.4517 13.5029 25.4159C13.467 25.3801 13.424 25.352 13.3767 25.3335C13.3295 25.315 13.2789 25.3065 13.2282 25.3084C13.1775 25.3103 13.1277 25.3226 13.082 25.3446L12.9895 25.381C12.8987 25.4167 12.8258 25.487 12.7866 25.5763C12.7474 25.6657 12.7452 25.7669 12.7804 25.8579ZM15.9204 25.0191C15.8769 25.0367 15.8303 25.0456 15.7834 25.0452V25.0472C15.697 25.0478 15.6132 25.0182 15.5465 24.9635C15.4798 24.9087 15.4343 24.8323 15.418 24.7476C15.4018 24.6628 15.4157 24.575 15.4574 24.4994C15.4991 24.4239 15.5659 24.3653 15.6463 24.3338L15.7388 24.2975C15.7843 24.2771 15.8334 24.266 15.8832 24.2651C15.933 24.2641 15.9825 24.2732 16.0287 24.2919C16.0749 24.3105 16.1168 24.3383 16.152 24.3736C16.1872 24.4089 16.2148 24.4509 16.2333 24.4972C16.2519 24.5434 16.2608 24.593 16.2597 24.6428C16.2585 24.6926 16.2473 24.7417 16.2267 24.787C16.2062 24.8324 16.1766 24.8731 16.1398 24.9068C16.1031 24.9404 16.0599 24.9663 16.0129 24.9828L15.9204 25.0191Z" fill="black"/>
</svg>
