<svg width="40" height="40" viewBox="0 0 40 40" fill="none" xmlns="http://www.w3.org/2000/svg">
<path d="M34.9659 21.5502L32.5769 15.0659C32.4745 14.7928 32.2356 14.6222 31.9285 14.6222H30.7681L33.0888 9.02518C33.4642 8.13785 33.0206 7.14814 32.1674 6.80686C31.28 6.43145 30.2903 6.87511 29.949 7.72831L27.0481 14.6222H25.956L28.9593 7.35291C29.3347 6.46557 28.8911 5.47586 28.0379 5.13458C27.1505 4.75917 26.1608 5.20283 25.8195 6.05604L25.3076 7.31878L22.2702 14.6222H21.7583C20.7344 11.107 17.0486 9.09344 13.5334 10.1173C11.3492 10.7657 9.64281 12.438 9.0285 14.6222H8.07291C7.76576 14.6222 7.52686 14.7928 7.42448 15.0659L5.03551 21.5502C4.96725 21.755 5.00138 21.9939 5.10377 22.1645C5.20615 22.3693 5.41092 22.4717 5.64982 22.4717H9.09676L11.9294 34.2117C12.1683 35.1332 12.9874 35.7816 13.9088 35.7816H25.9902C26.9458 35.7816 27.7648 35.1332 27.9696 34.2117L30.8705 22.4717H34.3174C34.5563 22.4717 34.7611 22.3693 34.8635 22.1645C35 21.9939 35.0341 21.755 34.9659 21.5502ZM13.6358 20.0827C13.4993 20.0827 13.3969 20.0486 13.2604 19.9803L9.84758 15.9873H30.0856L26.6727 19.9803C26.6045 20.0486 26.468 20.0827 26.3315 20.0827H13.6358ZM13.2945 14.6222C14.3184 13.4618 16.093 13.3595 17.2875 14.3833C17.3899 14.4516 17.4581 14.5539 17.5264 14.6222H13.2945ZM31.3483 8.0696C31.4165 8.03547 31.5189 8.03547 31.6213 8.0696C31.792 8.13785 31.8943 8.34262 31.792 8.51326L31.5531 9.1617L30.9046 8.88867L31.1777 8.24024C31.2118 8.17198 31.28 8.10372 31.3483 8.0696ZM30.3927 10.1514L31.007 10.4244L29.2665 14.6222H28.5157L30.3927 10.1514ZM27.2529 6.36319C27.3212 6.32906 27.4236 6.32906 27.5259 6.36319C27.6966 6.43145 27.799 6.63622 27.7307 6.80686L27.4577 7.45529L26.8093 7.18226L27.0823 6.56796C27.1164 6.46557 27.1847 6.39732 27.2529 6.36319ZM26.2973 8.44501L26.9116 8.71803L24.4885 14.6222H23.7377L26.2973 8.44501ZM15.3763 11.2094C17.5605 11.2094 19.54 12.5745 20.3249 14.6222H19.1304C18.1066 12.5404 15.5811 11.6872 13.5334 12.711C12.7143 13.1206 12.0318 13.769 11.6222 14.6222H10.4278C11.2127 12.5745 13.1921 11.2094 15.3763 11.2094ZM6.63953 21.1065L7.9364 17.5913L8.7896 21.1065H6.63953ZM26.7069 33.9046C26.6386 34.2117 26.3315 34.4506 26.0243 34.4165H13.943C13.6358 34.4165 13.3286 34.2117 13.2604 33.9046L9.30153 17.4207L12.2707 20.9018C12.3048 20.9359 12.3389 20.97 12.3731 21.0042C12.7143 21.2772 13.158 21.4137 13.6017 21.4137H26.3315C26.7751 21.4137 27.2188 21.2772 27.5601 21.0042C27.5942 20.97 27.6283 20.9359 27.6625 20.9018L30.6316 17.4207L26.7069 33.9046ZM31.1777 21.1065L32.0309 17.5913L33.3277 21.1065H31.1777Z" fill="#383838"/>
</svg>
