<svg width="56" height="80" viewBox="0 0 56 80" fill="none" xmlns="http://www.w3.org/2000/svg">
<mask id="path-1-inside-1" fill="white">
<path fill-rule="evenodd" clip-rule="evenodd" d="M53 23H40.3C39.7357 21.8057 38.8443 20.7959 37.7291 20.0878C36.614 19.3798 35.3209 19.0026 34 19H14C12.1441 19.0021 10.3649 19.7403 9.05259 21.0526C7.7403 22.3649 7.00212 24.1441 7 26V47.3C6.36636 47.6003 5.85464 48.1084 5.55 48.74L1.01 58.59C0.347734 60.0333 0.00329411 61.602 0 63.19V79H2V63.19C2.00337 61.8916 2.28646 60.6092 2.83 59.43L7 50.38V64C6.99948 65.1942 7.30595 66.3684 7.89 67.41C7.96529 67.5784 8.0857 67.7227 8.23791 67.8269C8.39011 67.9312 8.56818 67.9913 8.75241 68.0006C8.93665 68.0099 9.11987 67.9681 9.28181 67.8797C9.44376 67.7914 9.5781 67.66 9.67 67.5L14.17 59.71C14.3 59.4815 14.4738 59.2808 14.6814 59.1195C14.889 58.9582 15.1264 58.8395 15.38 58.77C15.8935 58.6386 16.4379 58.7103 16.9 58.97C17.1283 59.1015 17.3284 59.2768 17.4888 59.4859C17.6492 59.695 17.7667 59.9337 17.8345 60.1883C17.9023 60.4429 17.9192 60.7084 17.8841 60.9695C17.849 61.2307 17.7626 61.4823 17.63 61.71L13.13 69.5C13.0431 69.6563 12.9983 69.8325 13 70.0113C13.0018 70.1902 13.05 70.3655 13.14 70.52L15.28 74.08C15.749 74.8553 15.998 75.7438 16 76.65V78.99H18V76.65C17.9977 75.3817 17.6521 74.1377 17 73.05L15.77 71H21.54C21.2679 72.0265 21.4116 73.1188 21.94 74.04L25.09 79.5L26.82 78.5L23.67 73.04C23.5253 72.8124 23.4281 72.5578 23.3843 72.2916C23.3406 72.0255 23.3511 71.7532 23.4153 71.4912C23.4794 71.2292 23.5959 70.9829 23.7578 70.7671C23.9196 70.5513 24.1234 70.3705 24.3569 70.2355C24.5905 70.1005 24.8489 70.0142 25.1167 69.9816C25.3844 69.9491 25.656 69.9711 25.9151 70.0462C26.1741 70.1214 26.4153 70.2482 26.6241 70.419C26.8329 70.5897 27.005 70.801 27.13 71.04L29.13 74.5C29.2392 74.6926 29.4092 74.8436 29.6134 74.9292C29.8176 75.0148 30.0444 75.0302 30.2583 74.9731C30.4722 74.9159 30.6611 74.7893 30.7953 74.6132C30.9296 74.4371 31.0015 74.2214 31 74V55C31 54.4696 31.2107 53.9609 31.5858 53.5858C31.9609 53.2107 32.4696 53 33 53C33.5304 53 34.0391 53.2107 34.4142 53.5858C34.7893 53.9609 35 54.4696 35 55V71C35 71.2652 35.1054 71.5196 35.2929 71.7071C35.4804 71.8946 35.7348 72 36 72C36.2652 72 36.5196 71.8946 36.7071 71.7071C36.8946 71.5196 37 71.2652 37 71V67C37 66.4696 37.2107 65.9609 37.5858 65.5858C37.9609 65.2107 38.4696 65 39 65C39.5304 65 40.0391 65.2107 40.4142 65.5858C40.7893 65.9609 41 66.4696 41 67V71C41 71.2652 41.1054 71.5196 41.2929 71.7071C41.4804 71.8946 41.7348 72 42 72C42.2652 72 42.5196 71.8946 42.7071 71.7071C42.8946 71.5196 43 71.2652 43 71V68C43 67.4696 43.2107 66.9609 43.5858 66.5858C43.9609 66.2107 44.4696 66 45 66C45.5304 66 46.0391 66.2107 46.4142 66.5858C46.7893 66.9609 47 67.4696 47 68V71C47 71.2652 47.1054 71.5196 47.2929 71.7071C47.4804 71.8946 47.7348 72 48 72C48.2652 72 48.5196 71.8946 48.7071 71.7071C48.8946 71.5196 49 71.2652 49 71V69C49 68.4696 49.2107 67.9609 49.5858 67.5858C49.9609 67.2107 50.4696 67 51 67C51.5304 67 52.0391 67.2107 52.4142 67.5858C52.7893 67.9609 53 68.4696 53 69V79H55V69C55 67.9391 54.5786 66.9217 53.8284 66.1716C53.0783 65.4214 52.0609 65 51 65C50.0585 64.9962 49.1468 65.3297 48.43 65.94C48.0735 65.3489 47.5705 64.8597 46.9696 64.5199C46.3687 64.18 45.6903 64.001 45 64C44.0585 63.9962 43.1468 64.3297 42.43 64.94C42.0797 64.3597 41.5876 63.878 41 63.54V37H43V40C42.9992 40.1978 43.058 40.3913 43.1685 40.5554C43.2791 40.7194 43.4364 40.8464 43.62 40.92C43.7387 40.9761 43.8688 41.0035 44 41C44.2657 41.0008 44.5209 40.8965 44.71 40.71L48.41 37H53C53.7949 36.9976 54.5566 36.6808 55.1187 36.1187C55.6808 35.5566 55.9976 34.7949 56 34V26C55.9976 25.2051 55.6808 24.4434 55.1187 23.8813C54.5566 23.3192 53.7949 23.0024 53 23ZM39 63C38.2974 63.0007 37.6075 63.187 37 63.54V55C37 53.9391 36.5786 52.9217 35.8284 52.1716C35.0783 51.4214 34.0609 51 33 51C31.9391 51 30.9217 51.4214 30.1716 52.1716C29.4214 52.9217 29 53.9391 29 55V69H27.98C27.3531 68.4668 26.5772 68.1394 25.7578 68.0625C24.9384 67.9856 24.1152 68.1628 23.4 68.57C23.1914 68.6961 22.994 68.84 22.81 69H15.73L19.37 62.71C19.7677 62.0247 19.9529 61.2367 19.9021 60.446C19.8513 59.6554 19.5669 58.8975 19.0848 58.2687C18.6028 57.6399 17.9448 57.1684 17.1945 56.9141C16.4441 56.6597 15.6351 56.6339 14.87 56.84C14.3607 56.9739 13.8834 57.2083 13.466 57.5295C13.0487 57.8506 12.6999 58.252 12.44 58.71L9.04 64.6C9.01175 64.4013 8.99838 64.2007 9 64V26C9 24.6739 9.52678 23.4021 10.4645 22.4645C11.4021 21.5268 12.6739 21 14 21H34C34.8062 21.0007 35.6003 21.1967 36.3142 21.5711C37.0282 21.9455 37.6409 22.4872 38.1 23.15C37.4929 23.3409 36.9623 23.7199 36.5848 24.2322C36.2073 24.7445 36.0025 25.3636 36 26V34C36.0024 34.7949 36.3192 35.5566 36.8813 36.1187C37.4434 36.6808 38.2051 36.9976 39 37V63ZM54 34C54 34.2652 53.8946 34.5196 53.7071 34.7071C53.5196 34.8946 53.2652 35 53 35H48C47.7349 35.002 47.4807 35.1058 47.29 35.29L45 37.59V36C45 35.7348 44.8946 35.4804 44.7071 35.2929C44.5196 35.1054 44.2652 35 44 35H39C38.7348 35 38.4804 34.8946 38.2929 34.7071C38.1054 34.5196 38 34.2652 38 34V26C38 25.7348 38.1054 25.4804 38.2929 25.2929C38.4804 25.1054 38.7348 25 39 25H53C53.2652 25 53.5196 25.1054 53.7071 25.2929C53.8946 25.4804 54 25.7348 54 26V34ZM21 23H27V25H21V23ZM23 65H25V67H23V65ZM33.7071 39.7071C33.5196 39.8946 33.2652 40 33 40H32V42H33C33.2652 42 33.5196 42.1054 33.7071 42.2929C33.8946 42.4804 34 42.7348 34 43V46C33.9984 46.5299 33.7872 47.0377 33.4125 47.4125C33.0377 47.7872 32.5299 47.9984 32 48H16C15.4701 47.9984 14.9623 47.7872 14.5875 47.4125C14.2128 47.0377 14.0016 46.5299 14 46V43C14 42.7348 14.1054 42.4804 14.2929 42.2929C14.4804 42.1054 14.7348 42 15 42H16V40H15C14.7348 40 14.4804 39.8946 14.2929 39.7071C14.1054 39.5196 14 39.2652 14 39V37C14 35.6739 14.5268 34.4021 15.4645 33.4645C16.4021 32.5268 17.6739 32 19 32H29C30.3261 32 31.5979 32.5268 32.5355 33.4645C33.4732 34.4021 34 35.6739 34 37V39C34 39.2652 33.8946 39.5196 33.7071 39.7071ZM16 46H32V44H16V46ZM18 40V42H30V40H18ZM16 37V38H32V37C31.9976 36.2051 31.6808 35.4434 31.1187 34.8813C30.5566 34.3192 29.7949 34.0024 29 34V36H27V34H25V36H23V34H21V36H19V34C18.2051 34.0024 17.4434 34.3192 16.8813 34.8813C16.3192 35.4434 16.0024 36.2051 16 37ZM52 27H40V29H52V27ZM40 31H52V33H40V31Z"/>
</mask>
<path fill-rule="evenodd" clip-rule="evenodd" d="M53 23H40.3C39.7357 21.8057 38.8443 20.7959 37.7291 20.0878C36.614 19.3798 35.3209 19.0026 34 19H14C12.1441 19.0021 10.3649 19.7403 9.05259 21.0526C7.7403 22.3649 7.00212 24.1441 7 26V47.3C6.36636 47.6003 5.85464 48.1084 5.55 48.74L1.01 58.59C0.347734 60.0333 0.00329411 61.602 0 63.19V79H2V63.19C2.00337 61.8916 2.28646 60.6092 2.83 59.43L7 50.38V64C6.99948 65.1942 7.30595 66.3684 7.89 67.41C7.96529 67.5784 8.0857 67.7227 8.23791 67.8269C8.39011 67.9312 8.56818 67.9913 8.75241 68.0006C8.93665 68.0099 9.11987 67.9681 9.28181 67.8797C9.44376 67.7914 9.5781 67.66 9.67 67.5L14.17 59.71C14.3 59.4815 14.4738 59.2808 14.6814 59.1195C14.889 58.9582 15.1264 58.8395 15.38 58.77C15.8935 58.6386 16.4379 58.7103 16.9 58.97C17.1283 59.1015 17.3284 59.2768 17.4888 59.4859C17.6492 59.695 17.7667 59.9337 17.8345 60.1883C17.9023 60.4429 17.9192 60.7084 17.8841 60.9695C17.849 61.2307 17.7626 61.4823 17.63 61.71L13.13 69.5C13.0431 69.6563 12.9983 69.8325 13 70.0113C13.0018 70.1902 13.05 70.3655 13.14 70.52L15.28 74.08C15.749 74.8553 15.998 75.7438 16 76.65V78.99H18V76.65C17.9977 75.3817 17.6521 74.1377 17 73.05L15.77 71H21.54C21.2679 72.0265 21.4116 73.1188 21.94 74.04L25.09 79.5L26.82 78.5L23.67 73.04C23.5253 72.8124 23.4281 72.5578 23.3843 72.2916C23.3406 72.0255 23.3511 71.7532 23.4153 71.4912C23.4794 71.2292 23.5959 70.9829 23.7578 70.7671C23.9196 70.5513 24.1234 70.3705 24.3569 70.2355C24.5905 70.1005 24.8489 70.0142 25.1167 69.9816C25.3844 69.9491 25.656 69.9711 25.9151 70.0462C26.1741 70.1214 26.4153 70.2482 26.6241 70.419C26.8329 70.5897 27.005 70.801 27.13 71.04L29.13 74.5C29.2392 74.6926 29.4092 74.8436 29.6134 74.9292C29.8176 75.0148 30.0444 75.0302 30.2583 74.9731C30.4722 74.9159 30.6611 74.7893 30.7953 74.6132C30.9296 74.4371 31.0015 74.2214 31 74V55C31 54.4696 31.2107 53.9609 31.5858 53.5858C31.9609 53.2107 32.4696 53 33 53C33.5304 53 34.0391 53.2107 34.4142 53.5858C34.7893 53.9609 35 54.4696 35 55V71C35 71.2652 35.1054 71.5196 35.2929 71.7071C35.4804 71.8946 35.7348 72 36 72C36.2652 72 36.5196 71.8946 36.7071 71.7071C36.8946 71.5196 37 71.2652 37 71V67C37 66.4696 37.2107 65.9609 37.5858 65.5858C37.9609 65.2107 38.4696 65 39 65C39.5304 65 40.0391 65.2107 40.4142 65.5858C40.7893 65.9609 41 66.4696 41 67V71C41 71.2652 41.1054 71.5196 41.2929 71.7071C41.4804 71.8946 41.7348 72 42 72C42.2652 72 42.5196 71.8946 42.7071 71.7071C42.8946 71.5196 43 71.2652 43 71V68C43 67.4696 43.2107 66.9609 43.5858 66.5858C43.9609 66.2107 44.4696 66 45 66C45.5304 66 46.0391 66.2107 46.4142 66.5858C46.7893 66.9609 47 67.4696 47 68V71C47 71.2652 47.1054 71.5196 47.2929 71.7071C47.4804 71.8946 47.7348 72 48 72C48.2652 72 48.5196 71.8946 48.7071 71.7071C48.8946 71.5196 49 71.2652 49 71V69C49 68.4696 49.2107 67.9609 49.5858 67.5858C49.9609 67.2107 50.4696 67 51 67C51.5304 67 52.0391 67.2107 52.4142 67.5858C52.7893 67.9609 53 68.4696 53 69V79H55V69C55 67.9391 54.5786 66.9217 53.8284 66.1716C53.0783 65.4214 52.0609 65 51 65C50.0585 64.9962 49.1468 65.3297 48.43 65.94C48.0735 65.3489 47.5705 64.8597 46.9696 64.5199C46.3687 64.18 45.6903 64.001 45 64C44.0585 63.9962 43.1468 64.3297 42.43 64.94C42.0797 64.3597 41.5876 63.878 41 63.54V37H43V40C42.9992 40.1978 43.058 40.3913 43.1685 40.5554C43.2791 40.7194 43.4364 40.8464 43.62 40.92C43.7387 40.9761 43.8688 41.0035 44 41C44.2657 41.0008 44.5209 40.8965 44.71 40.71L48.41 37H53C53.7949 36.9976 54.5566 36.6808 55.1187 36.1187C55.6808 35.5566 55.9976 34.7949 56 34V26C55.9976 25.2051 55.6808 24.4434 55.1187 23.8813C54.5566 23.3192 53.7949 23.0024 53 23ZM39 63C38.2974 63.0007 37.6075 63.187 37 63.54V55C37 53.9391 36.5786 52.9217 35.8284 52.1716C35.0783 51.4214 34.0609 51 33 51C31.9391 51 30.9217 51.4214 30.1716 52.1716C29.4214 52.9217 29 53.9391 29 55V69H27.98C27.3531 68.4668 26.5772 68.1394 25.7578 68.0625C24.9384 67.9856 24.1152 68.1628 23.4 68.57C23.1914 68.6961 22.994 68.84 22.81 69H15.73L19.37 62.71C19.7677 62.0247 19.9529 61.2367 19.9021 60.446C19.8513 59.6554 19.5669 58.8975 19.0848 58.2687C18.6028 57.6399 17.9448 57.1684 17.1945 56.9141C16.4441 56.6597 15.6351 56.6339 14.87 56.84C14.3607 56.9739 13.8834 57.2083 13.466 57.5295C13.0487 57.8506 12.6999 58.252 12.44 58.71L9.04 64.6C9.01175 64.4013 8.99838 64.2007 9 64V26C9 24.6739 9.52678 23.4021 10.4645 22.4645C11.4021 21.5268 12.6739 21 14 21H34C34.8062 21.0007 35.6003 21.1967 36.3142 21.5711C37.0282 21.9455 37.6409 22.4872 38.1 23.15C37.4929 23.3409 36.9623 23.7199 36.5848 24.2322C36.2073 24.7445 36.0025 25.3636 36 26V34C36.0024 34.7949 36.3192 35.5566 36.8813 36.1187C37.4434 36.6808 38.2051 36.9976 39 37V63ZM54 34C54 34.2652 53.8946 34.5196 53.7071 34.7071C53.5196 34.8946 53.2652 35 53 35H48C47.7349 35.002 47.4807 35.1058 47.29 35.29L45 37.59V36C45 35.7348 44.8946 35.4804 44.7071 35.2929C44.5196 35.1054 44.2652 35 44 35H39C38.7348 35 38.4804 34.8946 38.2929 34.7071C38.1054 34.5196 38 34.2652 38 34V26C38 25.7348 38.1054 25.4804 38.2929 25.2929C38.4804 25.1054 38.7348 25 39 25H53C53.2652 25 53.5196 25.1054 53.7071 25.2929C53.8946 25.4804 54 25.7348 54 26V34ZM21 23H27V25H21V23ZM23 65H25V67H23V65ZM33.7071 39.7071C33.5196 39.8946 33.2652 40 33 40H32V42H33C33.2652 42 33.5196 42.1054 33.7071 42.2929C33.8946 42.4804 34 42.7348 34 43V46C33.9984 46.5299 33.7872 47.0377 33.4125 47.4125C33.0377 47.7872 32.5299 47.9984 32 48H16C15.4701 47.9984 14.9623 47.7872 14.5875 47.4125C14.2128 47.0377 14.0016 46.5299 14 46V43C14 42.7348 14.1054 42.4804 14.2929 42.2929C14.4804 42.1054 14.7348 42 15 42H16V40H15C14.7348 40 14.4804 39.8946 14.2929 39.7071C14.1054 39.5196 14 39.2652 14 39V37C14 35.6739 14.5268 34.4021 15.4645 33.4645C16.4021 32.5268 17.6739 32 19 32H29C30.3261 32 31.5979 32.5268 32.5355 33.4645C33.4732 34.4021 34 35.6739 34 37V39C34 39.2652 33.8946 39.5196 33.7071 39.7071ZM16 46H32V44H16V46ZM18 40V42H30V40H18ZM16 37V38H32V37C31.9976 36.2051 31.6808 35.4434 31.1187 34.8813C30.5566 34.3192 29.7949 34.0024 29 34V36H27V34H25V36H23V34H21V36H19V34C18.2051 34.0024 17.4434 34.3192 16.8813 34.8813C16.3192 35.4434 16.0024 36.2051 16 37ZM52 27H40V29H52V27ZM40 31H52V33H40V31Z" fill="white"/>
<path d="M40.3 23L40.0287 23.1282L40.1099 23.3H40.3V23ZM53 23L53.0009 22.7H53V23ZM34 19L34.0006 18.7H34V19ZM14 19V18.7L13.9997 18.7L14 19ZM7 26L6.7 25.9997V26H7ZM7 47.3L7.12847 47.5711L7.3 47.4898V47.3H7ZM5.55 48.74L5.27975 48.6096L5.27755 48.6144L5.55 48.74ZM1.01 58.59L0.737547 58.4644L0.737335 58.4649L1.01 58.59ZM0 63.19L-0.3 63.1894V63.19H0ZM0 79H-0.3V79.3H0V79ZM2 79V79.3H2.3V79H2ZM2 63.19L1.7 63.1892V63.19H2ZM2.83 59.43L3.10245 59.5556L3.10247 59.5555L2.83 59.43ZM7 50.38H7.3L6.72753 50.2545L7 50.38ZM7 64L7.3 64.0001V64H7ZM7.89 67.41L8.16387 67.2876L8.15832 67.2751L8.15167 67.2633L7.89 67.41ZM9.67 67.5L9.41023 67.3499L9.40987 67.3506L9.67 67.5ZM14.17 59.71L14.4298 59.8601L14.4308 59.8583L14.17 59.71ZM15.38 58.77L15.3056 58.4793L15.3007 58.4807L15.38 58.77ZM16.9 58.97L17.0497 58.71L17.047 58.7085L16.9 58.97ZM17.63 61.71L17.3708 61.559L17.3702 61.5599L17.63 61.71ZM13.13 69.5L12.8702 69.3499L12.8678 69.3542L13.13 69.5ZM13.14 70.52L12.8807 70.671L12.8829 70.6746L13.14 70.52ZM15.28 74.08L15.0229 74.2346L15.0233 74.2353L15.28 74.08ZM16 76.65H16.3L16.3 76.6493L16 76.65ZM16 78.99H15.7V79.29H16V78.99ZM18 78.99V79.29H18.3V78.99H18ZM18 76.65H18.3L18.3 76.6495L18 76.65ZM17 73.05L17.2573 72.8957L17.2572 72.8956L17 73.05ZM15.77 71V70.7H15.2401L15.5128 71.1544L15.77 71ZM21.54 71L21.83 71.0769L21.9299 70.7H21.54V71ZM21.94 74.04L21.6798 74.1893L21.6801 74.1899L21.94 74.04ZM25.09 79.5L24.8301 79.6499L24.9802 79.91L25.2401 79.7597L25.09 79.5ZM26.82 78.5L26.9701 78.7597L27.2296 78.6097L27.0799 78.3501L26.82 78.5ZM23.67 73.04L23.9301 72.8899L23.9232 72.8791L23.67 73.04ZM27.13 71.04L26.8639 71.1792L26.8703 71.1901L27.13 71.04ZM29.13 74.5L29.391 74.3521L29.3897 74.3499L29.13 74.5ZM31 74H30.7L30.7 74.0021L31 74ZM53 79H52.7V79.3H53V79ZM55 79V79.3H55.3V79H55ZM51 65L50.9988 65.3H51V65ZM48.43 65.94L48.1731 66.0949L48.3555 66.3974L48.6245 66.1684L48.43 65.94ZM45 64L44.9988 64.3H44.9996L45 64ZM42.43 64.94L42.1732 65.0951L42.3557 65.3973L42.6245 65.1684L42.43 64.94ZM41 63.54H40.7V63.7135L40.8504 63.8001L41 63.54ZM41 37V36.7H40.7V37H41ZM43 37H43.3V36.7H43V37ZM43 40L43.3 40.0011V40H43ZM43.62 40.92L43.7481 40.6487L43.74 40.6449L43.7315 40.6415L43.62 40.92ZM44 41L44.0009 40.6999L43.9921 40.7001L44 41ZM44.71 40.71L44.9207 40.9236L44.9224 40.9218L44.71 40.71ZM48.41 37V36.7H48.2855L48.1976 36.7882L48.41 37ZM53 37V37.3L53.0009 37.3L53 37ZM56 34L56.3 34.0009V34H56ZM56 26H56.3L56.3 25.9991L56 26ZM37 63.54H36.7V64.0613L37.1507 63.7994L37 63.54ZM39 63L39.0003 63.3L39.3 63.2997V63H39ZM29 69V69.3H29.3V69H29ZM27.98 69L27.7856 69.2285L27.8697 69.3H27.98V69ZM23.4 68.57L23.2515 68.3092L23.2448 68.3133L23.4 68.57ZM22.81 69V69.3H22.9222L23.0069 69.2264L22.81 69ZM15.73 69L15.4703 68.8497L15.2098 69.3H15.73V69ZM19.37 62.71L19.1105 62.5594L19.1103 62.5597L19.37 62.71ZM14.87 56.84L14.9463 57.1301L14.948 57.1297L14.87 56.84ZM12.44 58.71L12.6998 58.86L12.7009 58.858L12.44 58.71ZM9.04 64.6L8.74299 64.6422L8.86531 65.5027L9.29982 64.75L9.04 64.6ZM9 64L9.3 64.0024V64H9ZM10.4645 22.4645L10.2523 22.2523L10.4645 22.4645ZM34 21L34.0003 20.7H34V21ZM38.1 23.15L38.19 23.4362L38.5785 23.314L38.3466 22.9792L38.1 23.15ZM36 26L35.7 25.9988V26H36ZM36 34H35.7L35.7 34.0009L36 34ZM39 37H39.3V36.7009L39.0009 36.7L39 37ZM48 35V34.7L47.9978 34.7L48 35ZM47.29 35.29L47.0815 35.0742L47.0774 35.0783L47.29 35.29ZM45 37.59H44.7V38.3165L45.2126 37.8017L45 37.59ZM27 23H27.3V22.7H27V23ZM21 23V22.7H20.7V23H21ZM27 25V25.3H27.3V25H27ZM21 25H20.7V25.3H21V25ZM25 65H25.3V64.7H25V65ZM23 65V64.7H22.7V65H23ZM25 67V67.3H25.3V67H25ZM23 67H22.7V67.3H23V67ZM32 40V39.7H31.7V40H32ZM32 42H31.7V42.3H32V42ZM34 46L34.3 46.0009V46H34ZM32 48V48.3L32.0009 48.3L32 48ZM16 48L15.9991 48.3H16V48ZM14 46H13.7L13.7 46.0009L14 46ZM16 42V42.3H16.3V42H16ZM16 40H16.3V39.7H16V40ZM15.4645 33.4645L15.6766 33.6766V33.6766L15.4645 33.4645ZM32.5355 33.4645L32.3234 33.6766V33.6766L32.5355 33.4645ZM32 46V46.3H32.3V46H32ZM16 46H15.7V46.3H16V46ZM32 44H32.3V43.7H32V44ZM16 44V43.7H15.7V44H16ZM18 42H17.7V42.3H18V42ZM18 40V39.7H17.7V40H18ZM30 42V42.3H30.3V42H30ZM30 40H30.3V39.7H30V40ZM16 38H15.7V38.3H16V38ZM16 37L15.7 36.9991V37H16ZM32 38V38.3H32.3V38H32ZM32 37H32.3L32.3 36.9991L32 37ZM29 34L29.0009 33.7L28.7 33.6991V34H29ZM29 36V36.3H29.3V36H29ZM27 36H26.7V36.3H27V36ZM27 34H27.3V33.7H27V34ZM25 34V33.7H24.7V34H25ZM25 36V36.3H25.3V36H25ZM23 36H22.7V36.3H23V36ZM23 34H23.3V33.7H23V34ZM21 34V33.7H20.7V34H21ZM21 36V36.3H21.3V36H21ZM19 36H18.7V36.3H19V36ZM19 34H19.3V33.6991L18.9991 33.7L19 34ZM40 27V26.7H39.7V27H40ZM52 27H52.3V26.7H52V27ZM40 29H39.7V29.3H40V29ZM52 29V29.3H52.3V29H52ZM52 31H52.3V30.7H52V31ZM40 31V30.7H39.7V31H40ZM52 33V33.3H52.3V33H52ZM40 33H39.7V33.3H40V33ZM40.3 23.3H53V22.7H40.3V23.3ZM37.5683 20.3411C38.6356 21.0187 39.4887 21.9851 40.0287 23.1282L40.5713 22.8718C39.9827 21.6262 39.053 20.573 37.8899 19.8346L37.5683 20.3411ZM33.9994 19.3C35.2636 19.3025 36.5011 19.6635 37.5683 20.3411L37.8899 19.8346C36.7269 19.0961 35.3783 18.7027 34.0006 18.7L33.9994 19.3ZM14 19.3H34V18.7H14V19.3ZM9.26472 21.2647C10.5208 20.0086 12.2239 19.302 14.0003 19.3L13.9997 18.7C12.0643 18.7022 10.2089 19.472 8.84046 20.8405L9.26472 21.2647ZM7.3 26.0003C7.30203 24.2239 8.0086 22.5208 9.26472 21.2647L8.84046 20.8405C7.47199 22.2089 6.70221 24.0643 6.7 25.9997L7.3 26.0003ZM7.3 47.3V26H6.7V47.3H7.3ZM5.82021 48.8703C6.09507 48.3005 6.55676 47.842 7.12847 47.5711L6.87153 47.0289C6.17595 47.3585 5.61421 47.9164 5.27979 48.6097L5.82021 48.8703ZM1.28245 58.7156L5.82245 48.8656L5.27755 48.6144L0.737548 58.4644L1.28245 58.7156ZM0.299999 63.1906C0.303204 61.6456 0.638322 60.1193 1.28267 58.7151L0.737335 58.4649C0.0571453 59.9472 -0.296616 61.5584 -0.299999 63.1894L0.299999 63.1906ZM0.3 79V63.19H-0.3V79H0.3ZM2 78.7H0V79.3H2V78.7ZM1.7 63.19V79H2.3V63.19H1.7ZM2.55755 59.3044C1.99597 60.5227 1.70349 61.8477 1.7 63.1892L2.3 63.1908C2.30326 61.9355 2.57695 60.6956 3.10245 59.5556L2.55755 59.3044ZM6.72753 50.2545L2.55753 59.3045L3.10247 59.5555L7.27247 50.5055L6.72753 50.2545ZM7.3 64V50.38H6.7V64H7.3ZM8.15167 67.2633C7.59278 66.2665 7.2995 65.1429 7.3 64.0001L6.7 63.9999C6.69946 65.2455 7.01913 66.4703 7.62833 67.5567L8.15167 67.2633ZM8.40741 67.5794C8.30086 67.5064 8.21658 67.4054 8.16387 67.2876L7.61613 67.5324C7.71401 67.7514 7.87054 67.939 8.0684 68.0745L8.40741 67.5794ZM8.76756 67.701C8.6386 67.6944 8.51395 67.6524 8.40741 67.5794L8.0684 68.0745C8.26627 68.21 8.49776 68.2881 8.73727 68.3002L8.76756 67.701ZM9.13814 67.6164C9.02478 67.6782 8.89653 67.7075 8.76756 67.701L8.73727 68.3002C8.97677 68.3123 9.21496 68.2579 9.42549 68.1431L9.13814 67.6164ZM9.40987 67.3506C9.34555 67.4625 9.25151 67.5545 9.13814 67.6164L9.42549 68.1431C9.63601 68.0282 9.81066 67.8574 9.93013 67.6494L9.40987 67.3506ZM13.9102 59.5599L9.41023 67.3499L9.92977 67.6501L14.4298 59.8601L13.9102 59.5599ZM14.4974 58.8826C14.2586 59.0681 14.0587 59.2989 13.9092 59.5617L14.4308 59.8583C14.5413 59.6641 14.689 59.4935 14.8655 59.3564L14.4974 58.8826ZM15.3007 58.4807C15.0091 58.5605 14.7361 58.6971 14.4974 58.8826L14.8655 59.3564C15.0419 59.2193 15.2437 59.1184 15.4593 59.0593L15.3007 58.4807ZM17.047 58.7085C16.5176 58.4109 15.894 58.3289 15.3056 58.4794L15.4544 59.0606C15.8931 58.9484 16.3582 59.0096 16.753 59.2315L17.047 58.7085ZM17.7269 59.3033C17.5424 59.0629 17.3123 58.8612 17.0497 58.71L16.7503 59.23C16.9444 59.3417 17.1145 59.4908 17.2508 59.6685L17.7269 59.3033ZM18.1244 60.111C18.0464 59.8182 17.9113 59.5437 17.7269 59.3033L17.2508 59.6685C17.3871 59.8462 17.487 60.0491 17.5446 60.2655L18.1244 60.111ZM18.1814 61.0095C18.2218 60.7092 18.2024 60.4038 18.1244 60.111L17.5446 60.2655C17.6023 60.4819 17.6166 60.7076 17.5868 60.9296L18.1814 61.0095ZM17.8892 61.861C18.0418 61.5992 18.1411 61.3098 18.1814 61.0095L17.5868 60.9296C17.5569 61.1516 17.4835 61.3655 17.3708 61.559L17.8892 61.861ZM13.3898 69.6501L17.8898 61.8601L17.3702 61.5599L12.8702 69.3499L13.3898 69.6501ZM13.3 70.0084C13.2988 69.8816 13.3305 69.7567 13.3922 69.6458L12.8678 69.3542C12.7556 69.5559 12.6978 69.7834 12.7 70.0143L13.3 70.0084ZM13.3993 70.369C13.3354 70.2595 13.3012 70.1352 13.3 70.0084L12.7 70.0143C12.7023 70.2451 12.7646 70.4714 12.8807 70.671L13.3993 70.369ZM15.5371 73.9254L13.3971 70.3654L12.8829 70.6746L15.0229 74.2346L15.5371 73.9254ZM16.3 76.6493C16.2978 75.6886 16.0339 74.7467 15.5367 73.9247L15.0233 74.2353C15.4641 74.964 15.6981 75.799 15.7 76.6507L16.3 76.6493ZM16.3 78.99V76.65H15.7V78.99H16.3ZM18 78.69H16V79.29H18V78.69ZM17.7 76.65V78.99H18.3V76.65H17.7ZM16.7427 73.2043C17.367 74.2456 17.6978 75.4364 17.7 76.6505L18.3 76.6495C18.2976 75.327 17.9373 74.0299 17.2573 72.8957L16.7427 73.2043ZM15.5128 71.1544L16.7428 73.2043L17.2572 72.8956L16.0272 70.8456L15.5128 71.1544ZM21.54 70.7H15.77V71.3H21.54V70.7ZM22.2002 73.8907C21.7112 73.0381 21.5781 72.027 21.83 71.0769L21.25 70.9231C20.9577 72.026 21.1121 73.1996 21.6798 74.1893L22.2002 73.8907ZM25.3499 79.3501L22.1999 73.8901L21.6801 74.1899L24.8301 79.6499L25.3499 79.3501ZM26.6699 78.2403L24.9399 79.2403L25.2401 79.7597L26.9701 78.7597L26.6699 78.2403ZM23.4101 73.1899L26.5601 78.6499L27.0799 78.3501L23.9299 72.8901L23.4101 73.1899ZM23.0883 72.3403C23.1387 72.6464 23.2504 72.9392 23.4168 73.2009L23.9232 72.8791C23.8002 72.6856 23.7176 72.4692 23.6804 72.243L23.0883 72.3403ZM23.1239 71.4199C23.0501 71.7211 23.038 72.0343 23.0883 72.3403L23.6804 72.243C23.6432 72.0167 23.6521 71.7853 23.7066 71.5626L23.1239 71.4199ZM23.5178 70.5871C23.3317 70.8353 23.1977 71.1186 23.1239 71.4199L23.7066 71.5626C23.7612 71.3399 23.8602 71.1305 23.9978 70.9471L23.5178 70.5871ZM24.2068 69.9758C23.9382 70.131 23.7039 70.339 23.5178 70.5871L23.9978 70.9471C24.1353 70.7637 24.3086 70.61 24.5071 70.4952L24.2068 69.9758ZM25.0805 69.6838C24.7726 69.7212 24.4754 69.8205 24.2068 69.9758L24.5071 70.4952C24.7056 70.3805 24.9252 70.3071 25.1528 70.2795L25.0805 69.6838ZM25.9987 69.7581C25.7007 69.6717 25.3884 69.6464 25.0805 69.6838L25.1528 70.2795C25.3804 70.2518 25.6113 70.2705 25.8315 70.3344L25.9987 69.7581ZM26.814 70.1867C26.5739 69.9903 26.2966 69.8446 25.9987 69.7581L25.8315 70.3344C26.0517 70.3982 26.2567 70.506 26.4342 70.6512L26.814 70.1867ZM27.3958 70.9009C27.252 70.6261 27.0541 70.3831 26.814 70.1867L26.4342 70.6512C26.6116 70.7963 26.7579 70.9759 26.8642 71.1791L27.3958 70.9009ZM29.3897 74.3499L27.3897 70.8899L26.8703 71.1901L28.8703 74.6501L29.3897 74.3499ZM29.7294 74.6525C29.5864 74.5926 29.4674 74.4869 29.391 74.3521L28.869 74.6479C29.0109 74.8983 29.2319 75.0946 29.4974 75.2059L29.7294 74.6525ZM30.1808 74.6832C30.0311 74.7233 29.8723 74.7125 29.7294 74.6525L29.4974 75.2059C29.7628 75.3172 30.0577 75.3372 30.3358 75.2629L30.1808 74.6832ZM30.5567 74.4313C30.4628 74.5546 30.3306 74.6432 30.1808 74.6832L30.3358 75.2629C30.6139 75.1885 30.8594 75.024 31.0339 74.795L30.5567 74.4313ZM30.7 74.0021C30.7011 74.1571 30.6507 74.3081 30.5567 74.4313L31.0339 74.795C31.2084 74.5661 31.302 74.2857 31.3 73.9979L30.7 74.0021ZM30.7 55V74H31.3V55H30.7ZM31.3737 53.3737C30.9423 53.805 30.7 54.39 30.7 55H31.3C31.3 54.5491 31.4791 54.1167 31.7979 53.7979L31.3737 53.3737ZM33 52.7C32.39 52.7 31.805 52.9423 31.3737 53.3737L31.7979 53.7979C32.1167 53.4791 32.5491 53.3 33 53.3V52.7ZM34.6263 53.3737C34.195 52.9423 33.61 52.7 33 52.7V53.3C33.4509 53.3 33.8833 53.4791 34.2021 53.7979L34.6263 53.3737ZM35.3 55C35.3 54.39 35.0577 53.805 34.6263 53.3737L34.2021 53.7979C34.5209 54.1167 34.7 54.5491 34.7 55H35.3ZM35.3 71V55H34.7V71H35.3ZM35.505 71.495C35.3737 71.3637 35.3 71.1857 35.3 71H34.7C34.7 71.3448 34.837 71.6754 35.0808 71.9192L35.505 71.495ZM36 71.7C35.8143 71.7 35.6363 71.6263 35.505 71.495L35.0808 71.9192C35.3246 72.163 35.6552 72.3 36 72.3V71.7ZM36.495 71.495C36.3637 71.6263 36.1857 71.7 36 71.7V72.3C36.3448 72.3 36.6754 72.163 36.9192 71.9192L36.495 71.495ZM36.7 71C36.7 71.1857 36.6263 71.3637 36.495 71.495L36.9192 71.9192C37.163 71.6754 37.3 71.3448 37.3 71H36.7ZM36.7 67V71H37.3V67H36.7ZM37.3737 65.3737C36.9423 65.805 36.7 66.39 36.7 67H37.3C37.3 66.5491 37.4791 66.1167 37.7979 65.7979L37.3737 65.3737ZM39 64.7C38.39 64.7 37.805 64.9423 37.3737 65.3737L37.7979 65.7979C38.1167 65.4791 38.5491 65.3 39 65.3V64.7ZM40.6263 65.3737C40.195 64.9423 39.61 64.7 39 64.7V65.3C39.4509 65.3 39.8833 65.4791 40.2021 65.7979L40.6263 65.3737ZM41.3 67C41.3 66.39 41.0577 65.805 40.6263 65.3737L40.2021 65.7979C40.5209 66.1167 40.7 66.5491 40.7 67H41.3ZM41.3 71V67H40.7V71H41.3ZM41.505 71.495C41.3737 71.3637 41.3 71.1857 41.3 71H40.7C40.7 71.3448 40.837 71.6754 41.0808 71.9192L41.505 71.495ZM42 71.7C41.8143 71.7 41.6363 71.6263 41.505 71.495L41.0808 71.9192C41.3246 72.163 41.6552 72.3 42 72.3V71.7ZM42.495 71.495C42.3637 71.6263 42.1857 71.7 42 71.7V72.3C42.3448 72.3 42.6754 72.163 42.9192 71.9192L42.495 71.495ZM42.7 71C42.7 71.1857 42.6263 71.3637 42.495 71.495L42.9192 71.9192C43.163 71.6754 43.3 71.3448 43.3 71H42.7ZM42.7 68V71H43.3V68H42.7ZM43.3737 66.3737C42.9423 66.805 42.7 67.39 42.7 68H43.3C43.3 67.5491 43.4791 67.1167 43.7979 66.7979L43.3737 66.3737ZM45 65.7C44.39 65.7 43.805 65.9423 43.3737 66.3737L43.7979 66.7979C44.1167 66.4791 44.5491 66.3 45 66.3V65.7ZM46.6263 66.3737C46.195 65.9423 45.61 65.7 45 65.7V66.3C45.4509 66.3 45.8833 66.4791 46.2021 66.7979L46.6263 66.3737ZM47.3 68C47.3 67.39 47.0577 66.805 46.6263 66.3737L46.2021 66.7979C46.5209 67.1167 46.7 67.5491 46.7 68H47.3ZM47.3 71V68H46.7V71H47.3ZM47.505 71.495C47.3737 71.3637 47.3 71.1857 47.3 71H46.7C46.7 71.3448 46.837 71.6754 47.0808 71.9192L47.505 71.495ZM48 71.7C47.8143 71.7 47.6363 71.6263 47.505 71.495L47.0808 71.9192C47.3246 72.163 47.6552 72.3 48 72.3V71.7ZM48.495 71.495C48.3637 71.6263 48.1857 71.7 48 71.7V72.3C48.3448 72.3 48.6754 72.163 48.9192 71.9192L48.495 71.495ZM48.7 71C48.7 71.1857 48.6263 71.3637 48.495 71.495L48.9192 71.9192C49.163 71.6754 49.3 71.3448 49.3 71H48.7ZM48.7 69V71H49.3V69H48.7ZM49.3737 67.3737C48.9423 67.805 48.7 68.39 48.7 69H49.3C49.3 68.5491 49.4791 68.1167 49.7979 67.7979L49.3737 67.3737ZM51 66.7C50.39 66.7 49.805 66.9423 49.3737 67.3737L49.7979 67.7979C50.1167 67.4791 50.5491 67.3 51 67.3V66.7ZM52.6263 67.3737C52.195 66.9423 51.61 66.7 51 66.7V67.3C51.4509 67.3 51.8833 67.4791 52.2021 67.7979L52.6263 67.3737ZM53.3 69C53.3 68.39 53.0577 67.805 52.6263 67.3737L52.2021 67.7979C52.5209 68.1167 52.7 68.5491 52.7 69H53.3ZM53.3 79V69H52.7V79H53.3ZM55 78.7H53V79.3H55V78.7ZM54.7 69V79H55.3V69H54.7ZM53.6163 66.3837C54.3102 67.0776 54.7 68.0187 54.7 69H55.3C55.3 67.8596 54.847 66.7658 54.0406 65.9594L53.6163 66.3837ZM51 65.3C51.9813 65.3 52.9224 65.6898 53.6163 66.3837L54.0406 65.9594C53.2342 65.153 52.1404 64.7 51 64.7V65.3ZM48.6245 66.1684C49.2867 65.6046 50.129 65.2965 50.9988 65.3L51.0012 64.7C49.9881 64.6959 49.007 65.0548 48.2355 65.7116L48.6245 66.1684ZM46.8219 64.781C47.3778 65.0954 47.8432 65.548 48.1731 66.0949L48.6869 65.7851C48.3037 65.1497 47.7631 64.624 47.1173 64.2587L46.8219 64.781ZM44.9996 64.3C45.6383 64.3009 46.266 64.4666 46.8219 64.781L47.1173 64.2587C46.4715 63.8935 45.7424 63.701 45.0004 63.7L44.9996 64.3ZM42.6245 65.1684C43.2867 64.6046 44.129 64.2965 44.9988 64.3L45.0012 63.7C43.9881 63.6959 43.007 64.0548 42.2355 64.7116L42.6245 65.1684ZM40.8504 63.8001C41.3939 64.1127 41.8491 64.5583 42.1732 65.0951L42.6868 64.7849C42.3102 64.1611 41.7812 63.6433 41.1496 63.2799L40.8504 63.8001ZM40.7 37V63.54H41.3V37H40.7ZM43 36.7H41V37.3H43V36.7ZM43.3 40V37H42.7V40H43.3ZM43.4173 40.3877C43.3403 40.2735 43.2995 40.1388 43.3 40.0011L42.7 39.9989C42.699 40.2568 42.7756 40.5091 42.9197 40.723L43.4173 40.3877ZM43.7315 40.6415C43.6037 40.5903 43.4942 40.5019 43.4173 40.3877L42.9197 40.723C43.0639 40.9369 43.269 41.1026 43.5085 41.1985L43.7315 40.6415ZM43.9921 40.7001C43.9079 40.7023 43.8243 40.6847 43.7481 40.6487L43.4919 41.1913C43.653 41.2674 43.8298 41.3046 44.0079 41.2999L43.9921 40.7001ZM44.4993 40.4964C44.3666 40.6274 44.1874 40.7005 44.0009 40.7L43.9991 41.3C44.3439 41.301 44.6752 41.1657 44.9207 40.9236L44.4993 40.4964ZM48.1976 36.7882L44.4976 40.4982L44.9224 40.9218L48.6224 37.2118L48.1976 36.7882ZM53 36.7H48.41V37.3H53V36.7ZM54.9066 35.9066C54.4005 36.4126 53.7148 36.6979 52.9991 36.7L53.0009 37.3C53.8751 37.2974 54.7127 36.949 55.3308 36.3308L54.9066 35.9066ZM55.7 33.9991C55.6979 34.7148 55.4126 35.4005 54.9066 35.9066L55.3308 36.3308C55.949 35.7127 56.2974 34.8751 56.3 34.0009L55.7 33.9991ZM55.7 26V34H56.3V26H55.7ZM54.9066 24.0934C55.4126 24.5995 55.6979 25.2852 55.7 26.0009L56.3 25.9991C56.2974 25.1249 55.949 24.2873 55.3308 23.6692L54.9066 24.0934ZM52.9991 23.3C53.7148 23.3021 54.4005 23.5874 54.9066 24.0934L55.3308 23.6692C54.7127 23.051 53.8751 22.7026 53.0009 22.7L52.9991 23.3ZM37.1507 63.7994C37.7125 63.4729 38.3506 63.3007 39.0003 63.3L38.9997 62.7C38.2443 62.7008 37.5024 62.9011 36.8493 63.2806L37.1507 63.7994ZM36.7 55V63.54H37.3V55H36.7ZM35.6163 52.3837C36.3102 53.0776 36.7 54.0187 36.7 55H37.3C37.3 53.8596 36.847 52.7658 36.0406 51.9594L35.6163 52.3837ZM33 51.3C33.9813 51.3 34.9224 51.6898 35.6163 52.3837L36.0406 51.9594C35.2342 51.153 34.1404 50.7 33 50.7V51.3ZM30.3837 52.3837C31.0776 51.6898 32.0187 51.3 33 51.3V50.7C31.8596 50.7 30.7658 51.153 29.9594 51.9594L30.3837 52.3837ZM29.3 55C29.3 54.0187 29.6898 53.0776 30.3837 52.3837L29.9594 51.9594C29.153 52.7658 28.7 53.8596 28.7 55H29.3ZM29.3 69V55H28.7V69H29.3ZM27.98 69.3H29V68.7H27.98V69.3ZM25.7298 68.3612C26.4879 68.4324 27.2056 68.7352 27.7856 69.2285L28.1744 68.7715C27.5005 68.1983 26.6666 67.8465 25.7859 67.7638L25.7298 68.3612ZM23.5484 68.8307C24.2101 68.454 24.9717 68.29 25.7298 68.3612L25.7859 67.7638C24.9051 67.6811 24.0203 67.8716 23.2516 68.3093L23.5484 68.8307ZM23.0069 69.2264C23.1778 69.0777 23.3613 68.944 23.5552 68.8267L23.2448 68.3133C23.0214 68.4483 22.8101 68.6023 22.6131 68.7736L23.0069 69.2264ZM15.73 69.3H22.81V68.7H15.73V69.3ZM19.1103 62.5597L15.4703 68.8497L15.9897 69.1503L19.6297 62.8603L19.1103 62.5597ZM19.6027 60.4653C19.6497 61.1967 19.4784 61.9255 19.1105 62.5594L19.6295 62.8606C20.057 62.1239 20.2561 61.2768 20.2015 60.4268L19.6027 60.4653ZM18.8468 58.4513C19.2927 59.0329 19.5558 59.7339 19.6027 60.4653L20.2015 60.4268C20.1469 59.5768 19.8411 58.7622 19.3229 58.0862L18.8468 58.4513ZM17.0982 57.1982C17.7923 57.4335 18.4009 57.8696 18.8468 58.4513L19.3229 58.0862C18.8047 57.4102 18.0974 56.9034 17.2908 56.63L17.0982 57.1982ZM14.948 57.1297C15.6557 56.9391 16.404 56.9629 17.0982 57.1982L17.2908 56.63C16.4841 56.3565 15.6144 56.3288 14.792 56.5503L14.948 57.1297ZM13.649 57.7672C14.0346 57.4705 14.4757 57.2539 14.9463 57.1301L14.7937 56.5499C14.2457 56.6939 13.7321 56.9462 13.2831 57.2917L13.649 57.7672ZM12.7009 58.858C12.941 58.4348 13.2634 58.064 13.649 57.7672L13.2831 57.2917C12.834 57.6373 12.4587 58.0691 12.1791 58.562L12.7009 58.858ZM9.29982 64.75L12.6998 58.86L12.1802 58.56L8.78018 64.45L9.29982 64.75ZM8.70001 63.9976C8.69827 64.2132 8.71263 64.4287 8.74299 64.6422L9.33701 64.5578C9.31087 64.3738 9.29849 64.1882 9.29999 64.0024L8.70001 63.9976ZM8.7 26V64H9.3V26H8.7ZM10.2523 22.2523C9.25839 23.2463 8.7 24.5944 8.7 26H9.3C9.3 24.7535 9.79518 23.558 10.6766 22.6766L10.2523 22.2523ZM14 20.7C12.5944 20.7 11.2463 21.2584 10.2523 22.2523L10.6766 22.6766C11.558 21.7952 12.7535 21.3 14 21.3V20.7ZM34 20.7H14V21.3H34V20.7ZM36.4536 21.3054C35.6967 20.9085 34.8549 20.7008 34.0003 20.7L33.9997 21.3C34.7575 21.3007 35.5038 21.4849 36.1749 21.8368L36.4536 21.3054ZM38.3466 22.9792C37.86 22.2766 37.2105 21.7023 36.4536 21.3054L36.1749 21.8368C36.846 22.1887 37.4219 22.6979 37.8534 23.3208L38.3466 22.9792ZM36.8263 24.4102C37.1661 23.9491 37.6436 23.608 38.19 23.4362L38.01 22.8638C37.3422 23.0738 36.7585 23.4907 36.3433 24.0543L36.8263 24.4102ZM36.3 26.0012C36.3023 25.4285 36.4866 24.8713 36.8263 24.4102L36.3433 24.0543C35.928 24.6178 35.7028 25.2988 35.7 25.9988L36.3 26.0012ZM36.3 34V26H35.7V34H36.3ZM37.0934 35.9066C36.5874 35.4005 36.3021 34.7148 36.3 33.9991L35.7 34.0009C35.7026 34.8751 36.051 35.7127 36.6692 36.3308L37.0934 35.9066ZM39.0009 36.7C38.2852 36.6979 37.5995 36.4126 37.0934 35.9066L36.6692 36.3308C37.2873 36.949 38.1249 37.2974 38.9991 37.3L39.0009 36.7ZM39.3 63V37H38.7V63H39.3ZM53.9192 34.9192C54.163 34.6754 54.3 34.3448 54.3 34H53.7C53.7 34.1857 53.6263 34.3637 53.495 34.495L53.9192 34.9192ZM53 35.3C53.3448 35.3 53.6754 35.163 53.9192 34.9192L53.495 34.495C53.3637 34.6263 53.1856 34.7 53 34.7V35.3ZM48 35.3H53V34.7H48V35.3ZM47.4984 35.5058C47.6337 35.3751 47.8141 35.3014 48.0022 35.3L47.9978 34.7C47.6557 34.7026 47.3276 34.8365 47.0816 35.0742L47.4984 35.5058ZM45.2126 37.8017L47.5026 35.5017L47.0774 35.0783L44.7874 37.3783L45.2126 37.8017ZM44.7 36V37.59H45.3V36H44.7ZM44.495 35.505C44.6263 35.6363 44.7 35.8143 44.7 36H45.3C45.3 35.6552 45.163 35.3246 44.9192 35.0808L44.495 35.505ZM44 35.3C44.1856 35.3 44.3637 35.3737 44.495 35.505L44.9192 35.0808C44.6754 34.837 44.3448 34.7 44 34.7V35.3ZM39 35.3H44V34.7H39V35.3ZM38.0808 34.9192C38.3246 35.163 38.6552 35.3 39 35.3V34.7C38.8144 34.7 38.6363 34.6263 38.505 34.495L38.0808 34.9192ZM37.7 34C37.7 34.3448 37.837 34.6754 38.0808 34.9192L38.505 34.495C38.3737 34.3637 38.3 34.1857 38.3 34H37.7ZM37.7 26V34H38.3V26H37.7ZM38.0808 25.0808C37.837 25.3246 37.7 25.6552 37.7 26H38.3C38.3 25.8143 38.3737 25.6363 38.505 25.505L38.0808 25.0808ZM39 24.7C38.6552 24.7 38.3246 24.837 38.0808 25.0808L38.505 25.505C38.6363 25.3737 38.8144 25.3 39 25.3V24.7ZM53 24.7H39V25.3H53V24.7ZM53.9192 25.0808C53.6754 24.837 53.3448 24.7 53 24.7V25.3C53.1856 25.3 53.3637 25.3737 53.495 25.505L53.9192 25.0808ZM54.3 26C54.3 25.6552 54.163 25.3246 53.9192 25.0808L53.495 25.505C53.6263 25.6363 53.7 25.8143 53.7 26H54.3ZM54.3 34V26H53.7V34H54.3ZM27 22.7H21V23.3H27V22.7ZM27.3 25V23H26.7V25H27.3ZM21 25.3H27V24.7H21V25.3ZM20.7 23V25H21.3V23H20.7ZM25 64.7H23V65.3H25V64.7ZM25.3 67V65H24.7V67H25.3ZM23 67.3H25V66.7H23V67.3ZM22.7 65V67H23.3V65H22.7ZM33 40.3C33.3448 40.3 33.6754 40.163 33.9192 39.9192L33.495 39.495C33.3637 39.6263 33.1856 39.7 33 39.7V40.3ZM32 40.3H33V39.7H32V40.3ZM32.3 42V40H31.7V42H32.3ZM33 41.7H32V42.3H33V41.7ZM33.9192 42.0808C33.6754 41.837 33.3448 41.7 33 41.7V42.3C33.1856 42.3 33.3637 42.3737 33.495 42.505L33.9192 42.0808ZM34.3 43C34.3 42.6552 34.163 42.3246 33.9192 42.0808L33.495 42.505C33.6263 42.6363 33.7 42.8143 33.7 43H34.3ZM34.3 46V43H33.7V46H34.3ZM33.6246 47.6246C34.0554 47.1938 34.2982 46.6101 34.3 46.0009L33.7 45.9991C33.6987 46.4498 33.519 46.8816 33.2003 47.2003L33.6246 47.6246ZM32.0009 48.3C32.6101 48.2982 33.1938 48.0554 33.6246 47.6246L33.2003 47.2003C32.8816 47.519 32.4498 47.6987 31.9991 47.7L32.0009 48.3ZM16 48.3H32V47.7H16V48.3ZM14.3754 47.6246C14.8062 48.0554 15.3899 48.2982 15.9991 48.3L16.0009 47.7C15.5502 47.6987 15.1184 47.519 14.7997 47.2003L14.3754 47.6246ZM13.7 46.0009C13.7018 46.6101 13.9446 47.1938 14.3754 47.6246L14.7997 47.2003C14.481 46.8816 14.3013 46.4498 14.3 45.9991L13.7 46.0009ZM13.7 43V46H14.3V43H13.7ZM14.0808 42.0808C13.837 42.3246 13.7 42.6552 13.7 43H14.3C14.3 42.8143 14.3737 42.6363 14.505 42.505L14.0808 42.0808ZM15 41.7C14.6552 41.7 14.3246 41.837 14.0808 42.0808L14.505 42.505C14.6363 42.3737 14.8143 42.3 15 42.3V41.7ZM16 41.7H15V42.3H16V41.7ZM15.7 40V42H16.3V40H15.7ZM15 40.3H16V39.7H15V40.3ZM14.0808 39.9192C14.3246 40.163 14.6552 40.3 15 40.3V39.7C14.8143 39.7 14.6363 39.6263 14.505 39.495L14.0808 39.9192ZM13.7 39C13.7 39.3448 13.837 39.6754 14.0808 39.9192L14.505 39.495C14.3737 39.3637 14.3 39.1857 14.3 39H13.7ZM13.7 37V39H14.3V37H13.7ZM15.2523 33.2523C14.2584 34.2463 13.7 35.5944 13.7 37H14.3C14.3 35.7535 14.7952 34.558 15.6766 33.6766L15.2523 33.2523ZM19 31.7C17.5944 31.7 16.2463 32.2584 15.2523 33.2523L15.6766 33.6766C16.558 32.7952 17.7535 32.3 19 32.3V31.7ZM29 31.7H19V32.3H29V31.7ZM32.7477 33.2523C31.7537 32.2584 30.4056 31.7 29 31.7V32.3C30.2465 32.3 31.442 32.7952 32.3234 33.6766L32.7477 33.2523ZM34.3 37C34.3 35.5944 33.7416 34.2463 32.7477 33.2523L32.3234 33.6766C33.2048 34.558 33.7 35.7535 33.7 37H34.3ZM34.3 39V37H33.7V39H34.3ZM33.9192 39.9192C34.163 39.6754 34.3 39.3448 34.3 39H33.7C33.7 39.1857 33.6263 39.3637 33.495 39.495L33.9192 39.9192ZM32 45.7H16V46.3H32V45.7ZM31.7 44V46H32.3V44H31.7ZM16 44.3H32V43.7H16V44.3ZM16.3 46V44H15.7V46H16.3ZM18.3 42V40H17.7V42H18.3ZM30 41.7H18V42.3H30V41.7ZM29.7 40V42H30.3V40H29.7ZM18 40.3H30V39.7H18V40.3ZM16.3 38V37H15.7V38H16.3ZM32 37.7H16V38.3H32V37.7ZM31.7 37V38H32.3V37H31.7ZM30.9066 35.0934C31.4126 35.5995 31.6979 36.2852 31.7 37.0009L32.3 36.9991C32.2974 36.1249 31.949 35.2873 31.3308 34.6692L30.9066 35.0934ZM28.9991 34.3C29.7148 34.3021 30.4005 34.5874 30.9066 35.0934L31.3308 34.6692C30.7127 34.051 29.8751 33.7026 29.0009 33.7L28.9991 34.3ZM29.3 36V34H28.7V36H29.3ZM27 36.3H29V35.7H27V36.3ZM26.7 34V36H27.3V34H26.7ZM25 34.3H27V33.7H25V34.3ZM25.3 36V34H24.7V36H25.3ZM23 36.3H25V35.7H23V36.3ZM22.7 34V36H23.3V34H22.7ZM21 34.3H23V33.7H21V34.3ZM21.3 36V34H20.7V36H21.3ZM19 36.3H21V35.7H19V36.3ZM18.7 34V36H19.3V34H18.7ZM17.0934 35.0934C17.5995 34.5874 18.2852 34.3021 19.0009 34.3L18.9991 33.7C18.1249 33.7026 17.2873 34.051 16.6692 34.6692L17.0934 35.0934ZM16.3 37.0009C16.3021 36.2852 16.5874 35.5995 17.0934 35.0934L16.6692 34.6692C16.051 35.2873 15.7026 36.1249 15.7 36.9991L16.3 37.0009ZM40 27.3H52V26.7H40V27.3ZM40.3 29V27H39.7V29H40.3ZM52 28.7H40V29.3H52V28.7ZM51.7 27V29H52.3V27H51.7ZM52 30.7H40V31.3H52V30.7ZM52.3 33V31H51.7V33H52.3ZM40 33.3H52V32.7H40V33.3ZM39.7 31V33H40.3V31H39.7Z" fill="#E93A2F" mask="url(#path-1-inside-1)"/>
</svg>
