<svg width="40" height="40" viewBox="0 0 40 40" fill="none" xmlns="http://www.w3.org/2000/svg">
<rect width="40" height="40" fill="#E93A2F"/>
<path d="M28.5714 14.6161H26.05L22.6929 10.2779C22.6328 10.2001 22.5592 10.1358 22.4761 10.0887C22.3929 10.0416 22.302 10.0125 22.2085 10.0033C22.0196 9.9845 21.8316 10.0473 21.6857 10.1779C21.5398 10.3084 21.4481 10.4961 21.4307 10.6994C21.4133 10.9028 21.4716 11.1054 21.5929 11.2624L24.1929 14.6161H15.8071L18.4071 11.2624C18.4672 11.1847 18.5124 11.0949 18.5402 10.9983C18.568 10.9017 18.5779 10.8002 18.5693 10.6994C18.5607 10.5987 18.5337 10.5008 18.49 10.4113C18.4462 10.3219 18.3865 10.2425 18.3143 10.1779C18.2421 10.1132 18.1587 10.0645 18.069 10.0346C17.9793 10.0046 17.885 9.99397 17.7915 10.0033C17.698 10.0125 17.6071 10.0416 17.524 10.0887C17.4408 10.1358 17.3672 10.2001 17.3071 10.2779L13.95 14.6161H11.4286C11.0497 14.6161 10.6863 14.7782 10.4184 15.0667C10.1505 15.3552 10 15.7465 10 16.1545V17.6929C10.0008 17.9769 10.0746 18.2552 10.2133 18.4969C10.352 18.7386 10.5501 18.9342 10.7857 19.062L11.0286 20.885C11.056 21.089 11.1576 21.2729 11.311 21.3962C11.4644 21.5196 11.657 21.5722 11.8464 21.5427C12.0359 21.5131 12.2066 21.4037 12.3212 21.2385C12.4357 21.0733 12.4846 20.8659 12.4571 20.6619L12.25 19.2312H27.75L26.6143 27.8C26.59 27.9848 26.5042 28.1538 26.3728 28.2755C26.2414 28.3973 26.0733 28.4633 25.9 28.4615H24.2857C24.0963 28.4615 23.9146 28.5425 23.7806 28.6868C23.6467 28.8311 23.5714 29.0267 23.5714 29.2307C23.5714 29.4347 23.6467 29.6303 23.7806 29.7746C23.9146 29.9188 24.0963 29.9999 24.2857 29.9999H25.9071C26.4271 30.0054 26.9312 29.8071 27.3255 29.442C27.7197 29.0769 27.9772 28.5698 28.05 28.0154L29.2143 19.062C29.4499 18.9342 29.648 18.7386 29.7867 18.4969C29.9254 18.2552 29.9992 17.9769 30 17.6929V16.1545C30 15.7465 29.8495 15.3552 29.5816 15.0667C29.3137 14.7782 28.9503 14.6161 28.5714 14.6161ZM11.4286 17.6929V16.1545H28.5714V17.6929H11.4286ZM22.8571 29.2307C22.8571 29.4347 22.7819 29.6303 22.6479 29.7746C22.514 29.9188 22.3323 29.9999 22.1429 29.9999H14.0929C13.5729 30.0054 13.0688 29.8071 12.6745 29.442C12.2803 29.0769 12.0228 28.5698 11.95 28.0154L11.3143 23.0772C11.2878 22.8752 11.3369 22.6702 11.4507 22.5072C11.5646 22.3442 11.7339 22.2366 11.9214 22.208C12.109 22.1795 12.2994 22.2323 12.4507 22.3549C12.6021 22.4775 12.702 22.6599 12.7286 22.8618L13.3857 27.8154C13.41 28.0002 13.4958 28.1692 13.6272 28.2909C13.7586 28.4126 13.9267 28.4787 14.1 28.4769H22.1429C22.3298 28.4769 22.5094 28.5558 22.6429 28.6967C22.7765 28.8377 22.8534 29.0294 22.8571 29.2307ZM15.7143 26.277L15 21.6619C14.985 21.5609 14.9886 21.4577 15.0106 21.3582C15.0327 21.2586 15.0727 21.1648 15.1284 21.0819C15.1841 20.9991 15.2544 20.9289 15.3354 20.8753C15.4163 20.8217 15.5062 20.7858 15.6 20.7696C15.6938 20.7535 15.7896 20.7573 15.882 20.7811C15.9744 20.8048 16.0616 20.8479 16.1385 20.9079C16.2155 20.9679 16.2807 21.0436 16.3305 21.1307C16.3802 21.2179 16.4136 21.3147 16.4286 21.4157L17.1429 26.0309C17.1591 26.132 17.1564 26.2357 17.1349 26.3357C17.1134 26.4357 17.0735 26.5301 17.0176 26.6132C16.9617 26.6964 16.8908 26.7667 16.8093 26.8199C16.7278 26.8731 16.6372 26.9082 16.5429 26.9231H16.4286C16.2574 26.9255 16.0911 26.8616 15.96 26.743C15.8289 26.6244 15.7417 26.459 15.7143 26.277ZM20 26.9231C19.8106 26.9231 19.6289 26.8421 19.4949 26.6978C19.361 26.5536 19.2857 26.3579 19.2857 26.1539V21.5388C19.2857 21.3348 19.361 21.1392 19.4949 20.9949C19.6289 20.8507 19.8106 20.7696 20 20.7696C20.1894 20.7696 20.3711 20.8507 20.5051 20.9949C20.639 21.1392 20.7143 21.3348 20.7143 21.5388V26.1539C20.7143 26.3579 20.639 26.5536 20.5051 26.6978C20.3711 26.8421 20.1894 26.9231 20 26.9231ZM23.5714 26.9231H23.4571C23.3628 26.9082 23.2722 26.8731 23.1907 26.8199C23.1092 26.7667 23.0383 26.6964 22.9824 26.6132C22.9265 26.5301 22.8866 26.4357 22.8651 26.3357C22.8436 26.2357 22.8409 26.132 22.8571 26.0309L23.5714 21.4157C23.5864 21.3147 23.6198 21.2179 23.6695 21.1307C23.7193 21.0436 23.7845 20.9679 23.8615 20.9079C23.9384 20.8479 24.0256 20.8048 24.118 20.7811C24.2104 20.7573 24.3062 20.7535 24.4 20.7696C24.4938 20.7858 24.5837 20.8217 24.6646 20.8753C24.7456 20.9289 24.8159 20.9991 24.8716 21.0819C24.9273 21.1648 24.9673 21.2586 24.9894 21.3582C25.0114 21.4577 25.015 21.5609 25 21.6619L24.2857 26.277C24.2583 26.459 24.1711 26.6244 24.04 26.743C23.9089 26.8616 23.7426 26.9255 23.5714 26.9231Z" fill="white"/>
</svg>
