<svg width="148" height="48" viewBox="0 0 148 48" fill="none" xmlns="http://www.w3.org/2000/svg">
<path d="M10.1225 1.24252H2.71322C1.95279 1.24252 1.75781 1.60649 1.75781 2.19793V22.047C1.75781 22.645 1.95279 23.0089 2.71322 23.0089H10.1225C14.0611 23.0089 19.0266 20.7601 19.0266 15.5671V8.6843C19.0266 3.5238 14.0611 1.24252 10.1225 1.24252ZM13.8336 15.0992C13.8336 17.218 12.3063 18.4074 10.1225 18.4074H6.95081V5.83758H10.1225C12.3063 5.83758 13.8336 7.06596 13.8336 9.14576V15.0992Z" fill="#222222"/>
<path d="M51.9618 24.0005C44.5643 27.3263 36.0477 27.3779 28.6349 24.1505C27.859 23.8245 27.4936 22.9256 27.8773 22.1504C28.2033 21.3745 29.1019 21.0379 29.8777 21.3639C36.5149 24.2364 44.1075 24.2036 50.7219 21.2157C50.9249 21.1313 51.1565 21.0761 51.3585 21.0783C51.9358 21.0846 52.4805 21.4369 52.7343 21.9882C53.0725 22.7424 52.716 23.6623 51.9618 24.0005Z" fill="#E93A2F"/>
<path d="M32.2994 19.0231C32.0932 19.3961 31.6587 19.5357 31.2853 19.3584C30.9409 19.1815 30.7724 18.7466 30.9785 18.3736L40.3298 0L49.683 18.5485C49.881 18.9259 49.7319 19.3573 49.3545 19.5553C48.9771 19.7532 48.5457 19.6042 48.3477 19.2267L40.3225 3.31973L32.2994 19.0231Z" fill="#E93A2F"/>
<path d="M81.6647 21.6765L77.0567 14.9757C79.0845 14.2868 81.5997 11.9015 81.5997 8.46982C81.5997 6.37703 80.9173 4.51171 79.7084 3.33532C78.3306 1.96395 76.7642 1.24252 73.2025 1.24252H64.9613C64.2074 1.24252 64.0449 1.60649 64.0449 2.19143V21.774C64.0449 22.528 64.3764 22.7229 64.9613 22.7229H68.198C68.7895 22.7229 69.1469 22.528 69.1469 21.774V5.81808H73.495C75.1914 5.81808 76.5042 6.89698 76.5042 8.59981C76.5042 10.1337 74.9964 11.2451 73.3975 11.2451H72.7411C71.9937 11.2451 71.7922 11.609 71.7922 12.194V14.8132C71.7922 15.7296 71.8572 16.0871 72.1561 16.4771L75.6853 21.7415C76.1403 22.4305 76.5367 22.7229 77.3167 22.7229H81.1773C81.8012 22.7229 81.9637 22.1315 81.6647 21.6765Z" fill="#222222"/>
<path fill-rule="evenodd" clip-rule="evenodd" d="M115.701 9.87925V14.2891L115.816 17.6967C115.816 22.1066 112.265 25.772 107.884 25.772H100.982C96.5726 25.772 92.9932 22.2498 92.9932 17.8399L93.0791 14.3464V14.3178V10.1656C93.0791 4.38123 97.6607 0 103.331 0H105.822C111.32 0 115.701 4.26669 115.701 9.87925ZM109.115 2.20493C109.344 1.97585 109.344 1.57495 109.115 1.34587C108.857 1.11678 108.485 1.11678 108.256 1.34587L105.851 3.75125C105.621 3.98034 105.621 4.38123 105.851 4.61032C105.965 4.72486 106.137 4.78213 106.28 4.78213C106.423 4.78213 106.595 4.72486 106.71 4.61032L109.115 2.20493ZM106.022 1.34587C105.793 1.11678 105.392 1.11678 105.163 1.34587L102.758 3.75125C102.529 3.98034 102.529 4.38123 102.758 4.61032C102.872 4.72486 103.044 4.78213 103.187 4.78213C103.331 4.78213 103.502 4.72486 103.617 4.61032L106.022 2.20493C106.251 1.97585 106.251 1.57495 106.022 1.34587ZM102.099 1.34587L99.6939 3.75125C99.4648 4.00897 99.4648 4.38123 99.6939 4.61032C99.8084 4.72486 99.9802 4.78213 100.123 4.78213C100.267 4.78213 100.438 4.72486 100.553 4.61032L102.958 2.20493C103.187 1.97585 103.187 1.57495 102.958 1.34587C102.729 1.11678 102.328 1.11678 102.099 1.34587ZM100.982 24.6265H107.884C111.606 24.6265 114.613 21.5625 114.642 17.8399L114.556 14.6041C114.556 10.3088 111.091 6.87252 106.824 6.87252H101.87C98.8348 6.87252 96.2003 8.64792 94.9976 11.1392C94.5681 12.1128 94.3104 13.0005 94.3104 14.1459L94.2245 17.754C94.2245 21.4766 97.2599 24.6265 100.982 24.6265ZM99.2356 15.7495C99.2356 18.6131 101.555 20.9325 104.419 20.9325C107.282 20.9325 109.602 18.5844 109.602 15.7495V15.0909C109.602 12.2273 107.282 9.90787 104.419 9.90787C101.555 9.90787 99.2356 12.2273 99.2356 15.0909V15.7495ZM100.467 15.0623C100.467 12.886 102.242 11.1106 104.419 11.1106C106.595 11.1106 108.399 12.886 108.399 15.0909V15.7495C108.399 17.9258 106.595 19.7012 104.419 19.7012C102.242 19.7012 100.467 17.9258 100.467 15.7495V15.0623Z" fill="#E93A2F"/>
<path d="M146.634 1.24252H143.436C142.338 1.24252 142.175 1.97695 141.941 2.37341L137.346 10.5626L132.79 2.37341C132.523 1.97695 132.387 1.24252 131.256 1.24252H127.961C127.201 1.24252 126.999 1.60649 126.999 2.20443V22.2095C126.999 22.9699 127.363 23.1714 127.961 23.1714H131.256C131.854 23.1714 132.225 22.9699 132.225 22.2095V10.9266L135.585 16.75C135.747 17.0165 136.014 17.4455 136.514 17.4455H138.178C138.678 17.4455 138.977 17.0165 139.146 16.75L142.474 10.9266V22.2095C142.474 22.9699 142.838 23.1714 143.436 23.1714H146.634C147.232 23.1714 147.596 22.9699 147.596 22.2095V2.20443C147.596 1.60649 147.394 1.24252 146.634 1.24252Z" fill="#222222"/>
<path d="M0.0510856 40.4392C0.198139 39.4301 0.542956 38.5579 1.08553 37.8227C1.62811 37.0874 2.37352 36.6082 3.32177 36.3851C4.06211 36.2177 4.94443 36.2786 5.96873 36.5676C6.18678 36.6437 6.3744 36.7806 6.5316 36.9784C6.68879 37.1812 6.70147 37.3992 6.56962 37.6325C6.49863 37.7643 6.40736 37.8607 6.2958 37.9215C6.18424 37.9824 6.03212 38.0306 5.83943 38.0661C5.64674 38.1016 5.51236 38.132 5.4363 38.1573C5.1929 38.2334 4.84555 38.2207 4.39424 38.1193C3.94801 38.023 3.63362 38.0052 3.45107 38.0661C2.75637 38.3095 2.28732 38.781 2.04392 39.4808C1.80052 40.1806 1.79292 40.9032 2.0211 41.6486C2.25436 42.3889 2.72341 42.9315 3.42825 43.2763C4.1331 43.6262 4.85823 43.6795 5.60364 43.4361C5.71012 43.4006 5.85464 43.3245 6.03719 43.2079C6.21974 43.0912 6.37947 42.9924 6.51638 42.9112C6.64822 42.8352 6.80288 42.7718 6.98036 42.7211C7.15784 42.6754 7.29475 42.7008 7.3911 42.7971C7.7207 43.0659 7.92354 43.327 7.9996 43.5806C8.08073 43.8341 7.98185 44.0826 7.70296 44.326C6.52146 45.1931 5.00021 45.3402 3.13922 44.7671C2.22647 44.473 1.54951 44.151 1.10835 43.8012C0.210816 43.0456 -0.141606 41.925 0.0510856 40.4392Z" fill="#222222"/>
<path d="M11.8332 36.8794L12.2135 36.9175C12.396 36.9428 12.5253 36.9859 12.6014 37.0468C12.6977 37.3358 12.9538 38.6162 13.3696 40.8879C13.7804 43.1597 13.9376 44.3868 13.8412 44.5693C13.8919 44.544 13.8108 44.5744 13.5978 44.6606C13.3848 44.7418 13.1642 44.7468 12.9361 44.6758C12.7129 44.6048 12.5938 44.5389 12.5786 44.4781C12.3504 43.038 12.0588 41.821 11.7038 40.8271C11.572 41.1516 11.4478 41.4356 11.3311 41.679C11.2145 41.9224 11.0776 42.1708 10.9204 42.4244C10.7632 42.6729 10.6516 42.8453 10.5857 42.9416C10.5147 43.038 10.355 43.2535 10.1065 43.5881C9.85807 43.9228 9.69073 44.151 9.60453 44.2727C9.44733 44.4198 9.26478 44.4806 9.05688 44.4553C8.84897 44.4299 8.66642 44.3462 8.50923 44.2042C8.25569 43.9963 8.26836 43.6363 8.54726 43.1242C8.78051 42.7084 9.08477 42.1632 9.46001 41.4888C9.83525 40.8144 10.1268 40.2921 10.3347 39.9219C10.5426 39.5518 10.786 39.0852 11.0649 38.5224C11.3438 37.9646 11.5999 37.4169 11.8332 36.8794Z" fill="#222222"/>
<path d="M16.108 37.9062C16.108 37.8555 16.0953 37.7439 16.07 37.5715C16.0446 37.4042 16.0319 37.2799 16.0319 37.1988C16.0319 37.1227 16.0446 37.0264 16.07 36.9098C16.0953 36.7931 16.1384 36.7044 16.1993 36.6435C16.3818 36.3646 16.6607 36.2176 17.036 36.2024C17.4112 36.1922 17.6723 36.3393 17.8194 36.6435C17.9918 36.9833 18.0704 37.4726 18.0552 38.1115C18.0451 38.7505 18.0577 39.2829 18.0932 39.7089C18.1084 39.7596 18.1262 39.7925 18.1465 39.8077C18.1718 39.828 18.1997 39.8331 18.2301 39.8229C18.2606 39.8077 18.2885 39.7925 18.3138 39.7773C18.3392 39.757 18.3671 39.7291 18.3975 39.6936C18.4279 39.6581 18.4482 39.6328 18.4583 39.6176C18.5192 39.4857 18.6434 39.1992 18.831 38.7581C19.0237 38.322 19.1708 38.0025 19.2722 37.7997C19.3736 37.6019 19.5308 37.3661 19.7438 37.0923C19.9568 36.8185 20.1925 36.608 20.4512 36.461C20.6185 36.4001 20.8188 36.3646 21.052 36.3545C21.2853 36.3393 21.4704 36.4103 21.6073 36.5675C21.7493 36.7297 21.7518 36.9376 21.6149 37.1912C21.4729 37.4701 21.2295 37.9062 20.8847 38.4995C20.545 39.0877 20.2813 39.5618 20.0937 39.9218C19.906 40.2819 19.7184 40.7382 19.5308 41.2909C19.3381 41.8437 19.224 42.3685 19.1885 42.8654C19.1429 43.4993 18.9223 44.265 18.5268 45.1625C18.1313 46.055 17.7078 46.7877 17.2565 47.3607C16.9168 47.7715 16.4351 47.9844 15.8114 47.9996C15.1927 48.0098 14.7668 47.7968 14.5335 47.3607C14.1076 46.5088 14.138 45.9358 14.6248 45.6417C14.8428 45.5099 15.0812 45.5251 15.3398 45.6874C15.5933 45.8547 15.7454 46.0778 15.7962 46.3567C16.0497 46.1589 16.25 45.9916 16.397 45.8547C16.5441 45.7127 16.6633 45.5454 16.7545 45.3527C16.8458 45.1549 16.9041 45.0079 16.9295 44.9115C16.9498 44.8152 16.9903 44.6047 17.0512 44.2802C17.112 43.9607 17.1627 43.7021 17.2033 43.5044C17.2743 43.1291 17.1754 42.6398 16.9067 42.0364C16.6379 41.4329 16.4934 41.0222 16.4731 40.8042C16.4325 40.4745 16.3717 39.9903 16.2906 39.3514C16.2043 38.7124 16.1435 38.2307 16.108 37.9062Z" fill="#222222"/>
<path d="M30.6055 44.6373C30.1542 44.6525 29.7181 44.5536 29.2972 44.3407C28.8814 44.1277 28.5392 43.8843 28.2704 43.6105C28.0017 43.3366 27.6797 43.0172 27.3044 42.6521C26.9241 42.287 26.5996 42.0132 26.3308 41.8306C24.8096 42.936 23.7396 43.9274 23.121 44.8046C22.9891 44.9517 22.8066 45.0354 22.5733 45.0556C22.3401 45.081 22.1322 45.0404 21.9496 44.9339C21.8431 44.8579 21.7645 44.8021 21.7138 44.7666C21.6682 44.7311 21.5997 44.6753 21.5085 44.5993C21.4172 44.5283 21.3563 44.4649 21.3259 44.4091C21.2955 44.3533 21.26 44.2925 21.2194 44.2266C21.1839 44.1606 21.1763 44.0947 21.1966 44.0288C21.2118 43.9629 21.2499 43.8919 21.3107 43.8158C21.6302 43.4659 21.9801 43.1008 22.3604 42.7205C22.7457 42.3453 23.2097 41.9143 23.7523 41.4275C24.2949 40.9407 24.6879 40.5807 24.9313 40.3474C24.7487 40.0431 24.3405 39.6045 23.7067 39.0315C23.0728 38.4636 22.6773 37.9971 22.5201 37.632C22.444 37.4241 22.51 37.2643 22.7179 37.1528C23.2554 37.0463 23.8157 37.1756 24.3988 37.5407C24.6422 37.7232 24.9313 38.0351 25.2659 38.4763C25.6006 38.9225 25.8947 39.2369 26.1483 39.4194C26.4424 39.1862 26.8328 38.8363 27.3196 38.3698C27.8064 37.8982 28.2653 37.4951 28.6964 37.1604C29.1274 36.8257 29.5939 36.5747 30.0959 36.4074C30.3241 36.3567 30.5979 36.3922 30.9174 36.5139C31.2318 36.6356 31.4574 36.8308 31.5943 37.0995C31.7262 37.3683 31.6577 37.5939 31.389 37.7765C30.9275 38.0909 30.2962 38.5802 29.495 39.2445C28.6887 39.9088 28.0422 40.3981 27.5554 40.7125C27.7278 41.1131 28.0118 41.501 28.4073 41.8762C28.8028 42.2464 29.2567 42.6267 29.7688 43.0172C30.2759 43.4026 30.6512 43.7423 30.8946 44.0364C30.9554 44.1226 30.9605 44.2418 30.9098 44.3939C30.854 44.546 30.7526 44.6272 30.6055 44.6373ZM25.9125 40.3854C25.9277 40.1522 25.9125 39.8657 25.8668 39.5259C25.8263 39.1862 25.7832 38.8895 25.7375 38.636C25.697 38.3774 25.6818 38.0985 25.6919 37.7993C25.7071 37.5052 25.7629 37.2415 25.8592 37.0083C25.9302 36.8358 26.0545 36.7091 26.2319 36.6279C26.4094 36.5417 26.5768 36.5443 26.7339 36.6356C26.8911 36.7268 26.9824 36.8992 27.0078 37.1528C27.0078 37.2035 27.0002 37.3024 26.985 37.4494C26.9647 37.5914 26.9545 37.6827 26.9545 37.7232C26.9545 37.9413 26.9571 38.2531 26.9621 38.6588C26.9672 39.0695 26.9697 39.4448 26.9697 39.7845C26.9697 40.1243 26.9647 40.4412 26.9545 40.7353C26.9292 41.0598 26.9342 41.539 26.9697 42.1729C27.0103 42.8067 27.0179 43.3671 26.9926 43.8539C26.9672 44.3407 26.8759 44.792 26.7187 45.2078C26.6325 45.4106 26.4982 45.5247 26.3156 45.5501C26.1331 45.5754 25.9632 45.5272 25.806 45.4055C25.7198 45.3447 25.6589 45.2382 25.6234 45.0861C25.5879 44.9339 25.5879 44.7844 25.6234 44.6373C25.7198 44.2266 25.7882 43.8006 25.8288 43.3595C25.8744 42.9234 25.8998 42.3757 25.9049 41.7165C25.9099 41.0624 25.9125 40.6187 25.9125 40.3854Z" fill="#222222"/>
<path d="M35.0776 43.6338C35.9193 43.938 36.3935 43.7681 36.5 43.1242C36.576 42.7489 36.4949 42.4497 36.2566 42.2266C36.0182 42.0086 35.7114 41.8767 35.3362 41.8311C35.3108 41.8311 35.2728 41.8311 35.2221 41.8311C34.6035 41.7804 34.2764 41.9553 34.2409 42.3559C34.2155 42.5993 34.2105 42.7946 34.2257 42.9416C34.246 43.0887 34.3018 43.2078 34.393 43.2991C34.4843 43.3904 34.5705 43.4512 34.6516 43.4816C34.7277 43.5121 34.8697 43.5628 35.0776 43.6338ZM37.3975 36.9555H36.865C37.3772 37.3561 37.8285 37.8556 38.219 38.4539C39.1063 39.8028 39.3624 41.2023 38.9872 42.6526C38.7641 43.4639 38.2925 44.1054 37.5724 44.5769C36.8473 45.0435 36.0284 45.2032 35.1156 45.0561C34.2282 44.9344 33.4727 44.4248 32.849 43.5273C32.6056 43.294 32.4763 42.967 32.461 42.5461C32.4408 42.1303 32.5701 41.8108 32.849 41.5877C33.0924 41.1161 33.4422 40.8068 33.8986 40.6597C34.355 40.5127 34.8443 40.4518 35.3666 40.4772C35.894 40.5025 36.3478 40.6876 36.7281 41.0324C37.1135 41.3823 37.3797 41.5674 37.5268 41.5877C37.6485 39.8991 36.6673 38.4387 34.5832 37.2065C34.2789 37.0493 34.0203 36.9175 33.8073 36.811C33.5944 36.6994 33.4701 36.631 33.4346 36.6056C33.2014 36.4738 33.1887 36.3039 33.3966 36.096C33.5082 35.9997 33.6299 35.9261 33.7617 35.8754C34.2485 35.7284 34.5046 35.6548 34.5299 35.6548C34.677 35.6548 34.9001 35.6523 35.1993 35.6472C35.4934 35.6422 35.7596 35.6396 35.9979 35.6396C36.2363 35.6396 36.4645 35.6447 36.6825 35.6548C36.9158 35.6802 37.2606 35.6726 37.7169 35.632C38.1733 35.5864 38.5739 35.5788 38.9187 35.6092C39.2686 35.6396 39.5881 35.7537 39.8771 35.9515C40.0242 36.0478 40.1104 36.2126 40.1357 36.4459C40.1611 36.6741 40.123 36.887 40.0216 37.0848C39.9861 37.1913 39.9101 37.2674 39.7934 37.313C39.6819 37.3536 39.5754 37.3485 39.474 37.2978C39.1697 37.1761 38.8629 37.0924 38.5536 37.0468C38.2443 36.9961 37.8589 36.9656 37.3975 36.9555Z" fill="#222222"/>
<path d="M44.639 45.5125C44.5426 45.4517 44.4412 45.3274 44.3347 45.1398C44.2333 44.9522 44.1395 44.8584 44.0533 44.8584C43.8809 44.833 43.6223 44.7975 43.2775 44.7519C42.9326 44.7012 42.6588 44.6555 42.456 44.615C42.2531 44.5693 42.0199 44.5034 41.7562 44.4172C41.4875 44.3361 41.2542 44.2144 41.0564 44.0521C40.8637 43.8949 40.7015 43.7022 40.5696 43.474C40.3364 43.1191 40.2451 42.683 40.2958 42.1658C40.3414 41.6485 40.486 41.2327 40.7294 40.9183C41.0083 40.538 41.3379 40.2363 41.7182 40.0132C42.0934 39.785 42.456 39.6354 42.8059 39.5644C43.1507 39.4934 43.4752 39.4529 43.7795 39.4427C44.0837 39.4377 44.3322 39.4478 44.5249 39.4732L44.8215 39.4884C44.9179 39.3667 44.966 39.1537 44.966 38.8494C44.966 38.5452 44.8748 38.3753 44.6922 38.3398C44.5097 38.2536 44.2637 38.2359 43.9544 38.2866C43.6451 38.3373 43.4245 38.3804 43.2927 38.4159C43.1659 38.4514 42.9529 38.5325 42.6537 38.6593C42.3596 38.7861 42.1314 38.8748 41.9692 38.9255C41.6548 39.0371 41.4241 38.8647 41.277 38.4083C41.13 37.9519 41.1173 37.6629 41.239 37.5412C41.7055 37.2217 42.2531 36.9834 42.8819 36.8262C43.5158 36.669 44.1471 36.6665 44.7759 36.8186C45.3996 36.9707 45.8408 37.313 46.0994 37.8454C46.2667 38.2004 46.3605 38.5934 46.3808 39.0244C46.4011 39.4554 46.3707 39.8433 46.2895 40.1881C46.2084 40.5279 46.1171 40.9386 46.0157 41.4204C45.9143 41.897 45.8509 42.3077 45.8255 42.6526C45.7292 44.184 45.5517 45.1144 45.2931 45.4441C45.1106 45.652 44.8925 45.6748 44.639 45.5125ZM44.3119 43.3067C44.3474 43.1343 44.4006 42.9213 44.4716 42.6678C44.5477 42.4142 44.606 42.2063 44.6466 42.0441C44.6871 41.8869 44.7049 41.6967 44.6998 41.4736C44.6947 41.2454 44.644 41.0172 44.5477 40.789C44.3499 40.86 44.0533 40.9285 43.6578 40.9944C43.2622 41.0654 42.9352 41.1262 42.6766 41.177C42.4129 41.2327 42.172 41.3671 41.954 41.5801C41.7359 41.7931 41.6193 42.0821 41.6041 42.4472C41.6041 42.6906 41.8272 42.9112 42.2734 43.1089C42.7197 43.3016 43.1431 43.403 43.5437 43.4132C43.9443 43.4284 44.2003 43.3929 44.3119 43.3067Z" fill="#222222"/>
<path d="M61.0145 37.3738C61.4303 37.0188 61.8766 36.7399 62.3532 36.5371C62.8248 36.3292 63.3294 36.2024 63.8669 36.1568C64.3993 36.1162 64.9039 36.2227 65.3805 36.4762C65.6746 36.6233 65.7963 36.8058 65.7456 37.0239C65.5124 37.5005 65.3399 37.9975 65.2284 38.5147C65.1118 39.0319 65.0509 39.5846 65.0458 40.1729C65.0357 40.7661 65.0433 41.2732 65.0687 41.6941C65.094 42.1099 65.1473 42.6753 65.2284 43.3903C65.3045 44.1002 65.3552 44.62 65.3805 44.9496C65.4414 45.5682 65.4236 46.0956 65.3273 46.5317C65.2309 46.9627 64.9748 47.2923 64.559 47.5205C63.839 47.9363 63.0429 47.9819 62.1707 47.6574C61.2934 47.3379 60.7204 46.7827 60.4517 45.9916C60.3553 44.1408 60.7534 42.8934 61.6458 42.2494C62.5434 41.6054 62.5535 42.2925 61.6763 44.3106C61.6611 45.0307 61.7904 45.5581 62.0642 45.8927C62.338 46.2274 62.589 46.4632 62.8172 46.6001C63.0403 46.7421 63.2989 46.7954 63.593 46.7599C63.6793 46.7345 63.7933 46.5697 63.9353 46.2655C64.0469 45.9004 64.0849 45.373 64.0494 44.6834C64.0139 43.9988 63.9683 43.4765 63.9125 43.1165C63.8567 42.7564 63.768 42.2291 63.6463 41.5344C63.6463 41.509 63.6514 41.4608 63.6615 41.3899C63.7224 41.1211 63.7122 40.9943 63.6311 41.0095L63.517 41.0628C62.7259 41.5344 62.0338 41.6485 61.4405 41.4051C61.0754 41.2631 60.728 40.8929 60.3984 40.2946C60.1652 39.7824 60.1018 39.2601 60.2083 38.7277C60.3097 38.1902 60.5784 37.7389 61.0145 37.3738ZM62.1859 37.8682C61.7498 38.2434 61.5673 38.682 61.6382 39.1841C61.7599 40.0207 61.9907 40.4391 62.3304 40.4391C62.5383 40.4543 62.7133 40.3934 62.8552 40.2565C62.9922 40.1247 63.1392 39.8838 63.2964 39.5339C63.4587 39.1891 63.5576 38.9812 63.593 38.9102C63.6995 38.7277 63.7629 38.4919 63.7832 38.2028C63.8035 37.9189 63.7578 37.6907 63.6463 37.5183C63.5753 37.3712 63.4435 37.3129 63.2508 37.3433C63.0631 37.3738 62.8781 37.4346 62.6955 37.5259C62.513 37.6172 62.3431 37.7313 62.1859 37.8682Z" fill="#222222"/>
<path d="M67.9593 42.7436C67.3508 42.3785 66.9198 41.8537 66.6662 41.1691C66.4076 40.4896 66.3822 39.7975 66.5902 39.0926C66.7017 38.687 66.9147 38.2636 67.2291 37.8224C67.5485 37.3762 67.726 37.1099 67.7615 37.0237C68.0049 36.5623 68.3725 36.3569 68.8644 36.4076C69.3563 36.4533 69.7924 36.684 70.1727 37.0998C70.5733 37.5612 70.8699 38.1571 71.0626 38.8873C71.3922 40.1195 70.9739 41.3491 69.8076 42.5763C69.6098 42.7842 69.3132 42.9008 68.9177 42.9262C68.5221 42.9465 68.2027 42.8856 67.9593 42.7436ZM68.545 40.9333C68.9608 41.0297 69.265 40.9384 69.4577 40.6595C69.6504 40.3806 69.7011 40.0206 69.6098 39.5794C69.5186 39.1433 69.3157 38.7478 69.0013 38.3929C68.8695 38.2509 68.6388 38.3675 68.3092 38.7427C67.8579 39.2397 67.6626 39.7214 67.7235 40.1879C67.7742 40.5733 68.048 40.8218 68.545 40.9333Z" fill="#222222"/>
<path d="M70.7505 40.3856C70.9483 39.2294 71.4553 38.2913 72.2717 37.5713C72.292 37.551 72.3909 37.4597 72.5684 37.2974C72.7459 37.1402 72.86 37.0414 72.9107 37.0008C72.9563 36.9552 73.0653 36.8639 73.2377 36.727C73.4051 36.585 73.5268 36.4912 73.6028 36.4455C73.6738 36.3948 73.793 36.3188 73.9603 36.2173C74.1226 36.1109 74.2519 36.0424 74.3482 36.012C74.4446 35.9816 74.5739 35.9435 74.7362 35.8979C74.8934 35.8472 75.0303 35.8218 75.1469 35.8218C75.2585 35.8218 75.3878 35.8345 75.5348 35.8599C75.6819 35.8852 75.8213 35.9283 75.9532 35.9892C76.2371 36.1109 76.3183 36.3467 76.1966 36.6965C76.085 37.0261 75.9101 37.2797 75.6717 37.4572C75.4334 37.6346 75.1317 37.7944 74.7666 37.9364C74.4015 38.0834 74.1175 38.2305 73.9147 38.3775C73.0121 39.0722 72.5354 39.8024 72.4847 40.5681C72.4391 41.2476 72.5684 41.813 72.8726 42.2643C72.9588 42.4114 73.0729 42.5356 73.2149 42.637C73.362 42.7435 73.4913 42.817 73.6028 42.8576C73.7093 42.9032 73.8741 42.959 74.0972 43.0249C74.3153 43.0908 74.4674 43.1416 74.5536 43.1771C74.8325 43.2886 75.1114 43.2658 75.3903 43.1086C75.6692 42.9463 75.9481 42.7562 76.227 42.5381C76.5109 42.3201 76.7543 42.206 76.9572 42.1958C77.1397 42.1806 77.2665 42.2288 77.3375 42.3404C77.4034 42.4469 77.4186 42.5863 77.3831 42.7587C77.3426 42.9311 77.2969 43.0858 77.2462 43.2227C77.1904 43.3647 77.1321 43.4838 77.0713 43.5802C76.3512 44.6755 75.0125 44.9442 73.0552 44.3864C72.2134 44.143 71.5821 43.6436 71.1612 42.888C70.7454 42.1325 70.6085 41.2983 70.7505 40.3856Z" fill="#222222"/>
<path d="M77.6199 39.7316C77.5438 39.0217 77.6224 38.4335 77.8556 37.9669C78.0889 37.5004 78.4971 37.3635 79.0802 37.5562C79.2882 37.6272 79.4225 37.7641 79.4834 37.9669C79.5442 38.1698 79.5468 38.3878 79.491 38.6211C79.4352 38.8594 79.4048 39.1079 79.3997 39.3665C79.3946 39.62 79.4403 39.833 79.5366 40.0054C79.704 39.833 79.8738 39.5845 80.0462 39.26C80.2186 38.9405 80.3606 38.6515 80.4722 38.3929C80.5888 38.1393 80.7409 37.8858 80.9286 37.6323C81.1213 37.3737 81.3165 37.2241 81.5142 37.1835C81.7171 37.1379 81.9934 37.1708 82.3433 37.2824C82.5157 37.4649 82.6273 37.5816 82.678 37.6323C82.7236 37.825 82.7693 38.1622 82.8149 38.6439C82.8555 39.1256 82.9189 39.4882 83.0051 39.7316C83.0913 39.6302 83.2054 39.4806 83.3473 39.2828C83.4944 39.08 83.6161 38.9126 83.7124 38.7808C83.8139 38.6439 83.9406 38.4918 84.0928 38.3244C84.2449 38.152 84.3894 38.0202 84.5263 37.9289C84.6683 37.8376 84.8204 37.754 84.9827 37.6779C85.15 37.5968 85.3199 37.5613 85.4923 37.5714C85.6698 37.5866 85.8574 37.6373 86.0552 37.7235C86.1769 37.8047 86.258 37.9188 86.2986 38.0658C86.3391 38.2129 86.3594 38.403 86.3594 38.6363C86.3594 38.8645 86.367 39.0166 86.3822 39.0927C86.6865 41.6838 86.547 43.8313 85.9639 45.5351C85.8878 45.8394 85.6825 46.0219 85.3478 46.0828C85.0131 46.1436 84.7063 46.0752 84.4274 45.8774C84.4021 45.8774 84.3767 45.8444 84.3514 45.7785C84.3311 45.7126 84.3209 45.6315 84.3209 45.5351C84.3209 45.4388 84.3311 45.3475 84.3514 45.2613C84.8534 43.7401 84.9649 41.9272 84.686 39.8229C84.686 39.6504 84.5998 39.6428 84.4274 39.8C84.3564 39.8609 84.3083 39.9293 84.2829 40.0054C83.6389 41.0145 83.1268 42.2492 82.7465 43.7096C82.6146 44.024 82.356 44.2446 81.9706 44.3714C81.5903 44.5032 81.2886 44.4043 81.0655 44.0747C81.1162 43.5017 81.1517 42.8375 81.172 42.0819C81.1872 41.3264 81.1289 40.7255 80.997 40.2792C80.5204 40.6545 80.1755 41.1514 79.9626 41.77C79.7496 42.3938 79.5341 43.162 79.316 44.0747C79.1436 44.3435 78.8825 44.4779 78.5326 44.4779C78.1776 44.4779 77.952 44.3435 77.8556 44.0747C77.6832 43.5879 77.6097 42.8856 77.6351 41.9678C77.6604 41.0449 77.6553 40.2995 77.6199 39.7316Z" fill="#222222"/>
<path d="M91.0374 45.5125C90.9411 45.4517 90.8397 45.3274 90.7332 45.1398C90.6318 44.9522 90.5379 44.8584 90.4517 44.8584C90.2793 44.833 90.0207 44.7975 89.6759 44.7519C89.3311 44.7012 89.0573 44.6555 88.8544 44.615C88.6516 44.5693 88.4183 44.5034 88.1546 44.4172C87.8859 44.3361 87.6526 44.2144 87.4549 44.0521C87.2622 43.8949 87.0999 43.7022 86.9681 43.474C86.7348 43.1191 86.6435 42.683 86.6942 42.1658C86.7399 41.6485 86.8844 41.2327 87.1278 40.9183C87.4067 40.538 87.7363 40.2363 88.1166 40.0132C88.4919 39.785 88.8544 39.6354 89.2043 39.5644C89.5491 39.4934 89.8737 39.4529 90.1779 39.4427C90.4822 39.4377 90.7306 39.4478 90.9233 39.4732L91.22 39.4884C91.3163 39.3667 91.3645 39.1537 91.3645 38.8494C91.3645 38.5452 91.2732 38.3753 91.0907 38.3398C90.9081 38.2536 90.6622 38.2359 90.3529 38.2866C90.0435 38.3373 89.823 38.3804 89.6911 38.4159C89.5643 38.4514 89.3514 38.5325 89.0522 38.6593C88.7581 38.7861 88.5299 38.8748 88.3676 38.9255C88.0532 39.0371 87.8225 38.8647 87.6755 38.4083C87.5284 37.9519 87.5157 37.6629 87.6374 37.5412C88.1039 37.2217 88.6516 36.9834 89.2804 36.8262C89.9142 36.669 90.5455 36.6665 91.1743 36.8186C91.798 36.9707 92.2392 37.313 92.4978 37.8454C92.6652 38.2004 92.759 38.5934 92.7792 39.0244C92.7995 39.4554 92.7691 39.8433 92.688 40.1881C92.6068 40.5279 92.5156 40.9386 92.4141 41.4204C92.3127 41.897 92.2493 42.3077 92.224 42.6526C92.1276 44.184 91.9502 45.1144 91.6916 45.4441C91.509 45.652 91.291 45.6748 91.0374 45.5125ZM90.7103 43.3067C90.7458 43.1343 90.7991 42.9213 90.8701 42.6678C90.9461 42.4142 91.0045 42.2063 91.045 42.0441C91.0856 41.8869 91.1033 41.6967 91.0983 41.4736C91.0932 41.2454 91.0425 41.0172 90.9461 40.789C90.7484 40.86 90.4517 40.9285 90.0562 40.9944C89.6607 41.0654 89.3336 41.1262 89.075 41.177C88.8113 41.2327 88.5705 41.3671 88.3524 41.5801C88.1344 41.7931 88.0177 42.0821 88.0025 42.4472C88.0025 42.6906 88.2256 42.9112 88.6719 43.1089C89.1181 43.3016 89.5415 43.403 89.9421 43.4132C90.3427 43.4284 90.5988 43.3929 90.7103 43.3067Z" fill="#222222"/>
<path d="M94.2925 36.1948C94.3989 35.7739 94.5815 35.4164 94.8401 35.1223C95.1038 34.8231 95.3928 34.5949 95.7072 34.4377C96.0267 34.2755 96.5261 34.2856 97.2056 34.4681C98.0068 34.9093 98.4886 35.3327 98.6508 35.7384C98.808 36.1491 98.8562 36.5852 98.7953 37.0467C98.699 37.2748 98.59 37.4574 98.4683 37.5943C98.235 37.8377 98.0068 38.1039 97.7837 38.393C97.5555 38.6871 97.3603 38.9077 97.198 39.0547C97.0307 39.2018 96.8862 39.3666 96.7645 39.5491C96.6833 39.5491 96.6047 39.5973 96.5287 39.6936C96.483 39.7545 96.4957 39.79 96.5667 39.8001C97.2107 39.9117 97.7837 40.1018 98.2857 40.3706C98.7827 40.6343 99.1047 40.9689 99.2517 41.3746C99.4951 42.0896 99.0996 42.8857 98.0651 43.763C97.3806 44.3208 96.7417 44.767 96.1484 45.1017C95.55 45.4363 94.9238 45.6164 94.2696 45.6417C94.0719 45.6569 93.8944 45.6087 93.7372 45.4972C93.58 45.3856 93.5445 45.2462 93.6307 45.0788C93.6916 45.0028 93.8133 44.8938 93.9958 44.7518C94.1784 44.6047 94.2696 44.5058 94.2696 44.4551C94.2798 44.2624 94.2848 44.0647 94.2848 43.8618C94.2848 43.6641 94.2823 43.4841 94.2772 43.3218C94.2722 43.1646 94.2443 42.9668 94.1936 42.7285C94.1429 42.4953 94.1099 42.3178 94.0947 42.1961C94.0744 42.0744 94.0338 41.8792 93.973 41.6104C93.9121 41.3416 93.8766 41.1591 93.8665 41.0628C93.8513 40.9867 93.8183 40.8878 93.7676 40.7661C93.7118 40.6444 93.6662 40.5379 93.6307 40.4466C93.5901 40.3554 93.5749 40.2489 93.5851 40.1272C93.5901 40.0055 93.6358 39.8965 93.722 39.8001C93.8285 39.6936 93.8995 39.4807 93.935 39.1612C94.011 38.9431 94.0034 38.7226 93.9121 38.4995C93.8209 38.2713 93.793 37.9696 93.8285 37.5943C94.0364 37.0822 94.191 36.6156 94.2925 36.1948ZM95.1063 37.465C95.0962 37.6121 95.1114 37.82 95.152 38.0887C95.1925 38.3524 95.2027 38.5578 95.1824 38.7048C95.5323 38.7657 95.8593 38.6566 96.1636 38.3778C96.4678 38.0989 96.7239 37.8124 96.9318 37.5182C97.1042 37.3256 97.2462 37.105 97.3578 36.8565C97.4744 36.603 97.4541 36.2404 97.2969 35.7688C97.1397 35.2922 96.7619 35.2186 96.1636 35.5482C95.7021 36.0705 95.4232 36.4331 95.3269 36.6359C95.2306 36.8337 95.157 37.11 95.1063 37.465ZM95.5475 42.3026C95.5576 42.3736 95.5779 42.5232 95.6083 42.7513C95.6388 42.9745 95.6717 43.1621 95.7072 43.3142C95.7427 43.4663 95.7985 43.6108 95.8745 43.7478C95.9202 43.7072 96.0774 43.5956 96.3461 43.4131C96.6149 43.2305 96.7974 43.1012 96.8938 43.0252C96.9901 42.944 97.1194 42.8223 97.2817 42.6601C97.4389 42.4927 97.5352 42.3305 97.5707 42.1733C97.6062 42.0161 97.6012 41.8462 97.5555 41.6636C97.515 41.4557 97.3476 41.2605 97.0535 41.078C96.7543 40.8954 96.4552 40.7864 96.156 40.7509C95.8568 40.7154 95.6109 40.7712 95.4182 40.9182C95.3573 41.0856 95.3269 41.2123 95.3269 41.2985C95.3269 41.3848 95.3599 41.547 95.4258 41.7853C95.4917 42.0186 95.5323 42.191 95.5475 42.3026Z" fill="#222222"/>
<path d="M101.138 37.5715C101.123 37.8909 101.123 38.2637 101.138 38.6896C101.163 38.7505 101.201 38.7859 101.252 38.7961C101.308 38.8113 101.374 38.8113 101.45 38.7961L101.556 38.7809C101.642 38.7048 101.815 38.5527 102.073 38.3245C102.337 38.0912 102.535 37.9264 102.667 37.8301C102.804 37.7338 102.984 37.6323 103.207 37.5259C103.435 37.4244 103.655 37.3889 103.868 37.4194C104.081 37.4498 104.297 37.5385 104.515 37.6856C104.723 37.8529 104.786 38.0355 104.705 38.2332C104.624 38.4259 104.482 38.578 104.279 38.6896C104.193 38.7606 103.909 38.9431 103.427 39.2373C102.946 39.5263 102.596 39.7925 102.378 40.0359C103.179 40.6951 104.383 41.8335 105.991 43.4511C106.209 43.7553 106.13 44.0545 105.755 44.3486C105.598 44.5768 105.382 44.6985 105.108 44.7137C104.834 44.7239 104.637 44.6377 104.515 44.4551C104.246 44.1661 103.96 43.877 103.655 43.588C103.351 43.304 102.981 42.9668 102.545 42.5764C102.104 42.1859 101.8 41.9121 101.632 41.7549L101.465 41.6636C101.379 41.6636 101.353 41.7549 101.389 41.9375C101.353 42.2062 101.379 42.6271 101.465 43.2001C101.551 43.768 101.581 44.1864 101.556 44.4551C101.531 44.6884 101.412 44.8659 101.199 44.9876C100.986 45.1093 100.77 45.1574 100.552 45.1321C100.334 45.1067 100.2 45.0281 100.149 44.8963C99.8701 44.1762 99.6799 43.3319 99.5785 42.3634C99.472 41.4 99.4289 40.6038 99.4492 39.9751C99.4644 39.3463 99.4974 38.5273 99.5481 37.5182C99.6191 37.2647 99.7585 37.0822 99.9664 36.9706H100.567C100.861 37.0467 101.052 37.1684 101.138 37.3357V37.5715Z" fill="#222222"/>
<path d="M111.794 41.2073C111.794 41.4 111.815 41.7246 111.855 42.1809C111.891 42.6373 111.901 43.0278 111.886 43.3523C111.876 43.6768 111.822 43.9659 111.726 44.2194C111.614 44.4983 111.368 44.6302 110.988 44.6149C110.603 44.5947 110.367 44.4324 110.281 44.1281C110.235 43.9557 110.25 43.7123 110.326 43.3979C110.408 43.0836 110.448 42.8655 110.448 42.7438C110.423 42.7185 110.392 42.6677 110.357 42.5917C110.321 42.546 110.296 42.5232 110.281 42.5232C110.255 42.5587 110.197 42.6551 110.106 42.8123C110.015 42.9695 109.954 43.0759 109.923 43.1317C109.893 43.1875 109.832 43.2813 109.741 43.4132C109.649 43.5501 109.581 43.6413 109.535 43.687C109.485 43.7377 109.414 43.8138 109.322 43.9152C109.231 44.0217 109.15 44.0926 109.079 44.1281C109.003 44.1636 108.914 44.2093 108.813 44.2651C108.711 44.3208 108.61 44.3513 108.508 44.3563C108.412 44.3614 108.306 44.3614 108.189 44.3563C108.077 44.3513 107.953 44.331 107.816 44.2955C107.624 43.9912 107.464 43.6718 107.337 43.3371C107.205 43.0024 107.109 42.6018 107.048 42.1353C106.987 41.6739 106.947 41.3367 106.926 41.1237C106.901 40.9107 106.876 40.4974 106.85 39.8839C106.825 39.2703 106.812 38.9153 106.812 38.819C106.691 38.2815 106.769 37.9696 107.048 37.8834C107.829 37.6755 108.245 37.7313 108.296 38.0508C108.367 38.5122 108.42 39.2424 108.455 40.2414C108.491 41.2403 108.564 42.0009 108.676 42.5232C109.016 42.1429 109.35 41.5192 109.68 40.6521C110.009 39.7799 110.266 39.1917 110.448 38.8874C110.595 38.644 110.816 38.5173 111.11 38.5071C111.409 38.4919 111.614 38.6187 111.726 38.8874C111.797 39.0954 111.84 39.3235 111.855 39.572C111.865 39.8205 111.858 40.1197 111.832 40.4695C111.807 40.8144 111.794 41.0603 111.794 41.2073Z" fill="#222222"/>
<path d="M127.006 39.9825C126.981 39.0697 127.265 38.3345 127.858 37.7767C128.457 37.2138 129.2 36.9932 130.087 37.1149C130.817 37.2164 131.454 37.5713 131.996 38.1798C132.539 38.7883 132.802 39.4678 132.787 40.2183C132.681 40.5631 132.179 40.9992 131.281 41.5266C130.389 42.0539 129.882 42.3785 129.76 42.5002C129.699 42.5154 129.623 42.5661 129.532 42.6523C129.44 42.7334 129.42 42.812 129.471 42.8881C129.613 43.1568 129.795 43.3444 130.019 43.4509C130.237 43.5625 130.482 43.5929 130.756 43.5422C131.03 43.4966 131.279 43.4307 131.502 43.3444C131.73 43.2582 131.996 43.1365 132.3 42.9794C132.615 43.2227 132.714 43.5473 132.597 43.9529C132.48 44.3637 132.234 44.5995 131.859 44.6603C131.834 44.6603 131.699 44.6806 131.456 44.7212C131.213 44.7617 131.061 44.7871 131 44.7972C130.939 44.8023 130.804 44.8125 130.597 44.8277C130.394 44.8479 130.237 44.8479 130.125 44.8277C130.013 44.8125 129.879 44.7896 129.722 44.7592C129.565 44.7288 129.413 44.6831 129.265 44.6223C127.805 43.9631 127.052 42.4165 127.006 39.9825ZM128.992 40.9181C130.087 40.8674 130.744 40.482 130.962 39.7619C131.159 39.336 131.002 39.0114 130.49 38.7883C129.978 38.5652 129.522 38.5551 129.121 38.7579C128.878 38.8948 128.715 39.1357 128.634 39.4805C128.558 39.8304 128.563 40.1524 128.649 40.4465C128.731 40.7457 128.845 40.9028 128.992 40.9181Z" fill="#222222"/>
<path d="M134.034 37.3738C134.45 37.0188 134.896 36.7399 135.373 36.5371C135.844 36.3292 136.349 36.2024 136.886 36.1568C137.419 36.1162 137.923 36.2227 138.4 36.4762C138.694 36.6233 138.816 36.8058 138.765 37.0239C138.532 37.5005 138.359 37.9975 138.248 38.5147C138.131 39.0319 138.07 39.5846 138.065 40.1729C138.055 40.7661 138.063 41.2732 138.088 41.6941C138.114 42.1099 138.167 42.6753 138.248 43.3903C138.324 44.1002 138.375 44.62 138.4 44.9496C138.461 45.5682 138.443 46.0956 138.347 46.5317C138.25 46.9627 137.994 47.2923 137.579 47.5205C136.859 47.9363 136.062 47.9819 135.19 47.6574C134.313 47.3379 133.74 46.7827 133.471 45.9916C133.375 44.1408 133.773 42.8934 134.665 42.2494C135.563 41.6054 135.573 42.2925 134.696 44.3106C134.681 45.0307 134.81 45.5581 135.084 45.8927C135.358 46.2274 135.609 46.4632 135.837 46.6001C136.06 46.7421 136.318 46.7954 136.613 46.7599C136.699 46.7345 136.813 46.5697 136.955 46.2655C137.066 45.9004 137.104 45.373 137.069 44.6834C137.033 43.9988 136.988 43.4765 136.932 43.1165C136.876 42.7564 136.788 42.2291 136.666 41.5344C136.666 41.509 136.671 41.4608 136.681 41.3899C136.742 41.1211 136.732 40.9943 136.651 41.0095L136.537 41.0628C135.745 41.5344 135.053 41.6485 134.46 41.4051C134.095 41.2631 133.748 40.8929 133.418 40.2946C133.185 39.7824 133.121 39.2601 133.228 38.7277C133.329 38.1902 133.598 37.7389 134.034 37.3738ZM135.205 37.8682C134.769 38.2434 134.587 38.682 134.658 39.1841C134.779 40.0207 135.01 40.4391 135.35 40.4391C135.558 40.4543 135.733 40.3934 135.875 40.2565C136.012 40.1247 136.159 39.8838 136.316 39.5339C136.478 39.1891 136.577 38.9812 136.613 38.9102C136.719 38.7277 136.782 38.4919 136.803 38.2028C136.823 37.9189 136.777 37.6907 136.666 37.5183C136.595 37.3712 136.463 37.3129 136.27 37.3433C136.083 37.3738 135.898 37.4346 135.715 37.5259C135.532 37.6172 135.363 37.7313 135.205 37.8682Z" fill="#222222"/>
<path d="M139.907 45.0787C139.785 45.0534 139.664 44.9063 139.542 44.6376C139.501 44.3333 139.473 43.7426 139.458 42.8653C139.438 41.9931 139.375 41.3136 139.268 40.8268C139.253 40.8015 139.215 40.728 139.154 40.6063C139.093 40.4846 139.055 40.3781 139.04 40.2868C139.02 40.1955 139.022 40.1068 139.047 40.0206C139.073 39.9699 139.121 39.909 139.192 39.838C139.263 39.767 139.306 39.7062 139.321 39.6555C139.347 39.4628 139.347 39.0318 139.321 38.3624C139.296 37.6931 139.319 37.2595 139.39 37.0617C139.451 36.8082 139.603 36.5927 139.846 36.4152C140.09 36.2377 140.303 36.258 140.485 36.4761C140.657 36.6586 140.749 36.8792 140.759 37.1378C140.774 37.3914 140.744 37.6398 140.668 37.8832C140.597 38.1266 140.551 38.3878 140.531 38.6667C140.515 38.9506 140.569 39.2067 140.69 39.4349C141.238 39.4704 141.743 39.5566 142.204 39.6935C142.666 39.8253 143.091 40.051 143.482 40.3705C143.872 40.6848 144.146 41.0728 144.303 41.5342C144.45 41.95 144.417 42.3836 144.205 42.8349C143.992 43.2811 143.69 43.6462 143.299 43.9302C142.691 44.3561 142.113 44.6807 141.565 44.9038C141.018 45.1269 140.465 45.1852 139.907 45.0787ZM140.911 43.7096C141.459 43.6741 141.961 43.5042 142.417 43.2C142.873 42.8957 143.094 42.5103 143.079 42.0438C143.069 41.7548 142.924 41.486 142.645 41.2376C142.361 40.984 142.029 40.804 141.649 40.6975C141.263 40.586 140.901 40.5555 140.561 40.6063C140.561 42.0058 140.678 43.0402 140.911 43.7096ZM146 40.2031C146 40.5327 146.027 40.9282 146.083 41.3897C146.139 41.8511 146.19 42.2492 146.235 42.5839C146.286 42.9185 146.309 43.2912 146.304 43.702C146.299 44.1077 146.246 44.4804 146.144 44.8201C146.109 44.9418 145.987 45.0559 145.779 45.1624C145.576 45.2638 145.361 45.2866 145.132 45.2308C144.909 45.1751 144.78 45.0153 144.745 44.7516C144.547 42.5813 144.448 41.1615 144.448 40.4922C144.448 39.8634 144.547 38.8365 144.745 37.4116C144.745 37.2037 144.823 37.0085 144.98 36.826C145.138 36.6434 145.333 36.5217 145.566 36.4609C145.83 36.3747 146.088 36.438 146.342 36.651C146.59 36.864 146.671 37.0694 146.585 37.2671C146.195 38.1393 146 39.118 146 40.2031Z" fill="#222222"/>
</svg>
