<svg width="148" height="48" viewBox="0 0 148 48" fill="none" xmlns="http://www.w3.org/2000/svg">
<path d="M10.1225 1.24243H2.71322C1.95279 1.24243 1.75781 1.6064 1.75781 2.19784V22.0469C1.75781 22.6449 1.95279 23.0088 2.71322 23.0088H10.1225C14.0611 23.0088 19.0266 20.76 19.0266 15.567V8.68421C19.0266 3.52371 14.0611 1.24243 10.1225 1.24243ZM13.8336 15.0991C13.8336 17.2179 12.3063 18.4073 10.1225 18.4073H6.95081V5.83749H10.1225C12.3063 5.83749 13.8336 7.06587 13.8336 9.14567V15.0991Z" fill="white"/>
<path d="M51.9618 24.0005C44.5643 27.3263 36.0477 27.3779 28.6349 24.1505C27.859 23.8245 27.4936 22.9256 27.8773 22.1504C28.2033 21.3745 29.1019 21.0379 29.8777 21.3639C36.5149 24.2364 44.1075 24.2036 50.7219 21.2157C50.9249 21.1313 51.1565 21.0761 51.3585 21.0783C51.9358 21.0846 52.4805 21.4369 52.7343 21.9882C53.0725 22.7424 52.716 23.6623 51.9618 24.0005Z" fill="#E93A2F"/>
<path d="M32.2994 19.0231C32.0932 19.3961 31.6587 19.5357 31.2853 19.3584C30.9409 19.1815 30.7724 18.7466 30.9785 18.3736L40.3298 0L49.683 18.5485C49.881 18.9259 49.7319 19.3573 49.3545 19.5553C48.9771 19.7532 48.5457 19.6042 48.3477 19.2267L40.3225 3.31973L32.2994 19.0231Z" fill="#E93A2F"/>
<path d="M81.6647 21.6765L77.0567 14.9756C79.0845 14.2867 81.5997 11.9014 81.5997 8.46973C81.5997 6.37694 80.9173 4.51162 79.7084 3.33523C78.3306 1.96386 76.7642 1.24243 73.2025 1.24243H64.9613C64.2074 1.24243 64.0449 1.6064 64.0449 2.19134V21.774C64.0449 22.5279 64.3764 22.7229 64.9613 22.7229H68.198C68.7895 22.7229 69.1469 22.5279 69.1469 21.774V5.81799H73.495C75.1914 5.81799 76.5042 6.89689 76.5042 8.59972C76.5042 10.1336 74.9964 11.245 73.3975 11.245H72.7411C71.9937 11.245 71.7922 11.6089 71.7922 12.1939V14.8131C71.7922 15.7295 71.8572 16.087 72.1561 16.477L75.6853 21.7415C76.1403 22.4304 76.5367 22.7229 77.3167 22.7229H81.1773C81.8012 22.7229 81.9637 22.1314 81.6647 21.6765Z" fill="white"/>
<path fill-rule="evenodd" clip-rule="evenodd" d="M115.701 9.87925V14.2891L115.816 17.6967C115.816 22.1066 112.265 25.772 107.884 25.772H100.982C96.5726 25.772 92.9932 22.2498 92.9932 17.8399L93.0791 14.3464V14.3178V10.1656C93.0791 4.38123 97.6607 0 103.331 0H105.822C111.32 0 115.701 4.26669 115.701 9.87925ZM109.115 2.20493C109.344 1.97585 109.344 1.57495 109.115 1.34587C108.857 1.11678 108.485 1.11678 108.256 1.34587L105.851 3.75125C105.621 3.98034 105.621 4.38123 105.851 4.61032C105.965 4.72486 106.137 4.78213 106.28 4.78213C106.423 4.78213 106.595 4.72486 106.71 4.61032L109.115 2.20493ZM106.022 1.34587C105.793 1.11678 105.392 1.11678 105.163 1.34587L102.758 3.75125C102.529 3.98034 102.529 4.38123 102.758 4.61032C102.872 4.72486 103.044 4.78213 103.187 4.78213C103.331 4.78213 103.502 4.72486 103.617 4.61032L106.022 2.20493C106.251 1.97585 106.251 1.57495 106.022 1.34587ZM102.099 1.34587L99.6939 3.75125C99.4648 4.00897 99.4648 4.38123 99.6939 4.61032C99.8084 4.72486 99.9802 4.78213 100.123 4.78213C100.267 4.78213 100.438 4.72486 100.553 4.61032L102.958 2.20493C103.187 1.97585 103.187 1.57495 102.958 1.34587C102.729 1.11678 102.328 1.11678 102.099 1.34587ZM100.982 24.6265H107.884C111.606 24.6265 114.613 21.5625 114.642 17.8399L114.556 14.6041C114.556 10.3088 111.091 6.87252 106.824 6.87252H101.87C98.8348 6.87252 96.2003 8.64792 94.9976 11.1392C94.5681 12.1128 94.3104 13.0005 94.3104 14.1459L94.2245 17.754C94.2245 21.4766 97.2599 24.6265 100.982 24.6265ZM99.2356 15.7495C99.2356 18.6131 101.555 20.9325 104.419 20.9325C107.282 20.9325 109.602 18.5844 109.602 15.7495V15.0909C109.602 12.2273 107.282 9.90787 104.419 9.90787C101.555 9.90787 99.2356 12.2273 99.2356 15.0909V15.7495ZM100.467 15.0623C100.467 12.886 102.242 11.1106 104.419 11.1106C106.595 11.1106 108.399 12.886 108.399 15.0909V15.7495C108.399 17.9258 106.595 19.7012 104.419 19.7012C102.242 19.7012 100.467 17.9258 100.467 15.7495V15.0623Z" fill="#E93A2F"/>
<path d="M146.634 1.24243H143.436C142.338 1.24243 142.175 1.97686 141.941 2.37332L137.346 10.5625L132.79 2.37332C132.523 1.97686 132.387 1.24243 131.256 1.24243H127.961C127.201 1.24243 126.999 1.6064 126.999 2.20434V22.2094C126.999 22.9698 127.363 23.1713 127.961 23.1713H131.256C131.854 23.1713 132.225 22.9698 132.225 22.2094V10.9265L135.585 16.7499C135.747 17.0164 136.014 17.4454 136.514 17.4454H138.178C138.678 17.4454 138.977 17.0164 139.146 16.7499L142.474 10.9265V22.2094C142.474 22.9698 142.838 23.1713 143.436 23.1713H146.634C147.232 23.1713 147.596 22.9698 147.596 22.2094V2.20434C147.596 1.6064 147.394 1.24243 146.634 1.24243Z" fill="white"/>
<path d="M0.0510856 40.4391C0.198139 39.43 0.542956 38.5579 1.08553 37.8226C1.62811 37.0873 2.37352 36.6081 3.32177 36.385C4.06211 36.2177 4.94443 36.2785 5.96873 36.5676C6.18678 36.6436 6.3744 36.7805 6.5316 36.9783C6.68879 37.1811 6.70147 37.3992 6.56962 37.6324C6.49863 37.7643 6.40736 37.8606 6.2958 37.9215C6.18424 37.9823 6.03212 38.0305 5.83943 38.066C5.64674 38.1015 5.51236 38.1319 5.4363 38.1573C5.1929 38.2333 4.84555 38.2206 4.39424 38.1192C3.94801 38.0229 3.63362 38.0051 3.45107 38.066C2.75637 38.3094 2.28732 38.781 2.04392 39.4807C1.80052 40.1805 1.79292 40.9031 2.0211 41.6485C2.25436 42.3889 2.72341 42.9314 3.42825 43.2763C4.1331 43.6261 4.85823 43.6794 5.60364 43.436C5.71012 43.4005 5.85464 43.3244 6.03719 43.2078C6.21974 43.0912 6.37947 42.9923 6.51638 42.9112C6.64822 42.8351 6.80288 42.7717 6.98036 42.721C7.15784 42.6754 7.29475 42.7007 7.3911 42.7971C7.7207 43.0658 7.92354 43.327 7.9996 43.5805C8.08073 43.834 7.98185 44.0825 7.70296 44.3259C6.52146 45.193 5.00021 45.3401 3.13922 44.7671C2.22647 44.473 1.54951 44.151 1.10835 43.8011C0.210816 43.0455 -0.141606 41.9249 0.0510856 40.4391Z" fill="white"/>
<path d="M11.8332 36.8794L12.2135 36.9174C12.396 36.9428 12.5253 36.9859 12.6014 37.0467C12.6977 37.3358 12.9538 38.6162 13.3696 40.8879C13.7804 43.1596 13.9376 44.3867 13.8412 44.5693C13.8919 44.5439 13.8108 44.5744 13.5978 44.6606C13.3848 44.7417 13.1642 44.7468 12.9361 44.6758C12.7129 44.6048 12.5938 44.5389 12.5786 44.478C12.3504 43.0379 12.0588 41.8209 11.7038 40.827C11.572 41.1516 11.4478 41.4355 11.3311 41.6789C11.2145 41.9223 11.0776 42.1708 10.9204 42.4243C10.7632 42.6728 10.6516 42.8452 10.5857 42.9416C10.5147 43.0379 10.355 43.2534 10.1065 43.5881C9.85807 43.9228 9.69073 44.151 9.60453 44.2727C9.44733 44.4197 9.26478 44.4806 9.05688 44.4552C8.84897 44.4299 8.66642 44.3462 8.50923 44.2042C8.25569 43.9963 8.26836 43.6363 8.54726 43.1241C8.78051 42.7083 9.08477 42.1632 9.46001 41.4888C9.83525 40.8144 10.1268 40.2921 10.3347 39.9219C10.5426 39.5517 10.786 39.0852 11.0649 38.5223C11.3438 37.9646 11.5999 37.4169 11.8332 36.8794Z" fill="white"/>
<path d="M16.108 37.9062C16.108 37.8555 16.0953 37.7439 16.07 37.5715C16.0446 37.4042 16.0319 37.2799 16.0319 37.1988C16.0319 37.1227 16.0446 37.0264 16.07 36.9098C16.0953 36.7931 16.1384 36.7044 16.1993 36.6436C16.3818 36.3647 16.6607 36.2176 17.036 36.2024C17.4112 36.1923 17.6723 36.3393 17.8194 36.6436C17.9918 36.9833 18.0704 37.4726 18.0552 38.1116C18.0451 38.7505 18.0577 39.2829 18.0932 39.7089C18.1084 39.7596 18.1262 39.7925 18.1465 39.8077C18.1718 39.828 18.1997 39.8331 18.2301 39.823C18.2606 39.8077 18.2885 39.7925 18.3138 39.7773C18.3392 39.757 18.3671 39.7292 18.3975 39.6937C18.4279 39.6582 18.4482 39.6328 18.4583 39.6176C18.5192 39.4858 18.6434 39.1993 18.831 38.7581C19.0237 38.322 19.1708 38.0025 19.2722 37.7997C19.3736 37.6019 19.5308 37.3661 19.7438 37.0923C19.9568 36.8185 20.1925 36.6081 20.4512 36.461C20.6185 36.4002 20.8188 36.3647 21.052 36.3545C21.2853 36.3393 21.4704 36.4103 21.6073 36.5675C21.7493 36.7298 21.7518 36.9377 21.6149 37.1912C21.4729 37.4701 21.2295 37.9062 20.8847 38.4995C20.545 39.0877 20.2813 39.5618 20.0937 39.9218C19.906 40.2819 19.7184 40.7382 19.5308 41.291C19.3381 41.8437 19.224 42.3685 19.1885 42.8655C19.1429 43.4993 18.9223 44.265 18.5268 45.1625C18.1313 46.055 17.7078 46.7877 17.2565 47.3607C16.9168 47.7715 16.4351 47.9844 15.8114 47.9997C15.1927 48.0098 14.7668 47.7968 14.5335 47.3607C14.1076 46.5088 14.138 45.9358 14.6248 45.6417C14.8428 45.5099 15.0812 45.5251 15.3398 45.6874C15.5933 45.8547 15.7454 46.0778 15.7962 46.3567C16.0497 46.159 16.25 45.9916 16.397 45.8547C16.5441 45.7127 16.6633 45.5454 16.7545 45.3527C16.8458 45.1549 16.9041 45.0079 16.9295 44.9115C16.9498 44.8152 16.9903 44.6047 17.0512 44.2802C17.112 43.9608 17.1627 43.7021 17.2033 43.5044C17.2743 43.1291 17.1754 42.6398 16.9067 42.0364C16.6379 41.4329 16.4934 41.0222 16.4731 40.8042C16.4325 40.4746 16.3717 39.9903 16.2906 39.3514C16.2043 38.7125 16.1435 38.2307 16.108 37.9062Z" fill="white"/>
<path d="M30.6055 44.6373C30.1542 44.6525 29.7181 44.5537 29.2972 44.3407C28.8814 44.1277 28.5392 43.8843 28.2704 43.6105C28.0017 43.3367 27.6797 43.0172 27.3044 42.6521C26.9241 42.287 26.5996 42.0132 26.3308 41.8306C24.8096 42.9361 23.7396 43.9274 23.121 44.8047C22.9891 44.9517 22.8066 45.0354 22.5733 45.0557C22.3401 45.081 22.1322 45.0405 21.9496 44.934C21.8431 44.8579 21.7645 44.8021 21.7138 44.7666C21.6682 44.7311 21.5997 44.6754 21.5085 44.5993C21.4172 44.5283 21.3563 44.4649 21.3259 44.4091C21.2955 44.3534 21.26 44.2925 21.2194 44.2266C21.1839 44.1607 21.1763 44.0947 21.1966 44.0288C21.2118 43.9629 21.2499 43.8919 21.3107 43.8158C21.6302 43.466 21.9801 43.1009 22.3604 42.7206C22.7457 42.3453 23.2097 41.9143 23.7523 41.4275C24.2949 40.9407 24.6879 40.5807 24.9313 40.3474C24.7487 40.0432 24.3405 39.6045 23.7067 39.0315C23.0728 38.4636 22.6773 37.9971 22.5201 37.632C22.444 37.4241 22.51 37.2643 22.7179 37.1528C23.2554 37.0463 23.8157 37.1756 24.3988 37.5407C24.6422 37.7233 24.9313 38.0351 25.2659 38.4763C25.6006 38.9225 25.8947 39.2369 26.1483 39.4194C26.4424 39.1862 26.8328 38.8363 27.3196 38.3698C27.8064 37.8982 28.2653 37.4951 28.6964 37.1604C29.1274 36.8257 29.5939 36.5747 30.0959 36.4074C30.3241 36.3567 30.5979 36.3922 30.9174 36.5139C31.2318 36.6356 31.4574 36.8308 31.5943 37.0995C31.7262 37.3683 31.6577 37.594 31.389 37.7765C30.9275 38.0909 30.2962 38.5802 29.495 39.2445C28.6887 39.9088 28.0422 40.3981 27.5554 40.7125C27.7278 41.1131 28.0118 41.501 28.4073 41.8763C28.8028 42.2464 29.2567 42.6267 29.7688 43.0172C30.2759 43.4026 30.6512 43.7423 30.8946 44.0364C30.9554 44.1226 30.9605 44.2418 30.9098 44.3939C30.854 44.546 30.7526 44.6272 30.6055 44.6373ZM25.9125 40.3854C25.9277 40.1522 25.9125 39.8657 25.8668 39.5259C25.8263 39.1862 25.7832 38.8895 25.7375 38.636C25.697 38.3774 25.6818 38.0985 25.6919 37.7993C25.7071 37.5052 25.7629 37.2415 25.8592 37.0083C25.9302 36.8359 26.0545 36.7091 26.2319 36.628C26.4094 36.5418 26.5768 36.5443 26.7339 36.6356C26.8911 36.7268 26.9824 36.8993 27.0078 37.1528C27.0078 37.2035 27.0002 37.3024 26.985 37.4494C26.9647 37.5914 26.9545 37.6827 26.9545 37.7233C26.9545 37.9413 26.9571 38.2532 26.9621 38.6588C26.9672 39.0696 26.9697 39.4448 26.9697 39.7845C26.9697 40.1243 26.9647 40.4412 26.9545 40.7353C26.9292 41.0599 26.9342 41.5391 26.9697 42.1729C27.0103 42.8068 27.0179 43.3671 26.9926 43.8539C26.9672 44.3407 26.8759 44.792 26.7187 45.2078C26.6325 45.4106 26.4982 45.5247 26.3156 45.5501C26.1331 45.5754 25.9632 45.5273 25.806 45.4056C25.7198 45.3447 25.6589 45.2382 25.6234 45.0861C25.5879 44.934 25.5879 44.7844 25.6234 44.6373C25.7198 44.2266 25.7882 43.8006 25.8288 43.3595C25.8744 42.9234 25.8998 42.3757 25.9049 41.7165C25.9099 41.0624 25.9125 40.6187 25.9125 40.3854Z" fill="white"/>
<path d="M35.0776 43.6339C35.9193 43.9381 36.3935 43.7683 36.5 43.1243C36.576 42.749 36.4949 42.4499 36.2566 42.2267C36.0182 42.0087 35.7114 41.8769 35.3362 41.8312C35.3108 41.8312 35.2728 41.8312 35.2221 41.8312C34.6035 41.7805 34.2764 41.9555 34.2409 42.356C34.2155 42.5994 34.2105 42.7947 34.2257 42.9417C34.246 43.0888 34.3018 43.2079 34.393 43.2992C34.4843 43.3905 34.5705 43.4513 34.6516 43.4818C34.7277 43.5122 34.8697 43.5629 35.0776 43.6339ZM37.3975 36.9556H36.865C37.3772 37.3562 37.8285 37.8557 38.219 38.4541C39.1063 39.8029 39.3624 41.2024 38.9872 42.6527C38.7641 43.464 38.2925 44.1055 37.5724 44.5771C36.8473 45.0436 36.0284 45.2033 35.1156 45.0563C34.2282 44.9346 33.4727 44.4249 32.849 43.5274C32.6056 43.2941 32.4763 42.9671 32.461 42.5462C32.4408 42.1304 32.5701 41.8109 32.849 41.5878C33.0924 41.1162 33.4422 40.8069 33.8986 40.6599C34.355 40.5128 34.8443 40.452 35.3666 40.4773C35.894 40.5027 36.3478 40.6877 36.7281 41.0326C37.1135 41.3824 37.3797 41.5675 37.5268 41.5878C37.6485 39.8992 36.6673 38.4388 34.5832 37.2066C34.2789 37.0494 34.0203 36.9176 33.8073 36.8111C33.5944 36.6995 33.4701 36.6311 33.4346 36.6057C33.2014 36.4739 33.1887 36.304 33.3966 36.0961C33.5082 35.9998 33.6299 35.9262 33.7617 35.8755C34.2485 35.7285 34.5046 35.655 34.5299 35.655C34.677 35.655 34.9001 35.6524 35.1993 35.6474C35.4934 35.6423 35.7596 35.6397 35.9979 35.6397C36.2363 35.6397 36.4645 35.6448 36.6825 35.655C36.9158 35.6803 37.2606 35.6727 37.7169 35.6321C38.1733 35.5865 38.5739 35.5789 38.9187 35.6093C39.2686 35.6397 39.5881 35.7538 39.8771 35.9516C40.0242 36.0479 40.1104 36.2127 40.1357 36.446C40.1611 36.6742 40.123 36.8872 40.0216 37.0849C39.9861 37.1914 39.9101 37.2675 39.7934 37.3131C39.6819 37.3537 39.5754 37.3486 39.474 37.2979C39.1697 37.1762 38.8629 37.0925 38.5536 37.0469C38.2443 36.9962 37.8589 36.9658 37.3975 36.9556Z" fill="white"/>
<path d="M44.639 45.5124C44.5426 45.4516 44.4412 45.3274 44.3347 45.1397C44.2333 44.9521 44.1395 44.8583 44.0533 44.8583C43.8809 44.833 43.6223 44.7975 43.2775 44.7518C42.9326 44.7011 42.6588 44.6555 42.456 44.6149C42.2531 44.5693 42.0199 44.5034 41.7562 44.4171C41.4875 44.336 41.2542 44.2143 41.0564 44.052C40.8637 43.8949 40.7015 43.7022 40.5696 43.474C40.3364 43.119 40.2451 42.6829 40.2958 42.1657C40.3414 41.6485 40.486 41.2327 40.7294 40.9183C41.0083 40.538 41.3379 40.2363 41.7182 40.0131C42.0934 39.785 42.456 39.6354 42.8059 39.5644C43.1507 39.4934 43.4752 39.4528 43.7795 39.4427C44.0837 39.4376 44.3322 39.4477 44.5249 39.4731L44.8215 39.4883C44.9179 39.3666 44.966 39.1536 44.966 38.8494C44.966 38.5451 44.8748 38.3753 44.6922 38.3398C44.5097 38.2536 44.2637 38.2358 43.9544 38.2865C43.6451 38.3372 43.4245 38.3803 43.2927 38.4158C43.1659 38.4513 42.9529 38.5325 42.6537 38.6592C42.3596 38.786 42.1314 38.8747 41.9692 38.9254C41.6548 39.037 41.4241 38.8646 41.277 38.4082C41.13 37.9519 41.1173 37.6628 41.239 37.5411C41.7055 37.2217 42.2531 36.9833 42.8819 36.8261C43.5158 36.6689 44.1471 36.6664 44.7759 36.8185C45.3996 36.9706 45.8408 37.3129 46.0994 37.8454C46.2667 38.2003 46.3605 38.5933 46.3808 39.0243C46.4011 39.4553 46.3707 39.8433 46.2895 40.1881C46.2084 40.5278 46.1171 40.9386 46.0157 41.4203C45.9143 41.8969 45.8509 42.3077 45.8255 42.6525C45.7292 44.1839 45.5517 45.1144 45.2931 45.444C45.1106 45.6519 44.8925 45.6747 44.639 45.5124ZM44.3119 43.3066C44.3474 43.1342 44.4006 42.9213 44.4716 42.6677C44.5477 42.4142 44.606 42.2063 44.6466 42.044C44.6871 41.8868 44.7049 41.6967 44.6998 41.4735C44.6947 41.2453 44.644 41.0172 44.5477 40.789C44.3499 40.86 44.0533 40.9284 43.6578 40.9943C43.2622 41.0653 42.9352 41.1262 42.6766 41.1769C42.4129 41.2327 42.172 41.367 41.954 41.58C41.7359 41.793 41.6193 42.082 41.6041 42.4471C41.6041 42.6905 41.8272 42.9111 42.2734 43.1089C42.7197 43.3016 43.1431 43.403 43.5437 43.4131C43.9443 43.4283 44.2003 43.3928 44.3119 43.3066Z" fill="white"/>
<path d="M61.0145 37.3738C61.4303 37.0189 61.8766 36.74 62.3532 36.5371C62.8248 36.3292 63.3294 36.2025 63.8669 36.1568C64.3993 36.1163 64.9039 36.2228 65.3805 36.4763C65.6746 36.6233 65.7963 36.8059 65.7456 37.0239C65.5124 37.5006 65.3399 37.9975 65.2284 38.5148C65.1118 39.032 65.0509 39.5847 65.0458 40.1729C65.0357 40.7662 65.0433 41.2733 65.0687 41.6942C65.094 42.11 65.1473 42.6754 65.2284 43.3904C65.3045 44.1003 65.3552 44.62 65.3805 44.9496C65.4414 45.5683 65.4236 46.0956 65.3273 46.5317C65.2309 46.9628 64.9748 47.2924 64.559 47.5205C63.839 47.9363 63.0429 47.982 62.1707 47.6575C61.2934 47.338 60.7204 46.7827 60.4517 45.9917C60.3553 44.1408 60.7534 42.8934 61.6458 42.2494C62.5434 41.6054 62.5535 42.2925 61.6763 44.3107C61.6611 45.0308 61.7904 45.5581 62.0642 45.8928C62.338 46.2275 62.589 46.4633 62.8172 46.6002C63.0403 46.7422 63.2989 46.7954 63.593 46.7599C63.6793 46.7346 63.7933 46.5698 63.9353 46.2655C64.0469 45.9004 64.0849 45.373 64.0494 44.6834C64.0139 43.9989 63.9683 43.4766 63.9125 43.1165C63.8567 42.7565 63.768 42.2291 63.6463 41.5344C63.6463 41.5091 63.6514 41.4609 63.6615 41.3899C63.7224 41.1212 63.7122 40.9944 63.6311 41.0096L63.517 41.0629C62.7259 41.5344 62.0338 41.6485 61.4405 41.4051C61.0754 41.2631 60.728 40.893 60.3984 40.2946C60.1652 39.7825 60.1018 39.2602 60.2083 38.7277C60.3097 38.1902 60.5784 37.7389 61.0145 37.3738ZM62.1859 37.8682C61.7498 38.2435 61.5673 38.6821 61.6382 39.1841C61.7599 40.0208 61.9907 40.4391 62.3304 40.4391C62.5383 40.4544 62.7133 40.3935 62.8552 40.2566C62.9922 40.1247 63.1392 39.8839 63.2964 39.534C63.4587 39.1892 63.5576 38.9813 63.593 38.9103C63.6995 38.7277 63.7629 38.4919 63.7832 38.2029C63.8035 37.9189 63.7578 37.6908 63.6463 37.5183C63.5753 37.3713 63.4435 37.313 63.2508 37.3434C63.0631 37.3738 62.8781 37.4347 62.6955 37.526C62.513 37.6172 62.3431 37.7313 62.1859 37.8682Z" fill="white"/>
<path d="M67.9593 42.7437C67.3508 42.3786 66.9198 41.8537 66.6662 41.1692C66.4076 40.4897 66.3822 39.7975 66.5902 39.0927C66.7017 38.687 66.9147 38.2636 67.2291 37.8224C67.5485 37.3762 67.726 37.11 67.7615 37.0238C68.0049 36.5623 68.3725 36.357 68.8644 36.4077C69.3563 36.4533 69.7924 36.684 70.1727 37.0998C70.5733 37.5613 70.8699 38.1571 71.0626 38.8873C71.3922 40.1195 70.9739 41.3492 69.8076 42.5763C69.6098 42.7842 69.3132 42.9009 68.9177 42.9262C68.5221 42.9465 68.2027 42.8857 67.9593 42.7437ZM68.545 40.9334C68.9608 41.0297 69.265 40.9385 69.4577 40.6596C69.6504 40.3807 69.7011 40.0206 69.6098 39.5795C69.5186 39.1434 69.3157 38.7479 69.0013 38.3929C68.8695 38.2509 68.6388 38.3676 68.3092 38.7428C67.8579 39.2397 67.6626 39.7215 67.7235 40.188C67.7742 40.5734 68.048 40.8218 68.545 40.9334Z" fill="white"/>
<path d="M70.7505 40.3855C70.9483 39.2294 71.4553 38.2913 72.2717 37.5712C72.292 37.5509 72.3909 37.4597 72.5684 37.2974C72.7459 37.1402 72.86 37.0413 72.9107 37.0007C72.9563 36.9551 73.0653 36.8638 73.2377 36.7269C73.4051 36.5849 73.5268 36.4911 73.6028 36.4455C73.6738 36.3948 73.793 36.3187 73.9603 36.2173C74.1226 36.1108 74.2519 36.0424 74.3482 36.0119C74.4446 35.9815 74.5739 35.9435 74.7362 35.8978C74.8934 35.8471 75.0303 35.8218 75.1469 35.8218C75.2585 35.8218 75.3878 35.8345 75.5348 35.8598C75.6819 35.8852 75.8213 35.9283 75.9532 35.9891C76.2371 36.1108 76.3183 36.3466 76.1966 36.6965C76.085 37.0261 75.9101 37.2796 75.6717 37.4571C75.4334 37.6346 75.1317 37.7943 74.7666 37.9363C74.4015 38.0834 74.1175 38.2304 73.9147 38.3775C73.0121 39.0722 72.5354 39.8024 72.4847 40.5681C72.4391 41.2476 72.5684 41.813 72.8726 42.2643C72.9588 42.4113 73.0729 42.5355 73.2149 42.637C73.362 42.7434 73.4913 42.817 73.6028 42.8575C73.7093 42.9032 73.8741 42.959 74.0972 43.0249C74.3153 43.0908 74.4674 43.1415 74.5536 43.177C74.8325 43.2886 75.1114 43.2657 75.3903 43.1085C75.6692 42.9463 75.9481 42.7561 76.227 42.5381C76.5109 42.32 76.7543 42.2059 76.9572 42.1958C77.1397 42.1806 77.2665 42.2288 77.3375 42.3403C77.4034 42.4468 77.4186 42.5863 77.3831 42.7587C77.3426 42.9311 77.2969 43.0857 77.2462 43.2226C77.1904 43.3646 77.1321 43.4838 77.0713 43.5801C76.3512 44.6754 75.0125 44.9442 73.0552 44.3864C72.2134 44.143 71.5821 43.6435 71.1612 42.888C70.7454 42.1324 70.6085 41.2983 70.7505 40.3855Z" fill="white"/>
<path d="M77.6199 39.7315C77.5438 39.0216 77.6224 38.4334 77.8556 37.9669C78.0889 37.5004 78.4971 37.3635 79.0802 37.5562C79.2882 37.6271 79.4225 37.7641 79.4834 37.9669C79.5442 38.1697 79.5468 38.3878 79.491 38.621C79.4352 38.8594 79.4048 39.1078 79.3997 39.3664C79.3946 39.62 79.4403 39.833 79.5366 40.0054C79.704 39.833 79.8738 39.5845 80.0462 39.2599C80.2186 38.9405 80.3606 38.6515 80.4722 38.3928C80.5888 38.1393 80.7409 37.8858 80.9286 37.6322C81.1213 37.3736 81.3165 37.224 81.5142 37.1834C81.7171 37.1378 81.9934 37.1708 82.3433 37.2823C82.5157 37.4649 82.6273 37.5815 82.678 37.6322C82.7236 37.8249 82.7693 38.1621 82.8149 38.6438C82.8555 39.1256 82.9189 39.4881 83.0051 39.7315C83.0913 39.6301 83.2054 39.4805 83.3473 39.2828C83.4944 39.0799 83.6161 38.9126 83.7124 38.7808C83.8139 38.6438 83.9406 38.4917 84.0928 38.3244C84.2449 38.152 84.3894 38.0201 84.5263 37.9289C84.6683 37.8376 84.8204 37.7539 84.9827 37.6779C85.15 37.5967 85.3199 37.5612 85.4923 37.5714C85.6698 37.5866 85.8574 37.6373 86.0552 37.7235C86.1769 37.8046 86.258 37.9187 86.2986 38.0658C86.3391 38.2128 86.3594 38.403 86.3594 38.6362C86.3594 38.8644 86.367 39.0165 86.3822 39.0926C86.6865 41.6838 86.547 43.8313 85.9639 45.5351C85.8878 45.8393 85.6825 46.0219 85.3478 46.0827C85.0131 46.1436 84.7063 46.0751 84.4274 45.8774C84.4021 45.8774 84.3767 45.8444 84.3514 45.7785C84.3311 45.7126 84.3209 45.6314 84.3209 45.5351C84.3209 45.4387 84.3311 45.3475 84.3514 45.2613C84.8534 43.74 84.9649 41.9272 84.686 39.8228C84.686 39.6504 84.5998 39.6428 84.4274 39.8C84.3564 39.8608 84.3083 39.9293 84.2829 40.0054C83.6389 41.0145 83.1268 42.2492 82.7465 43.7096C82.6146 44.024 82.356 44.2446 81.9706 44.3713C81.5903 44.5032 81.2886 44.4043 81.0655 44.0747C81.1162 43.5017 81.1517 42.8374 81.172 42.0819C81.1872 41.3263 81.1289 40.7254 80.997 40.2792C80.5204 40.6544 80.1755 41.1514 79.9626 41.77C79.7496 42.3937 79.5341 43.1619 79.316 44.0747C79.1436 44.3434 78.8825 44.4778 78.5326 44.4778C78.1776 44.4778 77.952 44.3434 77.8556 44.0747C77.6832 43.5879 77.6097 42.8856 77.6351 41.9678C77.6604 41.0449 77.6553 40.2995 77.6199 39.7315Z" fill="white"/>
<path d="M91.0374 45.5124C90.9411 45.4516 90.8397 45.3274 90.7332 45.1397C90.6318 44.9521 90.5379 44.8583 90.4517 44.8583C90.2793 44.833 90.0207 44.7975 89.6759 44.7518C89.3311 44.7011 89.0573 44.6555 88.8544 44.6149C88.6516 44.5693 88.4183 44.5034 88.1546 44.4171C87.8859 44.336 87.6526 44.2143 87.4549 44.052C87.2622 43.8949 87.0999 43.7022 86.9681 43.474C86.7348 43.119 86.6435 42.6829 86.6942 42.1657C86.7399 41.6485 86.8844 41.2327 87.1278 40.9183C87.4067 40.538 87.7363 40.2363 88.1166 40.0131C88.4919 39.785 88.8544 39.6354 89.2043 39.5644C89.5491 39.4934 89.8737 39.4528 90.1779 39.4427C90.4822 39.4376 90.7306 39.4477 90.9233 39.4731L91.22 39.4883C91.3163 39.3666 91.3645 39.1536 91.3645 38.8494C91.3645 38.5451 91.2732 38.3753 91.0907 38.3398C90.9081 38.2536 90.6622 38.2358 90.3529 38.2865C90.0435 38.3372 89.823 38.3803 89.6911 38.4158C89.5643 38.4513 89.3514 38.5325 89.0522 38.6592C88.7581 38.786 88.5299 38.8747 88.3676 38.9254C88.0532 39.037 87.8225 38.8646 87.6755 38.4082C87.5284 37.9519 87.5157 37.6628 87.6374 37.5411C88.1039 37.2217 88.6516 36.9833 89.2804 36.8261C89.9142 36.6689 90.5455 36.6664 91.1743 36.8185C91.798 36.9706 92.2392 37.3129 92.4978 37.8454C92.6652 38.2003 92.759 38.5933 92.7792 39.0243C92.7995 39.4553 92.7691 39.8433 92.688 40.1881C92.6068 40.5278 92.5156 40.9386 92.4141 41.4203C92.3127 41.8969 92.2493 42.3077 92.224 42.6525C92.1276 44.1839 91.9502 45.1144 91.6916 45.444C91.509 45.6519 91.291 45.6747 91.0374 45.5124ZM90.7103 43.3066C90.7458 43.1342 90.7991 42.9213 90.8701 42.6677C90.9461 42.4142 91.0045 42.2063 91.045 42.044C91.0856 41.8868 91.1033 41.6967 91.0983 41.4735C91.0932 41.2453 91.0425 41.0172 90.9461 40.789C90.7484 40.86 90.4517 40.9284 90.0562 40.9943C89.6607 41.0653 89.3336 41.1262 89.075 41.1769C88.8113 41.2327 88.5705 41.367 88.3524 41.58C88.1344 41.793 88.0177 42.082 88.0025 42.4471C88.0025 42.6905 88.2256 42.9111 88.6719 43.1089C89.1181 43.3016 89.5415 43.403 89.9421 43.4131C90.3427 43.4283 90.5988 43.3928 90.7103 43.3066Z" fill="white"/>
<path d="M94.2925 36.1948C94.3989 35.7739 94.5815 35.4165 94.8401 35.1223C95.1038 34.8232 95.3928 34.595 95.7072 34.4378C96.0267 34.2755 96.5261 34.2857 97.2056 34.4682C98.0068 34.9094 98.4886 35.3328 98.6508 35.7384C98.808 36.1492 98.8562 36.5853 98.7953 37.0467C98.699 37.2749 98.59 37.4575 98.4683 37.5944C98.235 37.8378 98.0068 38.104 97.7837 38.393C97.5555 38.6871 97.3603 38.9077 97.198 39.0548C97.0307 39.2018 96.8862 39.3666 96.7645 39.5492C96.6833 39.5492 96.6047 39.5973 96.5287 39.6937C96.483 39.7545 96.4957 39.79 96.5667 39.8002C97.2107 39.9117 97.7837 40.1019 98.2857 40.3706C98.7827 40.6343 99.1047 40.969 99.2517 41.3747C99.4951 42.0897 99.0996 42.8858 98.0651 43.763C97.3806 44.3208 96.7417 44.7671 96.1484 45.1017C95.55 45.4364 94.9238 45.6164 94.2696 45.6418C94.0719 45.657 93.8944 45.6088 93.7372 45.4973C93.58 45.3857 93.5445 45.2462 93.6307 45.0789C93.6916 45.0028 93.8133 44.8938 93.9958 44.7518C94.1784 44.6048 94.2696 44.5059 94.2696 44.4552C94.2798 44.2625 94.2848 44.0647 94.2848 43.8619C94.2848 43.6641 94.2823 43.4841 94.2772 43.3219C94.2722 43.1647 94.2443 42.9669 94.1936 42.7286C94.1429 42.4953 94.1099 42.3178 94.0947 42.1961C94.0744 42.0744 94.0338 41.8792 93.973 41.6105C93.9121 41.3417 93.8766 41.1592 93.8665 41.0628C93.8513 40.9868 93.8183 40.8879 93.7676 40.7662C93.7118 40.6445 93.6662 40.538 93.6307 40.4467C93.5901 40.3554 93.5749 40.2489 93.5851 40.1272C93.5901 40.0055 93.6358 39.8965 93.722 39.8002C93.8285 39.6937 93.8995 39.4807 93.935 39.1613C94.011 38.9432 94.0034 38.7226 93.9121 38.4995C93.8209 38.2713 93.793 37.9696 93.8285 37.5944C94.0364 37.0822 94.191 36.6157 94.2925 36.1948ZM95.1063 37.4651C95.0962 37.6121 95.1114 37.82 95.152 38.0888C95.1925 38.3525 95.2027 38.5578 95.1824 38.7049C95.5323 38.7657 95.8593 38.6567 96.1636 38.3778C96.4678 38.0989 96.7239 37.8124 96.9318 37.5183C97.1042 37.3256 97.2462 37.105 97.3578 36.8566C97.4744 36.603 97.4541 36.2405 97.2969 35.7689C97.1397 35.2922 96.7619 35.2187 96.1636 35.5483C95.7021 36.0706 95.4232 36.4332 95.3269 36.636C95.2306 36.8337 95.157 37.1101 95.1063 37.4651ZM95.5475 42.3026C95.5576 42.3736 95.5779 42.5232 95.6083 42.7514C95.6388 42.9745 95.6717 43.1621 95.7072 43.3143C95.7427 43.4664 95.7985 43.6109 95.8745 43.7478C95.9202 43.7072 96.0774 43.5957 96.3461 43.4131C96.6149 43.2306 96.7974 43.1013 96.8938 43.0252C96.9901 42.9441 97.1194 42.8224 97.2817 42.6601C97.4389 42.4928 97.5352 42.3305 97.5707 42.1733C97.6062 42.0161 97.6012 41.8463 97.5555 41.6637C97.515 41.4558 97.3476 41.2606 97.0535 41.078C96.7543 40.8955 96.4552 40.7865 96.156 40.751C95.8568 40.7155 95.6109 40.7712 95.4182 40.9183C95.3573 41.0856 95.3269 41.2124 95.3269 41.2986C95.3269 41.3848 95.3599 41.5471 95.4258 41.7854C95.4917 42.0187 95.5323 42.1911 95.5475 42.3026Z" fill="white"/>
<path d="M101.138 37.5716C101.123 37.8911 101.123 38.2638 101.138 38.6897C101.163 38.7506 101.201 38.7861 101.252 38.7962C101.308 38.8114 101.374 38.8114 101.45 38.7962L101.556 38.781C101.642 38.7049 101.815 38.5528 102.073 38.3246C102.337 38.0914 102.535 37.9266 102.667 37.8302C102.804 37.7339 102.984 37.6324 103.207 37.526C103.435 37.4245 103.655 37.389 103.868 37.4195C104.081 37.4499 104.297 37.5386 104.515 37.6857C104.723 37.853 104.786 38.0356 104.705 38.2333C104.624 38.426 104.482 38.5782 104.279 38.6897C104.193 38.7607 103.909 38.9433 103.427 39.2374C102.946 39.5264 102.596 39.7926 102.378 40.036C103.179 40.6952 104.383 41.8336 105.991 43.4512C106.209 43.7555 106.13 44.0546 105.755 44.3487C105.598 44.5769 105.382 44.6986 105.108 44.7138C104.834 44.724 104.637 44.6378 104.515 44.4552C104.246 44.1662 103.96 43.8772 103.655 43.5881C103.351 43.3042 102.981 42.9669 102.545 42.5765C102.104 42.186 101.8 41.9122 101.632 41.755L101.465 41.6637C101.379 41.6637 101.353 41.755 101.389 41.9376C101.353 42.2063 101.379 42.6272 101.465 43.2002C101.551 43.7681 101.581 44.1865 101.556 44.4552C101.531 44.6885 101.412 44.866 101.199 44.9877C100.986 45.1094 100.77 45.1575 100.552 45.1322C100.334 45.1068 100.2 45.0282 100.149 44.8964C99.8701 44.1763 99.6799 43.332 99.5785 42.3635C99.472 41.4001 99.4289 40.6039 99.4492 39.9752C99.4644 39.3464 99.4974 38.5274 99.5481 37.5184C99.6191 37.2648 99.7585 37.0823 99.9664 36.9707H100.567C100.861 37.0468 101.052 37.1685 101.138 37.3358V37.5716Z" fill="white"/>
<path d="M111.794 41.2074C111.794 41.4001 111.815 41.7246 111.855 42.181C111.891 42.6373 111.901 43.0278 111.886 43.3523C111.876 43.6769 111.822 43.9659 111.726 44.2194C111.614 44.4983 111.368 44.6302 110.988 44.615C110.603 44.5947 110.367 44.4324 110.281 44.1282C110.235 43.9557 110.25 43.7124 110.326 43.398C110.408 43.0836 110.448 42.8655 110.448 42.7438C110.423 42.7185 110.392 42.6678 110.357 42.5917C110.321 42.5461 110.296 42.5232 110.281 42.5232C110.255 42.5587 110.197 42.6551 110.106 42.8123C110.015 42.9695 109.954 43.076 109.923 43.1317C109.893 43.1875 109.832 43.2813 109.741 43.4132C109.649 43.5501 109.581 43.6414 109.535 43.687C109.485 43.7377 109.414 43.8138 109.322 43.9152C109.231 44.0217 109.15 44.0927 109.079 44.1282C109.003 44.1637 108.914 44.2093 108.813 44.2651C108.711 44.3208 108.61 44.3513 108.508 44.3563C108.412 44.3614 108.306 44.3614 108.189 44.3563C108.077 44.3513 107.953 44.331 107.816 44.2955C107.624 43.9912 107.464 43.6718 107.337 43.3371C107.205 43.0024 107.109 42.6018 107.048 42.1353C106.987 41.6739 106.947 41.3367 106.926 41.1237C106.901 40.9107 106.876 40.4974 106.85 39.8839C106.825 39.2703 106.812 38.9154 106.812 38.819C106.691 38.2815 106.769 37.9696 107.048 37.8834C107.829 37.6755 108.245 37.7313 108.296 38.0508C108.367 38.5122 108.42 39.2424 108.455 40.2414C108.491 41.2403 108.564 42.0009 108.676 42.5232C109.016 42.1429 109.35 41.5192 109.68 40.6521C110.009 39.7799 110.266 39.1917 110.448 38.8875C110.595 38.6441 110.816 38.5173 111.11 38.5072C111.409 38.4919 111.614 38.6187 111.726 38.8875C111.797 39.0954 111.84 39.3236 111.855 39.572C111.865 39.8205 111.858 40.1197 111.832 40.4696C111.807 40.8144 111.794 41.0603 111.794 41.2074Z" fill="white"/>
<path d="M127.006 39.9825C126.981 39.0698 127.265 38.3345 127.858 37.7767C128.457 37.2139 129.2 36.9933 130.087 37.115C130.817 37.2164 131.454 37.5713 131.996 38.1798C132.539 38.7883 132.802 39.4678 132.787 40.2183C132.681 40.5631 132.179 40.9992 131.281 41.5266C130.389 42.054 129.882 42.3785 129.76 42.5002C129.699 42.5154 129.623 42.5661 129.532 42.6523C129.44 42.7334 129.42 42.812 129.471 42.8881C129.613 43.1569 129.795 43.3445 130.019 43.451C130.237 43.5625 130.482 43.5929 130.756 43.5422C131.03 43.4966 131.279 43.4307 131.502 43.3445C131.73 43.2583 131.996 43.1366 132.3 42.9794C132.615 43.2228 132.714 43.5473 132.597 43.953C132.48 44.3637 132.234 44.5995 131.859 44.6604C131.834 44.6604 131.699 44.6806 131.456 44.7212C131.213 44.7618 131.061 44.7871 131 44.7973C130.939 44.8023 130.804 44.8125 130.597 44.8277C130.394 44.848 130.237 44.848 130.125 44.8277C130.013 44.8125 129.879 44.7897 129.722 44.7592C129.565 44.7288 129.413 44.6832 129.265 44.6223C127.805 43.9631 127.052 42.4165 127.006 39.9825ZM128.992 40.9181C130.087 40.8674 130.744 40.482 130.962 39.7619C131.159 39.336 131.002 39.0115 130.49 38.7883C129.978 38.5652 129.522 38.5551 129.121 38.7579C128.878 38.8948 128.715 39.1357 128.634 39.4805C128.558 39.8304 128.563 40.1524 128.649 40.4465C128.731 40.7457 128.845 40.9029 128.992 40.9181Z" fill="white"/>
<path d="M134.034 37.3738C134.45 37.0189 134.896 36.74 135.373 36.5371C135.844 36.3292 136.349 36.2025 136.886 36.1568C137.419 36.1163 137.923 36.2228 138.4 36.4763C138.694 36.6233 138.816 36.8059 138.765 37.0239C138.532 37.5006 138.359 37.9975 138.248 38.5148C138.131 39.032 138.07 39.5847 138.065 40.1729C138.055 40.7662 138.063 41.2733 138.088 41.6942C138.114 42.11 138.167 42.6754 138.248 43.3904C138.324 44.1003 138.375 44.62 138.4 44.9496C138.461 45.5683 138.443 46.0956 138.347 46.5317C138.25 46.9628 137.994 47.2924 137.579 47.5205C136.859 47.9363 136.062 47.982 135.19 47.6575C134.313 47.338 133.74 46.7827 133.471 45.9917C133.375 44.1408 133.773 42.8934 134.665 42.2494C135.563 41.6054 135.573 42.2925 134.696 44.3107C134.681 45.0308 134.81 45.5581 135.084 45.8928C135.358 46.2275 135.609 46.4633 135.837 46.6002C136.06 46.7422 136.318 46.7954 136.613 46.7599C136.699 46.7346 136.813 46.5698 136.955 46.2655C137.066 45.9004 137.104 45.373 137.069 44.6834C137.033 43.9989 136.988 43.4766 136.932 43.1165C136.876 42.7565 136.788 42.2291 136.666 41.5344C136.666 41.5091 136.671 41.4609 136.681 41.3899C136.742 41.1212 136.732 40.9944 136.651 41.0096L136.537 41.0629C135.745 41.5344 135.053 41.6485 134.46 41.4051C134.095 41.2631 133.748 40.893 133.418 40.2946C133.185 39.7825 133.121 39.2602 133.228 38.7277C133.329 38.1902 133.598 37.7389 134.034 37.3738ZM135.205 37.8682C134.769 38.2435 134.587 38.6821 134.658 39.1841C134.779 40.0208 135.01 40.4391 135.35 40.4391C135.558 40.4544 135.733 40.3935 135.875 40.2566C136.012 40.1247 136.159 39.8839 136.316 39.534C136.478 39.1892 136.577 38.9813 136.613 38.9103C136.719 38.7277 136.782 38.4919 136.803 38.2029C136.823 37.9189 136.777 37.6908 136.666 37.5183C136.595 37.3713 136.463 37.313 136.27 37.3434C136.083 37.3738 135.898 37.4347 135.715 37.526C135.532 37.6172 135.363 37.7313 135.205 37.8682Z" fill="white"/>
<path d="M139.907 45.0789C139.785 45.0535 139.664 44.9064 139.542 44.6377C139.501 44.3334 139.473 43.7427 139.458 42.8654C139.438 41.9933 139.375 41.3138 139.268 40.827C139.253 40.8016 139.215 40.7281 139.154 40.6064C139.093 40.4847 139.055 40.3782 139.04 40.2869C139.02 40.1957 139.022 40.1069 139.047 40.0207C139.073 39.97 139.121 39.9092 139.192 39.8382C139.263 39.7672 139.306 39.7063 139.321 39.6556C139.347 39.4629 139.347 39.0319 139.321 38.3626C139.296 37.6932 139.319 37.2596 139.39 37.0619C139.451 36.8083 139.603 36.5928 139.846 36.4154C140.09 36.2379 140.303 36.2582 140.485 36.4762C140.657 36.6588 140.749 36.8793 140.759 37.1379C140.774 37.3915 140.744 37.64 140.668 37.8834C140.597 38.1268 140.551 38.3879 140.531 38.6668C140.515 38.9508 140.569 39.2068 140.69 39.435C141.238 39.4705 141.743 39.5567 142.204 39.6936C142.666 39.8255 143.091 40.0511 143.482 40.3706C143.872 40.685 144.146 41.0729 144.303 41.5343C144.45 41.9502 144.417 42.3837 144.205 42.835C143.992 43.2812 143.69 43.6463 143.299 43.9303C142.691 44.3563 142.113 44.6808 141.565 44.9039C141.018 45.127 140.465 45.1853 139.907 45.0789ZM140.911 43.7097C141.459 43.6742 141.961 43.5044 142.417 43.2001C142.873 42.8959 143.094 42.5105 143.079 42.044C143.069 41.7549 142.924 41.4862 142.645 41.2377C142.361 40.9842 142.029 40.8042 141.649 40.6977C141.263 40.5861 140.901 40.5557 140.561 40.6064C140.561 42.0059 140.678 43.0404 140.911 43.7097ZM146 40.2033C146 40.5329 146.027 40.9284 146.083 41.3898C146.139 41.8513 146.19 42.2493 146.235 42.584C146.286 42.9187 146.309 43.2914 146.304 43.7021C146.299 44.1078 146.246 44.4805 146.144 44.8202C146.109 44.9419 145.987 45.056 145.779 45.1625C145.576 45.2639 145.361 45.2868 145.132 45.231C144.909 45.1752 144.78 45.0155 144.745 44.7518C144.547 42.5815 144.448 41.1616 144.448 40.4923C144.448 39.8635 144.547 38.8367 144.745 37.4118C144.745 37.2039 144.823 37.0086 144.98 36.8261C145.138 36.6435 145.333 36.5218 145.566 36.461C145.83 36.3748 146.088 36.4382 146.342 36.6511C146.59 36.8641 146.671 37.0695 146.585 37.2673C146.195 38.1394 146 39.1181 146 40.2033Z" fill="white"/>
</svg>
