<svg width="26" height="33" viewBox="0 0 26 33" fill="none" xmlns="http://www.w3.org/2000/svg">
<path d="M13.2054 8.05531L11.4026 4.69245L9.66271 8.08824C9.017 9.34846 7.9691 10.8654 6.79906 12.5592C6.39372 13.1459 5.97372 13.7539 5.55071 14.3798C4.763 15.5453 3.98319 16.7515 3.3657 17.898C2.76631 19.0109 2.22579 20.235 2.05895 21.4104L2.05325 21.4505L2.04919 21.4908C1.62933 25.6549 3.94345 29.4935 7.655 30.8746L7.99244 31.0001H8.35248H18.2926H18.8307L19.2962 30.7301C21.1072 29.6794 22.2845 28.2906 22.8179 26.6186C23.3343 25.0001 23.1685 23.3601 22.7845 21.9142C22.4005 20.4683 21.7545 19.057 21.1347 17.8207C20.8653 17.2832 20.6136 16.8015 20.3792 16.353C20.033 15.6905 19.7246 15.1003 19.4528 14.5097L18.0597 11.4821L16.2988 13.7997C15.5223 12.3914 14.7619 10.9678 13.9942 9.53045C13.7324 9.04031 13.4698 8.54858 13.2054 8.05531Z" fill="#222222" stroke="white" stroke-width="4"/>
</svg>
