<svg width="30" height="30" viewBox="0 0 30 30" fill="none" xmlns="http://www.w3.org/2000/svg">
<path fill-rule="evenodd" clip-rule="evenodd" d="M27.7249 12.4662L28.8586 9.7334C28.9221 9.5802 28.9221 9.40778 28.8586 9.25458C28.7952 9.10138 28.6734 8.97961 28.5202 8.91614L25.7938 7.78882V4.83136C25.7938 4.48621 25.5139 4.20636 25.1688 4.20636H22.2116L21.0837 1.47992C21.0205 1.32672 20.8987 1.20496 20.7455 1.14148C20.592 1.078 20.4196 1.078 20.2667 1.14148L17.5342 2.27551L15.4419 0.183228C15.1978 -0.0609131 14.8022 -0.0609131 14.5581 0.183228L12.4716 2.26941L9.73877 1.14117C9.41925 1.00903 9.05426 1.16132 8.92273 1.47992L7.7948 4.20636H4.83765C4.49249 4.20636 4.21265 4.48621 4.21265 4.83136V7.78271L1.47919 8.91644C1.32629 8.97992 1.20453 9.10168 1.14105 9.25488C1.07788 9.40808 1.07788 9.5802 1.14136 9.7334L2.27539 12.4662L0.183105 14.5582C0.065918 14.6754 0 14.8344 0 15.0001C0 15.1658 0.065918 15.3248 0.183105 15.442L2.27509 17.534L1.14166 20.2604C1.07788 20.4136 1.07788 20.5858 1.14105 20.739C1.20453 20.8922 1.32599 21.0142 1.47919 21.0777L4.21265 22.2114V25.1628C4.21265 25.5079 4.49249 25.7878 4.83765 25.7878H7.789L8.92273 28.5209C8.98651 28.6741 9.10828 28.7956 9.26147 28.8591C9.41437 28.9219 9.58649 28.9225 9.73999 28.8585L12.4664 27.7253L14.5581 29.817C14.6802 29.9391 14.8401 30.0001 15 30.0001C15.1599 30.0001 15.3198 29.9391 15.4419 29.817L17.5342 27.725L20.2667 28.8588C20.5862 28.9912 20.9515 28.8395 21.0837 28.5209L22.2177 25.7878H25.1688C25.5139 25.7878 25.7938 25.5079 25.7938 25.1628V22.2053L28.5202 21.078C28.8388 20.9459 28.9905 20.5809 28.8589 20.262L27.7307 17.5285L29.8169 15.442C30.061 15.1979 30.061 14.8024 29.8169 14.5582L27.7249 12.4662ZM26.5518 16.9395C26.3733 17.118 26.3196 17.3866 26.416 17.6198L27.4652 20.1616L24.9298 21.2098C24.696 21.3066 24.5438 21.5345 24.5438 21.7875V24.5378H21.8002C21.5475 24.5378 21.3199 24.6898 21.2228 24.9232L20.1685 27.4647L17.6273 26.4103C17.3938 26.3139 17.1249 26.367 16.9458 26.5458L15 28.4913L13.0545 26.5458C12.9349 26.4262 12.775 26.3627 12.6126 26.3627C12.5317 26.3627 12.4503 26.3783 12.3727 26.4106L9.83765 27.4641L8.78387 24.9232C8.68683 24.6901 8.45917 24.5378 8.20648 24.5378H5.46265V21.7939C5.46265 21.5413 5.31036 21.3133 5.07721 21.2166L2.53601 20.1628L3.58978 17.6277C3.68683 17.3939 3.63373 17.1248 3.45459 16.9459L1.50879 15.0001L3.45459 13.0546C3.63342 12.8758 3.68683 12.6069 3.59009 12.3732L2.53571 9.83167L5.07721 8.77759C5.31036 8.68085 5.46265 8.45288 5.46265 8.2002V5.45636H8.21259C8.46558 5.45636 8.69354 5.30408 8.78998 5.07031L9.83887 2.53491L12.3801 3.58411C12.6123 3.67902 12.8812 3.62714 13.0606 3.4483L15 1.50891L16.9458 3.45471C17.1249 3.63385 17.3941 3.68726 17.6273 3.59021L20.1678 2.53583L21.2164 5.07031C21.3129 5.30408 21.5408 5.45636 21.7938 5.45636H24.5438V8.2066C24.5438 8.45959 24.696 8.68756 24.9298 8.7843L27.4643 9.83228L26.4102 12.3732C26.3135 12.6069 26.3669 12.8758 26.5457 13.0546L28.4912 15.0001L26.5518 16.9395ZM15.0003 6.00446C10.04 6.00446 6.00464 10.0398 6.00464 15.0001C6.00464 19.9604 10.04 23.9961 15.0003 23.9961C19.9606 23.9961 23.9963 19.9604 23.9963 15.0001C23.9963 10.0398 19.9606 6.00446 15.0003 6.00446ZM15.0003 22.7461C10.7294 22.7461 7.25464 19.2714 7.25464 15.0001C7.25464 10.7292 10.7294 7.25446 15.0003 7.25446C19.2715 7.25446 22.7463 10.7292 22.7463 15.0001C22.7463 19.2714 19.2715 22.7461 15.0003 22.7461ZM14.1189 14.1188V14.1191C13.6947 14.5433 13.1308 14.7767 12.5308 14.7767C11.9308 14.7767 11.3665 14.5433 10.9423 14.1188C10.0668 13.2432 10.0668 11.8184 10.942 10.9422C11.8185 10.0663 13.2437 10.0663 14.1189 10.9422C14.5434 11.3664 14.7769 11.9307 14.7769 12.5306C14.7769 13.1306 14.5434 13.6946 14.1192 14.1188H14.1189ZM11.8261 11.826C11.438 12.2145 11.438 12.8465 11.8261 13.235C12.2027 13.6116 12.8585 13.6116 13.2351 13.235C13.4234 13.0467 13.5269 12.7968 13.5269 12.5306C13.5269 12.2645 13.4234 12.0143 13.2351 11.826C13.041 11.6319 12.7859 11.5349 12.5308 11.5349C12.2757 11.5349 12.0205 11.6319 11.8261 11.826ZM15.8815 15.8815C15.0056 16.7573 15.0056 18.1822 15.8815 19.058C16.3194 19.496 16.8947 19.7151 17.4699 19.7151C18.0449 19.7151 18.6201 19.496 19.0581 19.058C19.9339 18.1822 19.9339 16.7573 19.0581 15.8812C18.1816 15.0053 16.7567 15.0062 15.8815 15.8815ZM18.1743 18.1743C17.7852 18.5627 17.1538 18.5621 16.7653 18.1743C16.3768 17.7858 16.3768 17.1537 16.7653 16.7653C16.9594 16.5712 17.2145 16.4741 17.4699 16.4741C17.7251 16.4741 17.9802 16.5712 18.1743 16.7653C18.5628 17.1537 18.5628 17.7858 18.1743 18.1743ZM17.2003 11.9157C17.4445 11.6716 17.84 11.6716 18.0841 11.9157C18.3282 12.1599 18.3282 12.5554 18.0841 12.7995L12.7991 18.0845C12.677 18.2066 12.5171 18.2676 12.3572 18.2676C12.1973 18.2676 12.0374 18.2066 11.9153 18.0845C11.6711 17.8404 11.6711 17.4449 11.9153 17.2007L17.2003 11.9157Z" fill="black"/>
</svg>
