<svg width="21" height="20" viewBox="0 0 21 20" fill="none" xmlns="http://www.w3.org/2000/svg">
<path d="M20.3424 18.5964L14.7562 13.05C16.051 11.4645 16.687 9.442 16.5328 7.40074C16.3785 5.35949 15.4457 3.45557 13.9273 2.08266C12.4088 0.709752 10.4209 -0.0271528 8.37445 0.0243149C6.32802 0.0757825 4.37963 0.911686 2.93212 2.35919C1.48462 3.80669 0.64872 5.75509 0.597252 7.80152C0.545784 9.84795 1.28269 11.8359 2.6556 13.3543C4.02851 14.8728 5.93242 15.8056 7.97368 15.9598C10.0149 16.1141 12.0374 15.4781 13.6229 14.1832L19.2092 19.7695C19.2876 19.8411 19.3795 19.8963 19.4796 19.9319C19.5796 19.9676 19.6857 19.9829 19.7918 19.977C19.8968 19.9776 20.0009 19.9574 20.0981 19.9177C20.1954 19.878 20.2838 19.8195 20.3584 19.7455C20.4346 19.67 20.4948 19.5799 20.5354 19.4806C20.576 19.3813 20.5961 19.2748 20.5947 19.1676C20.5932 19.0603 20.5701 18.9544 20.5267 18.8563C20.4834 18.7581 20.4207 18.6697 20.3424 18.5964ZM2.23496 8.00642C2.23496 6.74372 2.60939 5.50938 3.31091 4.45949C4.01242 3.4096 5.00951 2.59131 6.17609 2.1081C7.34267 1.62488 8.62634 1.49845 9.86477 1.74479C11.1032 1.99113 12.2408 2.59918 13.1336 3.49204C14.0265 4.3849 14.6345 5.52247 14.8809 6.7609C15.1272 7.99933 15.0008 9.283 14.5176 10.4496C14.0344 11.6162 13.2161 12.6132 12.1662 13.3148C11.1163 14.0163 9.88195 14.3907 8.61925 14.3907C6.92603 14.3907 5.30216 13.7181 4.10488 12.5208C2.90759 11.3235 2.23496 9.69964 2.23496 8.00642Z" fill="#4F4F4F"/>
</svg>
