<svg width="20" height="20" viewBox="0 0 20 20" fill="none" xmlns="http://www.w3.org/2000/svg">
<path fill-rule="evenodd" clip-rule="evenodd" d="M1.30261 3.32857H18.6975C19.4182 3.32857 20.0001 2.58507 20.0001 1.66428C20.0001 0.743495 19.4182 0 18.6975 0H1.30261C0.58192 0 0 0.743495 0 1.66428C0 2.58507 0.58192 3.32857 1.30261 3.32857ZM1.30261 11.6571H18.6975C19.4182 11.6571 20.0001 10.9136 20.0001 9.99285C20.0001 9.07206 19.4182 8.32857 18.6975 8.32857H1.30261C0.58192 8.32857 0 9.07206 0 9.99285C0 10.9136 0.58192 11.6571 1.30261 11.6571ZM18.6975 19.9857H1.30261C0.58192 19.9857 0 19.2422 0 18.3214C0 17.4006 0.58192 16.6571 1.30261 16.6571H18.6975C19.4182 16.6571 20.0001 17.4006 20.0001 18.3214C20.0001 19.2422 19.4182 19.9857 18.6975 19.9857Z" fill="black"/>
</svg>
