<svg width="40" height="40" viewBox="0 0 40 40" fill="none" xmlns="http://www.w3.org/2000/svg">
<rect width="40" height="40" fill="#E93A2F"/>
<path d="M20 19.25H19.9996C19.4414 19.2503 18.8887 19.1406 18.373 18.9272C17.8572 18.7137 17.3886 18.4007 16.994 18.006C16.5993 17.6114 16.2863 17.1428 16.0728 16.627C15.8594 16.1113 15.7497 15.5586 15.75 15.0004V15C15.75 14.1594 15.9993 13.3377 16.4663 12.6388C16.9333 11.9399 17.597 11.3952 18.3736 11.0735C19.1502 10.7518 20.0047 10.6677 20.8291 10.8317C21.6536 10.9957 22.4108 11.4004 23.0052 11.9948C23.5996 12.5892 24.0044 13.3464 24.1683 14.1709C24.3323 14.9953 24.2482 15.8498 23.9265 16.6264C23.6048 17.403 23.0601 18.0668 22.3612 18.5337C21.6623 19.0007 20.8406 19.25 20 19.25Z" stroke="white" stroke-width="1.5"/>
<path d="M12 29V26.6667C12 23.5627 17.3303 22 20 22C22.6697 22 28 23.5627 28 26.6667V29" stroke="white" stroke-width="1.5"/>
</svg>
